<svg width="80" height="80" viewBox="0 0 80 80" fill="none" xmlns="http://www.w3.org/2000/svg">
<circle cx="40" cy="40" r="40" fill="#651FFF"/>
<path d="M35.2 28.75C36.3892 28.75 37.35 29.7555 37.35 31C37.35 32.2445 36.3892 33.25 35.2 33.25H28.75C25.1286 33.25 22.3 36.2102 22.3 40C22.3 43.7266 25.1286 46.75 28.75 46.75H35.2C36.3892 46.75 37.35 47.7555 37.35 49C37.35 50.2445 36.3892 51.25 35.2 51.25H28.75C22.8126 51.25 18 46.2156 18 40C18 33.7844 22.8126 28.75 28.75 28.75H35.2ZM50.25 28.75C56.1894 28.75 61 33.7844 61 40C61 46.2156 56.1894 51.25 50.25 51.25H43.8C42.6108 51.25 41.65 50.2445 41.65 49C41.65 47.7555 42.6108 46.75 43.8 46.75H50.25C53.8109 46.75 56.7 43.7266 56.7 40C56.7 36.2102 53.8109 33.25 50.25 33.25H43.8C42.6108 33.25 41.65 32.2445 41.65 31C41.65 29.7555 42.6108 28.75 43.8 28.75H50.25Z" fill="white"/>
<path opacity="0.4" d="M30.8999 40C30.8999 38.7555 31.8607 37.75 33.0499 37.75H45.9499C47.1391 37.75 48.0999 38.7555 48.0999 40C48.0999 41.2445 47.1391 42.25 45.9499 42.25H33.0499C31.8607 42.25 30.8999 41.2445 30.8999 40Z" fill="white"/>
</svg>
