<svg width="80" height="80" viewBox="0 0 80 80" fill="none" xmlns="http://www.w3.org/2000/svg">
<circle cx="40" cy="40" r="40" fill="#651FFF"/>
<path d="M22.8572 52.0499C19.2397 48.5187 19.2397 42.7937 22.8572 39.2687L30.0508 32.1937C33.6127 28.7193 39.532 28.7193 43.0939 32.1937C46.297 35.3187 46.7711 40.2999 44.1381 43.8937L44.0677 43.9937C43.4078 44.8874 42.1266 45.0999 41.2105 44.4562C40.288 43.8124 40.0702 42.5624 40.73 41.6687L40.8005 41.5687C42.2675 39.5624 42.0369 36.8187 40.2495 35.0749C38.238 33.1124 34.9644 33.1124 32.9464 35.0749L25.7586 42.0937C23.74 44.0062 23.74 47.2499 25.7586 49.2187C27.5395 50.9624 30.3583 51.1874 32.4083 49.7562L32.5108 49.6312C33.4333 49.0437 34.7145 49.2499 35.368 50.1499C36.0278 51.0499 35.8164 52.2999 34.8939 52.9437L34.7914 53.0124C31.0502 55.5812 26.0597 55.1687 22.8572 52.0499Z" fill="white"/>
<path opacity="0.4" d="M56.1436 27.9526C59.7632 31.4814 59.7632 37.2064 56.1436 40.7314L48.9494 47.7501C45.3299 51.2814 39.4682 51.2814 35.8486 47.7501C32.6455 44.6251 32.2291 39.7001 34.8621 36.1064L34.9325 36.0064C35.5347 35.1126 36.816 34.9001 37.7897 35.5439C38.7122 36.1314 38.93 37.3814 38.2702 38.3314L38.1997 38.4314C36.7327 40.3814 36.9633 43.1814 38.7507 44.9251C40.7622 46.8876 44.0358 46.8876 46.0538 44.9251L53.2416 37.9064C55.2596 35.9376 55.2596 32.6939 53.2416 30.7814C51.4607 29.0395 48.6419 28.812 46.5919 30.2439L46.4894 30.3126C45.5669 30.9564 44.2857 30.6939 43.6322 29.8489C42.9724 28.9501 43.1838 27.7007 44.1063 27.0589L44.2088 26.9889C47.8924 24.4208 52.9405 24.8282 56.1436 27.9526Z" fill="white"/>
</svg>
