<svg width="80" height="80" viewBox="0 0 80 80" fill="none" xmlns="http://www.w3.org/2000/svg">
<circle cx="40" cy="40" r="40" fill="#651FFF"/>
<g clip-path="url(#clip0_5_553)">
<path d="M30.5874 35.4125C29.8068 34.6319 29.8068 33.3656 30.5874 32.5844L38.5874 24.5844C38.9749 24.1953 39.4874 24 39.9999 24C40.5124 24 41.0237 24.1953 41.4137 24.5859L49.4137 32.5859C50.1943 33.3666 50.1943 34.6328 49.4137 35.4141C48.6324 36.1947 47.3662 36.1953 46.5855 35.4141L41.9999 30.8313V46C41.9999 47.1044 41.1043 48 39.9999 48C38.8955 48 37.9999 47.1044 37.9999 46V30.8313L33.4124 35.4125C32.6312 36.1938 31.3687 36.1938 30.5874 35.4125Z" fill="white"/>
<path opacity="0.4" d="M54 46H44C44 48.2094 42.2094 50 40 50C37.7906 50 36 48.2094 36 46H26C24.8956 46 24 46.8956 24 48V54C24 55.1044 24.8956 56 26 56H54C55.1044 56 56 55.1044 56 54V48C56 46.8937 55.1063 46 54 46ZM51 52.5C50.175 52.5 49.5 51.825 49.5 51C49.5 50.175 50.175 49.5 51 49.5C51.825 49.5 52.5 50.175 52.5 51C52.5 51.825 51.825 52.5 51 52.5Z" fill="white"/>
</g>
<defs>
<clipPath id="clip0_5_553">
<rect width="32" height="32" fill="white" transform="translate(24 24)"/>
</clipPath>
</defs>
</svg>
