<svg width="469" height="469" viewBox="0 0 469 469" fill="none" xmlns="http://www.w3.org/2000/svg">
<g clip-path="url(#clip0_5_551)">
<path d="M208.3 461.7H465.9" stroke="#263238" stroke-miterlimit="10" stroke-linecap="round" stroke-linejoin="round"/>
<path d="M16.2998 461.7H200.3" stroke="#263238" stroke-miterlimit="10" stroke-linecap="round" stroke-linejoin="round"/>
<path d="M418.9 423.6C417.4 424.1 413.8 423.5 413.8 423.5C413.8 423.5 414.9 421.3 414.9 421.1C415.9 419.6 418.7 417.2 420.7 417.7C422.1 418.1 422.7 419.6 422.3 421C421.8 422.3 420.2 423.2 418.9 423.6Z" fill="#263238"/>
<path d="M385.7 422.1C385.7 422.1 385.3 419.7 385.3 419.5C385.3 417.7 386.3 414.1 388.2 413.5C389.6 413 391 414 391.3 415.4C391.6 416.8 390.8 418.4 389.9 419.4C389 420.5 385.7 422.1 385.7 422.1Z" fill="#263238"/>
<path d="M378.1 415.5C379.2 416.1 381.7 416.4 382.3 416.4C382.6 416.8 382.9 417.3 383.3 417.8C383.9 418.7 384.6 419.8 385.3 420.9C385.5 421.2 385.7 421.6 385.8 421.9C385.4 421.4 384.8 420.7 384.7 420.7C383.5 419.6 380.6 418.2 379 419.1C377.9 419.7 377.7 421.2 378.4 422.2C379.1 423.2 380.6 423.6 381.8 423.7C383.1 423.7 385.5 422.8 386 422.6C386.4 423.3 386.8 424.1 387.1 424.9C387.7 426.3 388.3 427.9 388.7 429.5C388.6 429.5 388.7 429.5 388.6 429.5C388.3 429 387.5 427.9 387.5 427.9C386.4 426.7 383.7 425 382 425.7C380.8 426.2 380.5 427.6 381.1 428.7C381.7 429.8 383.2 430.4 384.4 430.5C385.8 430.7 388.7 429.8 388.8 429.8C389.1 431.3 389.4 433 389.5 434.6C389.6 435.8 389.7 437 389.7 438.2C389.5 437.8 388.5 436.5 388.5 436.4C387.4 435.2 384.7 433.5 383 434.2C381.8 434.7 381.5 436.1 382.1 437.2C382.7 438.3 384.2 438.9 385.4 439C386.7 439.2 389.5 438.4 389.8 438.3C389.8 438.9 389.8 439.4 389.9 440C389.9 441.8 390 443.6 390.1 445.4C390.1 446 390.2 446.6 390.2 447.2C389.8 446.7 389.2 445.7 389.1 445.6C388 444.4 385.3 442.7 383.6 443.4C382.4 443.9 382.1 445.3 382.7 446.4C383.3 447.5 384.8 448.1 386 448.2C387.2 448.4 389.6 447.7 390.2 447.5C390.3 448.5 390.4 449.5 390.6 450.5C390.7 450.9 390.7 451.4 390.8 451.8C390.9 452.2 391 452.6 391.1 453C391.3 453.8 391.5 454.6 391.7 455.3C391.8 455.7 391.9 456 392 456.4C391.7 455.8 391.3 454.9 391.2 454.8C390.3 453.4 387.9 451.3 386.1 451.8C384.8 452.1 384.3 453.5 384.7 454.6C385.1 455.8 386.5 456.6 387.7 456.9C389 457.3 391.8 456.9 392.1 456.9C392.4 457.8 392.6 458.7 392.9 459.5C393.1 460.2 393.3 460.8 393.5 461.4H394.7C394.4 460.7 394.2 460 393.9 459.2C393.6 458.5 393.4 457.7 393.1 456.9C393.4 456.8 395.9 455.8 396.8 454.9C397.8 455.6 399 456.1 399.2 456.2C398.9 457.1 398.7 458 398.4 458.8C398.1 459.7 397.9 460.6 397.7 461.5H398.9C399.1 460.7 399.3 460 399.5 459.1C399.7 458.3 399.9 457.5 400.1 456.7C400.4 456.8 403.2 457.3 404.5 457C405.7 456.7 407.1 456.1 407.6 454.9C408.1 453.8 407.6 452.4 406.4 452C404.7 451.4 402.1 453.4 401.1 454.7C401 454.8 400.4 455.8 400.1 456.4C400.2 455.9 400.4 455.4 400.5 454.9C400.7 454.2 401 453.4 401.2 452.6C401.3 452.2 401.5 451.8 401.6 451.4C401.7 451 401.9 450.6 402.1 450.2C402.3 449.6 402.6 449.1 402.9 448.5C403.6 448.8 405.8 449.5 407 449.4C408.2 449.3 409.7 448.9 410.4 447.8C411.1 446.8 410.8 445.3 409.7 444.7C408.1 443.9 405.2 445.4 404.1 446.5C404.1 446.5 403.8 446.8 403.6 447.1C403.9 446.6 404.2 446 404.5 445.5C405.4 443.9 406.3 442.4 407.2 440.8C407.4 440.5 407.6 440.1 407.8 439.8C408.4 440 410.8 440.8 412 440.8C413.2 440.7 414.7 440.3 415.4 439.2C416.1 438.2 415.8 436.7 414.7 436.1C413.1 435.3 410.2 436.8 409.1 437.9C409.1 437.9 408.8 438.3 408.5 438.6C409 437.7 409.5 436.9 409.9 436C410.7 434.5 411.4 433 411.9 431.4C412.1 431.5 414.9 432.5 416.2 432.4C417.4 432.3 418.9 431.9 419.6 430.8C420.3 429.8 420 428.3 418.9 427.7C417.3 426.9 414.4 428.4 413.3 429.5C413.2 429.6 412.3 430.7 412 431.2C412 431.2 412 431.2 412 431.1C412.6 429.5 412.9 427.9 413.2 426.3C413.5 424.8 413.6 423.3 413.6 421.9C413.7 420.5 413.6 419.3 413.6 418.2C413.6 417.6 413.5 417.1 413.5 416.5C413.5 416.5 414.3 414.5 414.3 414.3C414.7 412.7 414.5 409.5 413 408.6C411.9 407.9 410.5 408.5 410 409.6C409.5 410.7 409.9 412.3 410.4 413.3C411 414.4 412.9 416 413.4 416.4C413.4 416.9 413.4 417.5 413.5 418.1C413.5 419.2 413.5 420.5 413.4 421.8C413.4 422.2 413.3 422.5 413.3 422.9C413.2 422.3 413.1 421.4 413.1 421.3C412.7 419.7 411.1 417 409.3 416.8C408 416.7 407 417.8 407.1 419.1C407.1 420.4 408.2 421.5 409.2 422.2C410.2 422.9 412.8 423.5 413.3 423.6C413.2 424.4 413.1 425.3 412.9 426.2C412.6 427.7 412.2 429.3 411.6 430.9C411.5 430.9 411.6 430.9 411.5 430.9C411.5 430.3 411.5 429 411.5 428.9C411.3 427.3 409.9 424.4 408.2 424C406.9 423.8 405.9 424.8 405.8 426C405.7 427.3 406.6 428.5 407.5 429.3C408.5 430.2 411.4 431.1 411.6 431.1C411 432.6 410.3 434 409.5 435.5C408.9 436.6 408.3 437.6 407.7 438.6C407.7 438.2 407.7 436.5 407.7 436.4C407.5 434.8 406.1 431.9 404.4 431.5C403.1 431.3 402.1 432.3 402 433.5C401.9 434.8 402.8 436 403.7 436.8C404.7 437.7 407.5 438.6 407.7 438.6C407.4 439.1 407.1 439.5 406.8 440C405.8 441.5 404.9 443.1 404 444.6C403.7 445.1 403.4 445.7 403.1 446.2C403.1 445.6 403.1 444.4 403.1 444.3C402.9 442.7 401.5 439.8 399.8 439.4C398.5 439.2 397.5 440.2 397.4 441.4C397.3 442.7 398.2 443.9 399.1 444.7C400 445.5 402.3 446.3 403 446.5C402.5 447.4 402.1 448.3 401.6 449.2C401.4 449.6 401.2 450 401.1 450.4C401 450.8 400.8 451.2 400.7 451.6C400.4 452.4 400.2 453.1 399.9 453.9C399.8 454.3 399.7 454.6 399.6 455C399.7 454.4 399.8 453.3 399.8 453.2C399.8 451.6 399 448.5 397.3 447.9C396.1 447.5 394.9 448.3 394.6 449.5C394.6 449.7 394.5 449.8 394.5 450C393.7 451.2 393.2 452.9 393.1 453.9C393.1 454 393.2 455.2 393.2 455.8C393 455.3 392.9 454.8 392.7 454.3C392.5 453.6 392.3 452.8 392 452C391.9 451.6 391.8 451.2 391.7 450.8C391.6 450.4 391.5 450 391.5 449.6C391.4 449 391.3 448.4 391.2 447.7C392 447.5 394.2 446.9 395.1 446.2C396 445.5 397.1 444.3 397 443C397 441.8 396 440.7 394.7 440.8C392.9 441 391.4 443.8 391 445.4C391 445.5 391 445.8 390.9 446.2C390.8 445.6 390.8 445 390.7 444.3C390.6 442.5 390.5 440.7 390.4 438.9C390.4 438.5 390.4 438.1 390.3 437.8C390.9 437.6 393.4 437 394.3 436.3C395.2 435.6 396.3 434.4 396.2 433.1C396.2 431.9 395.2 430.8 393.9 430.9C392.1 431.1 390.6 433.9 390.2 435.5C390.2 435.6 390.1 436 390.1 436.4C390 435.4 390 434.4 389.9 433.5C389.7 431.8 389.5 430.1 389.1 428.5C389.3 428.4 392.2 427.8 393.3 427C394.2 426.3 395.3 425.1 395.2 423.8C395.2 422.6 394.2 421.5 392.9 421.6C391.1 421.8 389.6 424.6 389.2 426.2C389.2 426.3 389 427.8 389 428.3C389 428.3 389 428.3 389 428.2C388.6 426.5 388 425 387.3 423.6C386.7 422.2 385.9 420.9 385.2 419.7C384.5 418.5 383.8 417.5 383.2 416.6C382.9 416.1 382.5 415.7 382.2 415.3C382.2 415.3 381.7 413.2 381.7 413C381.2 411.5 379.2 408.9 377.4 409C376.1 409 375.3 410.3 375.4 411.5C375.9 413.9 377.1 414.9 378.1 415.5Z" fill="#263238"/>
<g opacity="0.3">
<path d="M304.8 55.8H181L119.1 163L181 270.2H304.8L366.6 163L304.8 55.8Z" stroke="black" stroke-miterlimit="10" stroke-linecap="round" stroke-linejoin="round"/>
<path d="M142.5 0.5L181 55.8L20.5 92.8" stroke="black" stroke-miterlimit="10" stroke-linecap="round" stroke-linejoin="round"/>
<path d="M328.2 6.6001L304.8 55.8001H458.9" stroke="black" stroke-miterlimit="10" stroke-linecap="round" stroke-linejoin="round"/>
<path d="M181 270.2L96.1001 440.9" stroke="black" stroke-miterlimit="10" stroke-linecap="round" stroke-linejoin="round"/>
<path d="M389.6 400.6L304.8 270.2L462.2 191.8" stroke="black" stroke-miterlimit="10" stroke-linecap="round" stroke-linejoin="round"/>
<path d="M8 298.2L150.7 335L235.4 429.9" stroke="black" stroke-miterlimit="10" stroke-linecap="round" stroke-linejoin="round"/>
<path d="M464.1 163H366.6L345.3 333.7L195.8 383.5" stroke="black" stroke-miterlimit="10" stroke-linecap="round" stroke-linejoin="round"/>
<path d="M345.3 333.7L460 296.1" stroke="black" stroke-miterlimit="10" stroke-linecap="round" stroke-linejoin="round"/>
<path d="M150.7 335L119.1 163L0.5 176.6" stroke="black" stroke-miterlimit="10" stroke-linecap="round" stroke-linejoin="round"/>
<path d="M154.2 335C154.2 333.1 152.6 331.5 150.7 331.5C148.8 331.5 147.2 333.1 147.2 335C147.2 337 148.8 338.5 150.7 338.5C152.6 338.6 154.2 337 154.2 335Z" fill="black"/>
<path d="M198.2 383.8C198.2 381.9 196.6 380.3 194.7 380.3C192.7 380.3 191.2 381.9 191.2 383.8C191.2 385.8 192.8 387.3 194.7 387.3C196.6 387.3 198.2 385.7 198.2 383.8Z" fill="black"/>
<path d="M345.3 337.2C347.233 337.2 348.8 335.633 348.8 333.7C348.8 331.767 347.233 330.2 345.3 330.2C343.367 330.2 341.8 331.767 341.8 333.7C341.8 335.633 343.367 337.2 345.3 337.2Z" fill="black"/>
<path d="M308.3 270.2C308.3 268.2 306.7 266.7 304.8 266.7C302.9 266.7 301.3 268.3 301.3 270.2C301.3 272.2 302.9 273.7 304.8 273.7C306.7 273.7 308.3 272.1 308.3 270.2Z" fill="black"/>
<path d="M359 245.1C359 243.2 357.4 241.6 355.5 241.6C353.6 241.6 352 243.2 352 245.1C352 247.1 353.6 248.6 355.5 248.6C357.4 248.7 359 247.1 359 245.1Z" fill="black"/>
<path d="M308.3 55.8C308.3 53.8 306.7 52.3 304.8 52.3C302.9 52.3 301.3 53.9 301.3 55.8C301.3 57.8 302.9 59.3 304.8 59.3C306.7 59.3 308.3 57.7 308.3 55.8Z" fill="black"/>
<path d="M184.5 55.8C184.5 53.8 182.9 52.3 181 52.3C179 52.3 177.5 53.9 177.5 55.8C177.5 57.8 179.1 59.3 181 59.3C182.9 59.3 184.5 57.7 184.5 55.8Z" fill="black"/>
<path d="M122.6 163C122.6 161 121 159.5 119.1 159.5C117.1 159.5 115.6 161.1 115.6 163C115.6 164.9 117.2 166.5 119.1 166.5C121 166.5 122.6 164.9 122.6 163Z" fill="black"/>
<path d="M181 273.7C182.933 273.7 184.5 272.133 184.5 270.2C184.5 268.267 182.933 266.7 181 266.7C179.067 266.7 177.5 268.267 177.5 270.2C177.5 272.133 179.067 273.7 181 273.7Z" fill="black"/>
<path d="M366.8 162.6L400 20.7" stroke="black" stroke-miterlimit="10" stroke-linecap="round" stroke-linejoin="round"/>
<path d="M119.1 163L28.7998 42.7" stroke="black" stroke-miterlimit="10" stroke-linecap="round" stroke-linejoin="round"/>
<path d="M370.3 162.6C370.3 160.7 368.7 159.1 366.8 159.1C364.8 159.1 363.3 160.7 363.3 162.6C363.3 164.6 364.9 166.1 366.8 166.1C368.8 166.2 370.3 164.6 370.3 162.6Z" fill="black"/>
<path d="M62.8999 82.8999C62.8999 80.8999 61.2999 79.3999 59.3999 79.3999C57.3999 79.3999 55.8999 80.9999 55.8999 82.8999C55.8999 84.8999 57.4999 86.3999 59.3999 86.3999C61.2999 86.3999 62.8999 84.7999 62.8999 82.8999Z" fill="black"/>
</g>
<path d="M350.9 263.5H318.9C316.6 263.5 314.8 261.7 314.8 259.4V238.4C314.8 236.1 316.6 234.3 318.9 234.3H350.9C353.2 234.3 355 236.1 355 238.4V259.4C355 261.6 353.1 263.5 350.9 263.5Z" fill="#263238" stroke="#263238" stroke-miterlimit="10"/>
<path d="M342 248.3L329.2 240.9V255.6L342 248.3Z" fill="white" stroke="#263238" stroke-miterlimit="10" stroke-linecap="round" stroke-linejoin="round"/>
<path d="M432 372.1H400C397.7 372.1 395.9 370.3 395.9 368V347C395.9 344.7 397.7 342.9 400 342.9H432C434.3 342.9 436.1 344.7 436.1 347V368C436.1 370.3 434.3 372.1 432 372.1Z" fill="#263238" stroke="#263238" stroke-miterlimit="10"/>
<path d="M423.1 356.9L410.3 349.5V364.3L423.1 356.9Z" fill="white" stroke="#263238" stroke-miterlimit="10" stroke-linecap="round" stroke-linejoin="round"/>
<path d="M269.7 68.3001H236.5C234.2 68.3001 232.4 66.5 232.4 64.2V42.4001C232.4 40.1001 234.2 38.3 236.5 38.3H269.7C272 38.3 273.8 40.1001 273.8 42.4001V64.2C273.8 66.5 272 68.3001 269.7 68.3001Z" fill="#263238" stroke="#263238" stroke-miterlimit="10"/>
<path d="M260.4 52.7001L247.3 45.1001V60.2001L260.4 52.7001Z" fill="white" stroke="#263238" stroke-miterlimit="10" stroke-linecap="round" stroke-linejoin="round"/>
<path d="M153.4 297.2H121.4C119.1 297.2 117.3 295.4 117.3 293.1V272.1C117.3 269.8 119.1 268 121.4 268H153.4C155.7 268 157.5 269.8 157.5 272.1V293.1C157.6 295.3 155.7 297.2 153.4 297.2Z" fill="#263238" stroke="#263238" stroke-miterlimit="10"/>
<path d="M144.5 282L131.8 274.6V289.3L144.5 282Z" fill="white" stroke="#263238" stroke-miterlimit="10" stroke-linecap="round" stroke-linejoin="round"/>
<path d="M95.6999 138.3H62.4999C60.1999 138.3 58.3999 136.5 58.3999 134.2V112.4C58.3999 110.1 60.1999 108.3 62.4999 108.3H95.6999C97.9999 108.3 99.7999 110.1 99.7999 112.4V134.2C99.8999 136.4 97.9999 138.3 95.6999 138.3Z" fill="#263238" stroke="#263238" stroke-miterlimit="10"/>
<path d="M86.3998 122.6L73.2998 115V130.2L86.3998 122.6Z" fill="white" stroke="#263238" stroke-miterlimit="10" stroke-linecap="round" stroke-linejoin="round"/>
<path d="M434.3 333.8H399.7V289.7H428.8L434.3 296.2V333.8Z" fill="white" stroke="#263238" stroke-miterlimit="10" stroke-linecap="round" stroke-linejoin="round"/>
<path d="M428.8 289.7V296.5H434.3L428.8 289.7Z" fill="white" stroke="#263238" stroke-miterlimit="10" stroke-linecap="round" stroke-linejoin="round"/>
<path d="M407.5 302.8H425.5" stroke="#263238" stroke-miterlimit="10" stroke-linecap="round" stroke-linejoin="round"/>
<path d="M407.5 310.3H425.5" stroke="#263238" stroke-miterlimit="10" stroke-linecap="round" stroke-linejoin="round"/>
<path d="M407.5 317.8H425.5" stroke="#263238" stroke-miterlimit="10" stroke-linecap="round" stroke-linejoin="round"/>
<path d="M293.1 412.5H258.5V368.3H287.5L293.1 374.9V412.5Z" fill="white" stroke="#263238" stroke-miterlimit="10" stroke-linecap="round" stroke-linejoin="round"/>
<path d="M287.5 368.3V375.2H293.1L287.5 368.3Z" fill="white" stroke="#263238" stroke-miterlimit="10" stroke-linecap="round" stroke-linejoin="round"/>
<path d="M266.3 381.4H284.2" stroke="#263238" stroke-miterlimit="10" stroke-linecap="round" stroke-linejoin="round"/>
<path d="M266.3 388.9H284.2" stroke="#263238" stroke-miterlimit="10" stroke-linecap="round" stroke-linejoin="round"/>
<path d="M266.3 396.4H284.2" stroke="#263238" stroke-miterlimit="10" stroke-linecap="round" stroke-linejoin="round"/>
<path d="M309.2 426.8H274.6V382.6H303.6L309.2 389.2V426.8Z" fill="white" stroke="#263238" stroke-miterlimit="10" stroke-linecap="round" stroke-linejoin="round"/>
<path d="M303.6 382.6V389.5H309.2L303.6 382.6Z" fill="white" stroke="#263238" stroke-miterlimit="10" stroke-linecap="round" stroke-linejoin="round"/>
<path d="M282.4 395.7H300.3" stroke="#263238" stroke-miterlimit="10" stroke-linecap="round" stroke-linejoin="round"/>
<path d="M282.4 403.2H300.3" stroke="#263238" stroke-miterlimit="10" stroke-linecap="round" stroke-linejoin="round"/>
<path d="M282.4 410.7H300.3" stroke="#263238" stroke-miterlimit="10" stroke-linecap="round" stroke-linejoin="round"/>
<path d="M380.9 72.3001H346.3V28.1001H375.4L380.9 34.6001V72.3001Z" fill="white" stroke="#263238" stroke-miterlimit="10" stroke-linecap="round" stroke-linejoin="round"/>
<path d="M375.4 28.1001V34.9001H380.9L375.4 28.1001Z" fill="white" stroke="#263238" stroke-miterlimit="10" stroke-linecap="round" stroke-linejoin="round"/>
<path d="M354.1 41.2002H372.1" stroke="#263238" stroke-miterlimit="10" stroke-linecap="round" stroke-linejoin="round"/>
<path d="M354.1 48.7002H372.1" stroke="#263238" stroke-miterlimit="10" stroke-linecap="round" stroke-linejoin="round"/>
<path d="M354.1 56.2002H372.1" stroke="#263238" stroke-miterlimit="10" stroke-linecap="round" stroke-linejoin="round"/>
<path d="M48.2001 154.5H13.6001V110.3H42.6001L48.2001 116.9V154.5Z" fill="white" stroke="#263238" stroke-miterlimit="10" stroke-linecap="round" stroke-linejoin="round"/>
<path d="M42.6001 110.3V117.2H48.2001L42.6001 110.3Z" fill="white" stroke="#263238" stroke-miterlimit="10" stroke-linecap="round" stroke-linejoin="round"/>
<path d="M21.3999 123.4H39.3999" stroke="#263238" stroke-miterlimit="10" stroke-linecap="round" stroke-linejoin="round"/>
<path d="M21.3999 130.9H39.3999" stroke="#263238" stroke-miterlimit="10" stroke-linecap="round" stroke-linejoin="round"/>
<path d="M21.3999 138.4H39.3999" stroke="#263238" stroke-miterlimit="10" stroke-linecap="round" stroke-linejoin="round"/>
<path d="M88.2 189.2C88.2 189.2 91.9 187.6 93.2 186.6C94.5 185.6 95 181 92.4 174.3C89.8 167.6 79.2 158 68.4 157.8C57.6 157.7 49.7 164.9 47 172C44.3 179.2 48.7 190.6 48.7 190.6L57.1 191.4C57.1 191.4 70.6 188.3 76.3 188C81.9 187.8 88.2 189.2 88.2 189.2Z" fill="#263238" stroke="#263238" stroke-miterlimit="10"/>
<path d="M46.4002 180.9C46.4002 180.9 42.0002 175.8 34.0002 179.5C26.0002 183.2 21.7002 191.8 24.1002 199.9C26.5002 208 33.0002 209.6 37.8002 208.5C42.6002 207.5 44.2002 203.4 44.2002 203.4C44.2002 203.4 42.0002 202.1 41.6002 201C41.2002 199.9 43.4002 199.8 43.4002 199.8C43.4002 199.8 41.0002 197.7 41.0002 194.4C41.0002 191.1 43.5002 185.1 46.5002 185.1L46.4002 180.9Z" fill="#263238" stroke="#263238" stroke-miterlimit="10"/>
<path d="M65.4001 355.1L72.1001 372.6C72.1001 372.6 63.4001 382.7 61.3001 392.4C59.2001 402.1 53.5001 420.2 50.9001 425.8C48.2001 431.5 42.9001 439.4 42.8001 440.1C42.6001 440.8 41.7001 443.1 42.4001 444.9C43.1001 446.7 47.3001 447.9 48.2001 449.5C49.1001 451.1 51.2001 455.5 54.2001 457.8C57.2001 460.1 62.0001 464.2 63.7001 463.3C65.5001 462.4 66.0001 462.2 65.5001 460.6C65.0001 459 61.1001 451.9 60.4001 447.9C59.7001 443.8 57.4001 436.8 57.9001 434.3C58.4001 431.8 70.8001 414.5 78.4001 403.4C86.0001 392.3 97.5001 370.9 97.5001 368.2C97.5001 365.5 94.8001 347.2 94.8001 347.2C94.8001 347.2 69.6001 351.2 65.4001 355.1Z" fill="white" stroke="#263238" stroke-miterlimit="10"/>
<path d="M94.8999 347.1C94.8999 347.1 69.5999 351.2 65.3999 355.1L72.0999 372.6C72.0999 372.6 63.3999 382.7 61.2999 392.4C59.3999 401 54.7999 416.1 51.8999 423.4C53.2999 425.4 55.9999 427.9 61.0999 428.7C65.3999 422.1 73.0999 411.2 78.3999 403.4C85.9999 392.3 97.4999 370.9 97.4999 368.2C97.4999 365.5 94.8999 347.1 94.8999 347.1Z" fill="#263238" stroke="#263238" stroke-miterlimit="10"/>
<path d="M65.6 460.6C65.1 459 61.2 451.9 60.5 447.9C60.2 446 59.5 443.4 58.9 441L58.7 440.9C58.7 440.9 56.8 440.5 55.7 441.6C54.6 442.7 54.6 442.7 54.6 442.7C54.6 442.7 50.4 441.3 47.7 436.9C47.1 436 46.6 435.1 46.2 434.4C44.4 437.4 42.8 439.9 42.7 440.2C42.5 440.9 41.6 443.2 42.3 445C43 446.8 47.2 448 48.1 449.6C49 451.2 51.1 455.6 54.1 457.9C57.1 460.2 61.9 464.3 63.6 463.4C65.6 462.4 66.1 462.2 65.6 460.6Z" fill="white" stroke="#263238" stroke-miterlimit="10"/>
<path d="M29.8999 354.7C29.8999 354.7 32.1999 378.4 31.4999 383.9C30.6999 389.4 29.5999 406.9 31.9999 418.1C34.2999 429.3 37.9999 442.6 39.2999 446.5C40.5999 450.4 38.4999 455.6 37.9999 459.3C37.4999 463 37.4999 464.5 38.9999 465C40.5999 465.5 52.5999 468.7 58.7999 468.4C65.0999 468.1 66.8999 466.6 66.5999 465C66.2999 463.4 63.4999 462.7 61.0999 460.8C58.7999 459 55.3999 455.6 53.2999 452.7C51.1999 449.8 49.5999 445.6 49.5999 443.8C49.5999 442 51.1999 412 51.1999 404.1C51.1999 396.2 54.8999 380.4 56.6999 373C58.4999 365.7 60.3999 355.5 60.3999 354.7C60.3999 354.2 29.8999 354.7 29.8999 354.7Z" fill="white" stroke="#263238" stroke-miterlimit="10"/>
<path d="M49.8999 438.1C50.2999 428.5 51.1999 410.2 51.1999 404.3C51.1999 396.5 54.8999 380.6 56.6999 373.2C58.4999 365.9 60.3999 355.7 60.3999 354.9C60.3999 354.1 29.8999 354.6 29.8999 354.6C29.8999 354.6 32.1999 378.3 31.4999 383.8C30.6999 389.3 29.5999 406.8 31.9999 418C33.4999 425.1 35.4999 433.1 37.0999 439C39.9999 439.9 44.9999 440.6 49.8999 438.1Z" fill="#263238" stroke="#263238" stroke-miterlimit="10"/>
<path d="M58.8001 468.5C65.1001 468.2 66.9001 466.7 66.6001 465.1C66.3001 463.5 63.5001 462.8 61.1001 460.9C58.8001 459.1 55.4001 455.7 53.3001 452.8C52.6001 451.8 52.0001 450.7 51.4001 449.6C50.9001 449.5 49.4001 449.2 49.0001 451C48.6001 453.1 48.5001 455.1 48.5001 455.1C48.5001 455.1 43.2001 454.3 39.1001 453.6C38.7001 455.6 38.1001 457.6 37.9001 459.2C37.4001 462.9 37.4001 464.4 38.9001 464.9C40.5001 465.6 52.5001 468.7 58.8001 468.5Z" fill="white" stroke="#263238" stroke-miterlimit="10"/>
<path d="M43.8 212.6C43.8 212.6 25.7 220 25.7 221.8C25.7 223.6 32 283.1 32 283.1C32 283.1 24.1 304 20.1 325.5C16.1 346.9 19.1 358.5 19.1 358.5C19.1 358.5 37.7 362.3 55.2 360C72.7 357.7 91.4 355.5 94.7 354.8C98 354.1 100.3 354 100.3 354C100.3 354 97.9 334 92.3 317.2C86.7 300.4 80.4 279.8 80.4 279.8C80.4 279.8 78.9 225.4 78.6 224.1C78.3 222.8 67.7 215.6 61.5 214.9C55.4 214.1 43.8 212.6 43.8 212.6Z" fill="#651FFF" stroke="#263238" stroke-miterlimit="10"/>
<path d="M61.5 337.1C62 339.7 62.4 341.5 62.6 342" stroke="#263238" stroke-miterlimit="10"/>
<path d="M56.2002 310C56.2002 310 58.7002 323.2 60.6002 332.8" stroke="#263238" stroke-miterlimit="10"/>
<path d="M56.2002 301.9C56.2002 301.9 60.4002 315 61.1002 317.1" stroke="#263238" stroke-miterlimit="10"/>
<path d="M79.3002 306.2C78.8002 307.4 78.3002 308.6 77.7002 309.6" stroke="#263238" stroke-miterlimit="10"/>
<path d="M83.4004 294.4C83.4004 294.4 82.3004 298.1 80.9004 302.2" stroke="#263238" stroke-miterlimit="10"/>
<path d="M80.5004 287.7C80.5004 287.7 79.1004 294.8 78.4004 296.9" stroke="#263238" stroke-miterlimit="10"/>
<path d="M49.5005 260.3L49.7005 263.1" stroke="#263238" stroke-miterlimit="10"/>
<path d="M72.8003 246.2H48.3003L49.2003 257.1" stroke="#263238" stroke-miterlimit="10"/>
<path d="M73.8003 249.3L74.7003 256.5" stroke="#263238" stroke-miterlimit="10"/>
<path d="M76.6001 237.2C78.7001 244.3 79.2001 252.7 79.2001 252.7C79.2001 252.7 79.3001 252.6 79.6001 252.4C79.2001 238.6 78.7001 224.7 78.6001 224.1C78.4001 223.3 74.5001 220.4 70.1001 218.1C71.7001 222.4 75.0001 231.9 76.6001 237.2Z" fill="#B5B5B5" stroke="#263238" stroke-miterlimit="10"/>
<path d="M34.2002 216.8C29.9002 218.8 25.7002 221 25.7002 221.8C25.7002 223.5 31.5002 278.9 31.9002 282.9L42.1002 282.6C42.1002 282.6 43.4002 268.9 43.4002 266.4C43.4002 263.9 42.7002 244.5 39.6002 233.8C37.2002 225.2 35.0002 218.9 34.2002 216.8Z" fill="#B5B5B5" stroke="#263238" stroke-miterlimit="10"/>
<path d="M72.5002 238.7C72.5002 238.7 71.0002 232.9 68.9002 226.5C67.3002 221.8 65.1002 217.4 64.1002 215.4C63.2002 215.1 62.4002 214.9 61.6002 214.9C55.4002 214.2 43.9002 212.7 43.9002 212.7C43.9002 212.7 41.9002 213.5 39.2002 214.7C39.9002 216.5 41.0002 219.4 42.2002 222.3C44.2002 227.1 46.5002 239.1 46.5002 239.1L72.5002 238.7Z" fill="#B5B5B5" stroke="#263238" stroke-miterlimit="10"/>
<path d="M48.5999 202.3C48.5999 202.3 46.3999 202.3 45.9999 203.6C45.5999 204.9 41.7999 212.2 41.8999 214.1C41.9999 216 43.9999 221.3 51.5999 223C59.1999 224.7 61.2999 222.1 61.4999 221.3C61.7999 220.5 64.4999 214 64.4999 214C64.4999 214 52.3999 202.4 48.5999 202.3Z" fill="#B5B5B5" stroke="#263238" stroke-miterlimit="10"/>
<path d="M50.3001 191.3C50.3001 191.3 50.0001 197.4 49.4001 199.5C48.7001 201.6 48.1001 204.9 48.1001 204.9C48.1001 204.9 50.1001 211.7 56.5001 213.9C60.3001 215.2 61.6001 214.8 61.6001 214.8L63.3001 211.3C63.2001 211.3 56.3001 191 50.3001 191.3Z" fill="white" stroke="#263238" stroke-miterlimit="10"/>
<path d="M86.4999 179.2C86.4999 179.2 88.6999 186 88.1999 189.3C87.6999 192.6 84.3999 197.5 83.8999 200C83.3999 202.5 81.6999 206.1 80.0999 208C78.4999 209.8 71.2999 214.8 69.2999 215.7C67.1999 216.6 62.5999 215.6 61.6999 214C60.7999 212.4 56.2999 206.9 55.2999 203.3C54.2999 199.6 54.2999 198.6 54.2999 198.6C54.2999 198.6 49.4999 195.9 48.1999 191.9C47.1999 188.9 48.1999 184.8 50.1999 184.5C52.1999 184.1 54.4999 187.8 54.4999 187.8C54.4999 187.8 64.6999 186.6 70.5999 186.4C76.2999 185.9 86.4999 179.2 86.4999 179.2Z" fill="white" stroke="#263238" stroke-miterlimit="10" stroke-linecap="round" stroke-linejoin="round"/>
<path d="M82.1997 192.2C82.1997 192.2 79.1997 194.9 78.6997 197.7C78.1997 200.4 78.1997 201.5 78.1997 201.5" stroke="#263238" stroke-miterlimit="10" stroke-linecap="round" stroke-linejoin="round"/>
<path d="M77.2001 205.8C77.2001 205.8 76.9001 206.8 75.2001 206.6C73.5001 206.3 72.1001 205.3 72.1001 205.3" stroke="#263238" stroke-miterlimit="10" stroke-linecap="round" stroke-linejoin="round"/>
<path d="M71.8999 209.7C71.8999 209.7 66.8999 209.4 66.3999 203.6" stroke="#263238" stroke-miterlimit="10" stroke-linecap="round" stroke-linejoin="round"/>
<path d="M77.2999 191.4C77.2999 191.4 74.1999 188.7 70.3999 190.2" stroke="#263238" stroke-miterlimit="10" stroke-linecap="round" stroke-linejoin="round"/>
<path d="M81.7998 193.3C81.7998 193.3 83.9998 192.1 85.2998 194.9" stroke="#263238" stroke-miterlimit="10" stroke-linecap="round" stroke-linejoin="round"/>
<path d="M73.4998 196.9C73.0998 197.9 72.3998 198.5 71.7998 198.3C71.2998 198.1 71.1998 197.1 71.4998 196.2C71.8998 195.2 72.5998 194.6 73.1998 194.8C73.7998 195 73.8998 196 73.4998 196.9Z" fill="#263238"/>
<path d="M81.4998 199.7C81.0998 200.7 80.3998 201.3 79.7998 201.1C79.2998 200.9 79.1998 199.9 79.4998 199C79.7998 198.1 80.5998 197.4 81.1998 197.6C81.7998 197.7 81.8998 198.7 81.4998 199.7Z" fill="#263238"/>
<path d="M85.8999 247.6C85.8999 247.6 89.3999 240.2 89.4999 239.7C89.6999 239.2 93.2999 237.4 94.8999 237.1C96.4999 236.8 99.1999 236.8 100.3 237.3C101.5 237.8 102.8 244.1 102.6 244.7C102.5 245.3 85.8999 247.6 85.8999 247.6Z" fill="white" stroke="#263238" stroke-miterlimit="10"/>
<path d="M100.4 237.2C100.4 237.2 103 237.7 103.7 238.4C104.4 239.1 105.8 242.2 105 243.7C104.2 245.2 102.7 244.7 102.7 244.7L100.4 237.2Z" fill="white" stroke="#263238" stroke-miterlimit="10"/>
<path d="M93.3 239.7C93.3 239.7 98.6999 244 99.6999 243.8C100.7 243.6 101.5 242.6 101.5 242.6C101.5 242.6 96.0999 234.4 94.0999 234.5C92.0999 234.7 90.0999 237.3 90.0999 237.3C90.0999 237.3 87.3 243.9 86.8 244.4C86.3 244.9 93.5999 244.9 93.5999 244.9" fill="white"/>
<path d="M93.3 239.7C93.3 239.7 98.6999 244 99.6999 243.8C100.7 243.6 101.5 242.6 101.5 242.6C101.5 242.6 96.0999 234.4 94.0999 234.5C92.0999 234.7 90.0999 237.3 90.0999 237.3C90.0999 237.3 87.3 243.9 86.8 244.4C86.3 244.9 93.5999 244.9 93.5999 244.9" stroke="#263238" stroke-miterlimit="10"/>
<path d="M83.1998 244.8L70.2998 276.3C69.9998 277 70.6998 277.8 71.3998 277.6L95.3998 271.3C95.6998 271.2 95.8998 271 95.9998 270.8L109.8 242.3C110.1 241.6 109.6 240.8 108.8 240.9L83.7998 244.2C83.5998 244.2 83.2998 244.5 83.1998 244.8Z" fill="#263238" stroke="#263238" stroke-miterlimit="10"/>
<path d="M32.3 217.9C32.3 217.9 16.3 223.2 16 224.3C15.7 225.5 16.2 288.2 17.8 289.1C19.4 289.9 64.9 275.9 64.9 275.9C64.9 275.9 73 275.9 75 275.9C77 275.9 80.6 274.9 82.1 274.1C83.6 273.3 86.7 271.3 85.6 271.3C84.5 271.3 85.3 271.1 83.5 271.8C81.7 272.5 78.9 272.8 78.9 272.8C78.9 272.8 85.2 269.7 86 268.7C86.8 267.7 88.5 265.7 88.5 265.7C88.5 265.7 91.8 262.7 90.5 262.4C89.2 262.1 86.2 263.6 86.2 263.6L80.9 263.9C80.9 263.9 85 261.4 86.3 260.8C87.6 260.1 90.7 258.7 90.9 257.8C91.1 257 89.4 257.1 87.9 257.6C86.4 258.1 78 259.6 77.4 259.7C76.7 259.9 74.3 259.5 72.5 260.5C70.7 261.5 65.6 268.6 64.9 269.2C64.2 269.9 34.9 270.7 34.9 270.7L35.4 242.2" fill="#B5B5B5"/>
<path d="M32.3 217.9C32.3 217.9 16.3 223.2 16 224.3C15.7 225.5 16.2 288.2 17.8 289.1C19.4 289.9 64.9 275.9 64.9 275.9C64.9 275.9 73 275.9 75 275.9C77 275.9 80.6 274.9 82.1 274.1C83.6 273.3 86.7 271.3 85.6 271.3C84.5 271.3 85.3 271.1 83.5 271.8C81.7 272.5 78.9 272.8 78.9 272.8C78.9 272.8 85.2 269.7 86 268.7C86.8 267.7 88.5 265.7 88.5 265.7C88.5 265.7 91.8 262.7 90.5 262.4C89.2 262.1 86.2 263.6 86.2 263.6L80.9 263.9C80.9 263.9 85 261.4 86.3 260.8C87.6 260.1 90.7 258.7 90.9 257.8C91.1 257 89.4 257.1 87.9 257.6C86.4 258.1 78 259.6 77.4 259.7C76.7 259.9 74.3 259.5 72.5 260.5C70.7 261.5 65.6 268.6 64.9 269.2C64.2 269.9 34.9 270.7 34.9 270.7L35.4 242.2" stroke="#263238" stroke-miterlimit="10"/>
<path d="M90.8002 257.8C91.0002 257 89.3002 257.1 87.8002 257.6C86.3002 258.1 77.9002 259.6 77.3002 259.7C76.6002 259.9 74.2002 259.5 72.4002 260.5C70.6002 261.5 65.5002 268.6 64.8002 269.2C64.4002 269.6 53.9002 270 45.5002 270.3C45.3002 271.8 45.2002 273.6 45.2002 275.4C45.3002 277.7 45.8002 279.8 46.4002 281.3C56.3002 278.4 65.0002 275.7 65.0002 275.7C65.0002 275.7 73.1002 275.7 75.1002 275.7C77.1002 275.7 80.7002 274.7 82.2002 273.9C83.7002 273.1 86.8002 271.1 85.7002 271.1C84.5002 271.1 85.4002 270.9 83.6002 271.6C81.8002 272.3 79.0002 272.6 79.0002 272.6C79.0002 272.6 85.3002 269.5 86.1002 268.5C86.9002 267.5 88.6002 265.5 88.6002 265.5C88.6002 265.5 91.9002 262.5 90.6002 262.2C89.3002 261.9 86.3002 263.4 86.3002 263.4L81.0002 263.7C81.0002 263.7 85.1002 261.2 86.4002 260.6C87.5002 260.1 90.6002 258.6 90.8002 257.8Z" fill="white" stroke="#263238" stroke-miterlimit="10"/>
<path d="M88.3003 265.7C88.3003 265.7 86.8003 266.4 86.0003 266.5C85.2003 266.7 77.8003 268.6 77.8003 268.6" stroke="#263238" stroke-miterlimit="10"/>
<path d="M207.8 203.5L195.6 173.2V203.5H176.1V120H192.1L204.3 148.7V120H223.3V203.5H207.8Z" stroke="#263238" stroke-miterlimit="10"/>
<path d="M179.1 200.5V123H190.1L207.3 163.4V123H220.3V200.5H209.8L192.6 157.7V200.5H179.1Z" fill="#263238"/>
<path d="M229.1 203.5V120H266.5V136.8H250.9V151.7H265.2V168.7H250.9V203.5H229.1Z" stroke="#263238" stroke-miterlimit="10"/>
<path d="M232.1 200.5V123H264.8V133.7H247.9V154.6H262.2V165.6H247.9V200.4H232.1V200.5Z" fill="#263238"/>
<path d="M277 203.5V136.7H266.5V120H310.7V136.7H298.9V203.5H277Z" stroke="#263238" stroke-miterlimit="10"/>
<path d="M280 200.5V134.8H268V123H307.6V134.8H295.8V200.5H280Z" fill="#263238"/>
<path d="M247.6 231.9H209V277.3H247.6V231.9Z" fill="#263238" stroke="#263238" stroke-miterlimit="10"/>
<path d="M245.9 233.8H210.7V275.3H245.9V233.8Z" stroke="#263238" stroke-miterlimit="10" stroke-linecap="round" stroke-linejoin="round"/>
<path d="M246 246.7L241.8 244L231.4 256.1L223.1 251.5L211.1 262.5H210.7V275.3H246V246.7Z" fill="white" stroke="#263238" stroke-miterlimit="10" stroke-linecap="round" stroke-linejoin="round"/>
<path d="M218.4 246.5C220.609 246.5 222.4 244.709 222.4 242.5C222.4 240.291 220.609 238.5 218.4 238.5C216.191 238.5 214.4 240.291 214.4 242.5C214.4 244.709 216.191 246.5 218.4 246.5Z" fill="white" stroke="#263238" stroke-miterlimit="10" stroke-linecap="round" stroke-linejoin="round"/>
<path d="M142.7 91.3H103V138.1H142.7V91.3Z" stroke="#263238" stroke-miterlimit="10" stroke-linecap="round" stroke-linejoin="round"/>
<path d="M141.1 93.3H104.8V136H141.1V93.3Z" fill="#651FFF" stroke="#263238" stroke-miterlimit="10"/>
<path d="M141.1 106.5L136.8 103.8L126.1 116.2L117.5 111.5L105.2 122.8H104.8V136H141.1V106.5Z" fill="white" stroke="#263238" stroke-miterlimit="10" stroke-linecap="round" stroke-linejoin="round"/>
<path d="M112.7 106.4C115.02 106.4 116.9 104.52 116.9 102.2C116.9 99.8804 115.02 98 112.7 98C110.38 98 108.5 99.8804 108.5 102.2C108.5 104.52 110.38 106.4 112.7 106.4Z" fill="white" stroke="#263238" stroke-miterlimit="10" stroke-linecap="round" stroke-linejoin="round"/>
<path d="M309.7 231.9H254V264.4H309.7V231.9Z" fill="white" stroke="#263238" stroke-miterlimit="10" stroke-linecap="round" stroke-linejoin="round"/>
<path d="M308 233.8H255.7V262.3H308V233.8Z" stroke="#263238" stroke-miterlimit="10" stroke-linecap="round" stroke-linejoin="round"/>
<path d="M308 245.4L301.3 241.5L287.6 252.4L277.6 247L255.7 262.3H308V245.4Z" fill="#651FFF" stroke="#263238" stroke-miterlimit="10"/>
<path d="M266.7 240.8C266.7 243 264.9 244.8 262.7 244.8C260.5 244.8 258.7 243 258.7 240.8C258.7 238.6 260.5 236.8 262.7 236.8C264.9 236.7 266.7 238.5 266.7 240.8Z" fill="#651FFF" stroke="#263238" stroke-miterlimit="10"/>
<path d="M440.2 154.7H356.7V203.4H440.2V154.7Z" fill="white" stroke="#263238" stroke-miterlimit="10" stroke-linecap="round" stroke-linejoin="round"/>
<path d="M437.6 157.7H359.2V200.4H437.6V157.7Z" fill="#263238" stroke="#263238" stroke-miterlimit="10"/>
<path d="M437.7 175L427.7 169.2L407.2 185.5L392.1 177.4L359.2 200.4H437.7V175Z" fill="#651FFF" stroke="#263238" stroke-miterlimit="10"/>
<path d="M375.8 168.1C375.8 171.4 373.1 174.1 369.8 174.1C366.5 174.1 363.8 171.4 363.8 168.1C363.8 164.8 366.5 162.1 369.8 162.1C373.1 162 375.8 164.7 375.8 168.1Z" fill="#651FFF" stroke="#263238" stroke-miterlimit="10"/>
<path d="M356.6 270.1H300.9V302.6H356.6V270.1Z" fill="white" stroke="#263238" stroke-miterlimit="10" stroke-linecap="round" stroke-linejoin="round"/>
<path d="M354.9 272.1H302.6V300.6H354.9V272.1Z" fill="white" stroke="#263238" stroke-miterlimit="10" stroke-linecap="round" stroke-linejoin="round"/>
<path d="M354.9 283.7L348.2 279.8L334.5 290.6L324.5 285.2L302.6 300.6H354.9V283.7Z" fill="#263238" stroke="#263238" stroke-miterlimit="10"/>
<path d="M313.6 279C313.6 281.2 311.8 283 309.6 283C307.4 283 305.6 281.2 305.6 279C305.6 276.8 307.4 275 309.6 275C311.8 275 313.6 276.8 313.6 279Z" fill="#263238" stroke="#263238" stroke-miterlimit="10"/>
<path d="M142 143.3H84.7002V176.7H142V143.3Z" fill="white" stroke="#263238" stroke-miterlimit="10" stroke-linecap="round" stroke-linejoin="round"/>
<path d="M140.3 145.3H86.4004V174.6H140.3V145.3Z" fill="white" stroke="#263238" stroke-miterlimit="10" stroke-linecap="round" stroke-linejoin="round"/>
<path d="M140.3 157.2L133.4 153.2L119.4 164.4L109 158.8L86.4004 174.6H140.3V157.2Z" fill="white" stroke="#263238" stroke-miterlimit="10" stroke-linecap="round" stroke-linejoin="round"/>
<path d="M93.7 156.6C96.0196 156.6 97.9 154.72 97.9 152.4C97.9 150.08 96.0196 148.2 93.7 148.2C91.3804 148.2 89.5 150.08 89.5 152.4C89.5 154.72 91.3804 156.6 93.7 156.6Z" fill="white" stroke="#263238" stroke-miterlimit="10" stroke-linecap="round" stroke-linejoin="round"/>
<path d="M390.7 84.1001H342.4V149.1H390.7V84.1001Z" fill="white" stroke="#263238" stroke-miterlimit="10" stroke-linecap="round" stroke-linejoin="round"/>
<path d="M386.7 88.5H346.3V144.5H386.7V88.5Z" stroke="#263238" stroke-miterlimit="10" stroke-linecap="round" stroke-linejoin="round"/>
<path d="M386.7 103.6L381.9 99.9001L369.8 121.5L360.8 114.2L346.4 135.9L346.3 136.1V144.5H386.7V103.6Z" fill="white" stroke="#263238" stroke-miterlimit="10" stroke-linecap="round" stroke-linejoin="round"/>
<path d="M342.4 84.1001L346.3 88.5001" stroke="#263238" stroke-miterlimit="10" stroke-linecap="round" stroke-linejoin="round"/>
<path d="M386.7 88.5001L390.7 84.1001" stroke="#263238" stroke-miterlimit="10" stroke-linecap="round" stroke-linejoin="round"/>
<path d="M386.7 144.5L390.7 149" stroke="#263238" stroke-miterlimit="10" stroke-linecap="round" stroke-linejoin="round"/>
<path d="M342.4 149L346.3 144.5" stroke="#263238" stroke-miterlimit="10" stroke-linecap="round" stroke-linejoin="round"/>
<path d="M361.1 100.1C361.1 103.4 358.5 106 355.2 106C351.9 106 349.3 103.4 349.3 100.1C349.3 96.8002 351.9 94.2002 355.2 94.2002C358.4 94.2002 361.1 96.9002 361.1 100.1Z" fill="white" stroke="#263238" stroke-miterlimit="10" stroke-linecap="round" stroke-linejoin="round"/>
<path d="M94.9998 39.3H47.2998V103.5H94.9998V39.3Z" fill="white" stroke="#263238" stroke-miterlimit="10" stroke-linecap="round" stroke-linejoin="round"/>
<path d="M91.0997 43.8H51.1997V99.1H91.0997V43.8Z" fill="white" stroke="#263238" stroke-miterlimit="10" stroke-linecap="round" stroke-linejoin="round"/>
<path d="M90.9997 58.6001L86.2997 54.9001L74.3997 76.4001L65.4997 69.1001L51.2997 90.6001L51.1997 90.8001V99.1001H90.9997V58.6001Z" fill="#263238"/>
<path d="M47.2998 39.3L51.1998 43.8" stroke="#263238" stroke-miterlimit="10" stroke-linecap="round" stroke-linejoin="round"/>
<path d="M91 43.8L94.9 39.3" stroke="#263238" stroke-miterlimit="10" stroke-linecap="round" stroke-linejoin="round"/>
<path d="M91 99.1001L94.9 103.5" stroke="#263238" stroke-miterlimit="10" stroke-linecap="round" stroke-linejoin="round"/>
<path d="M47.2998 103.5L51.1998 99.1001" stroke="#263238" stroke-miterlimit="10" stroke-linecap="round" stroke-linejoin="round"/>
<path d="M65.6996 55.2001C65.6996 58.4001 63.0996 61.0001 59.8996 61.0001C56.6996 61.0001 54.0996 58.4001 54.0996 55.2001C54.0996 52.0001 56.6996 49.4001 59.8996 49.4001C63.0996 49.4001 65.6996 52.0001 65.6996 55.2001Z" fill="#263238"/>
<path d="M248.2 290.4H199.3V356.2H248.2V290.4Z" fill="white" stroke="#263238" stroke-miterlimit="10" stroke-linecap="round" stroke-linejoin="round"/>
<path d="M244.1 295H203.2V351.7H244.1V295Z" fill="white" stroke="#263238" stroke-miterlimit="10" stroke-linecap="round" stroke-linejoin="round"/>
<path d="M244.1 310.2L239.3 306.4L227 328.4L217.9 321L203.3 343L203.2 343.2V351.7H244.1V310.2Z" fill="#651FFF" stroke="#263238" stroke-miterlimit="10"/>
<path d="M199.3 290.4L203.2 295" stroke="#263238" stroke-miterlimit="10" stroke-linecap="round" stroke-linejoin="round"/>
<path d="M244.1 295L248.1 290.4" stroke="#263238" stroke-miterlimit="10" stroke-linecap="round" stroke-linejoin="round"/>
<path d="M244.1 351.7L248.1 356.2" stroke="#263238" stroke-miterlimit="10" stroke-linecap="round" stroke-linejoin="round"/>
<path d="M199.3 356.2L203.2 351.7" stroke="#263238" stroke-miterlimit="10" stroke-linecap="round" stroke-linejoin="round"/>
<path d="M218.2 306.7C218.2 310 215.5 312.7 212.2 312.7C208.9 312.7 206.2 310 206.2 306.7C206.2 303.4 208.9 300.7 212.2 300.7C215.5 300.7 218.2 303.4 218.2 306.7Z" fill="#651FFF" stroke="#263238" stroke-miterlimit="10"/>
<path d="M439.1 30.3999H394.5V90.4999H439.1V30.3999Z" fill="white" stroke="#263238" stroke-miterlimit="10" stroke-linecap="round" stroke-linejoin="round"/>
<path d="M435.4 34.5H398.1V86.3H435.4V34.5Z" fill="white" stroke="#263238" stroke-miterlimit="10" stroke-linecap="round" stroke-linejoin="round"/>
<path d="M435.5 48.4L431 45L419.8 65.1L411.5 58.3L398.2 78.3L398.1 78.5V86.3H435.5V48.4Z" fill="#651FFF" stroke="#263238" stroke-miterlimit="10"/>
<path d="M394.5 30.3999L398.1 34.4999" stroke="#263238" stroke-miterlimit="10" stroke-linecap="round" stroke-linejoin="round"/>
<path d="M435.5 34.4999L439.1 30.3999" stroke="#263238" stroke-miterlimit="10" stroke-linecap="round" stroke-linejoin="round"/>
<path d="M435.5 86.2998L439.1 90.4998" stroke="#263238" stroke-miterlimit="10" stroke-linecap="round" stroke-linejoin="round"/>
<path d="M394.5 90.4998L398.1 86.2998" stroke="#263238" stroke-miterlimit="10" stroke-linecap="round" stroke-linejoin="round"/>
<path d="M411.8 45.2C411.8 48.2 409.3 50.7 406.3 50.7C403.3 50.7 400.8 48.2 400.8 45.2C400.8 42.2 403.3 39.7 406.3 39.7C409.3 39.7 411.8 42.2 411.8 45.2Z" fill="#651FFF" stroke="#263238" stroke-miterlimit="10"/>
<path d="M201.8 231.9H163.2V277.3H201.8V231.9Z" stroke="#263238" stroke-miterlimit="10" stroke-linecap="round" stroke-linejoin="round"/>
<path d="M200.1 233.8H164.9V275.3H200.1V233.8Z" fill="#651FFF" stroke="#263238" stroke-miterlimit="10"/>
<path d="M171.5 259.8V258C171.8 258 172 258 172.2 257.9C172.4 257.9 172.6 257.8 172.7 257.7C172.8 257.6 172.9 257.5 172.9 257.3C173 257.1 173 256.9 173 256.6V247.2H175.5V256.8C175.5 257.5 175.4 258 175.3 258.5C175.1 258.9 174.9 259.3 174.4 259.5C174 259.7 173.4 259.8 172.7 259.8H171.5Z" fill="#263238"/>
<path d="M177.3 259.4V247.1H181.2C181.9 247.1 182.5 247.2 183 247.5C183.5 247.8 183.8 248.2 184 248.7C184.2 249.2 184.3 249.9 184.3 250.6C184.3 251.5 184.2 252.2 183.9 252.7C183.6 253.2 183.2 253.5 182.7 253.8C182.2 254 181.6 254.1 180.9 254.1H179.8V259.4H177.3ZM179.8 252.4H180.7C181.1 252.4 181.3 252.3 181.5 252.2C181.7 252.1 181.8 251.9 181.9 251.6C182 251.3 182 251 182 250.6C182 250.2 182 249.9 181.9 249.7C181.8 249.4 181.7 249.3 181.5 249.1C181.3 249 181 248.9 180.6 248.9H179.7V252.4H179.8Z" fill="#263238"/>
<path d="M188.8 259.6C188 259.6 187.3 259.4 186.8 259.1C186.3 258.8 186 258.3 185.8 257.6C185.6 257 185.5 256.2 185.5 255.4V251.3C185.5 250.4 185.6 249.7 185.8 249C186 248.4 186.4 247.9 186.9 247.5C187.4 247.2 188.1 247 189.1 247C190 247 190.7 247.1 191.2 247.4C191.7 247.7 192.1 248.1 192.3 248.6C192.5 249.1 192.6 249.8 192.6 250.5V251.2H190.2V250.3C190.2 250 190.2 249.7 190.1 249.4C190.1 249.2 190 249 189.8 248.8C189.7 248.7 189.4 248.6 189.1 248.6C188.8 248.6 188.5 248.7 188.4 248.9C188.2 249.1 188.2 249.3 188.1 249.6C188.1 249.9 188 250.2 188 250.5V255.9C188 256.2 188 256.6 188.1 256.8C188.2 257.1 188.3 257.3 188.4 257.4C188.6 257.6 188.8 257.6 189.1 257.6C189.4 257.6 189.7 257.5 189.8 257.4C190 257.2 190.1 257 190.2 256.7C190.3 256.4 190.3 256.1 190.3 255.8V254.5H189.1V253H192.6V259.3H191L190.8 258.2C190.6 258.6 190.4 258.9 190.1 259.1C189.8 259.5 189.4 259.6 188.8 259.6Z" fill="#263238"/>
<path d="M143.1 39.3H103.4V86.1H143.1V39.3Z" fill="white" stroke="#263238" stroke-miterlimit="10" stroke-linecap="round" stroke-linejoin="round"/>
<path d="M141.4 41.4001H105.1V84.1001H141.4V41.4001Z" fill="white" stroke="#263238" stroke-miterlimit="10" stroke-linecap="round" stroke-linejoin="round"/>
<path d="M111.9 68.1002V66.3002C112.2 66.3002 112.5 66.3002 112.7 66.2002C112.9 66.2002 113.1 66.1002 113.2 66.0002C113.3 65.9002 113.4 65.8002 113.4 65.6002C113.5 65.4002 113.5 65.2002 113.5 64.9002V55.2002H116.1V65.0002C116.1 65.7002 116 66.3002 115.9 66.7002C115.7 67.2002 115.4 67.5002 115 67.7002C114.6 67.9002 114 68.0002 113.2 68.0002H111.9V68.1002Z" fill="#263238"/>
<path d="M118 67.7001V55.1001H122C122.8 55.1001 123.4 55.2001 123.9 55.5001C124.4 55.8001 124.7 56.2001 125 56.7001C125.2 57.2001 125.4 57.9001 125.4 58.7001C125.4 59.6001 125.2 60.3001 124.9 60.8001C124.6 61.3001 124.2 61.7001 123.6 61.9001C123.1 62.1001 122.5 62.2001 121.8 62.2001H120.6V67.7001H118ZM120.6 60.4001H121.5C121.9 60.4001 122.2 60.3001 122.4 60.2001C122.6 60.1001 122.7 59.9001 122.8 59.6001C122.9 59.3001 122.9 59.0001 122.9 58.6001C122.9 58.2001 122.9 57.9001 122.8 57.6001C122.7 57.3001 122.6 57.1001 122.4 57.0001C122.2 56.9001 121.9 56.8001 121.5 56.8001H120.6V60.4001Z" fill="#263238"/>
<path d="M129.8 67.9001C128.9 67.9001 128.3 67.7001 127.8 67.4001C127.3 67.0001 126.9 66.5001 126.7 65.9001C126.5 65.2001 126.4 64.5001 126.4 63.6001V59.4001C126.4 58.5001 126.5 57.7001 126.7 57.1001C126.9 56.4001 127.3 55.9001 127.8 55.6001C128.3 55.2001 129.1 55.1001 130 55.1001C130.9 55.1001 131.6 55.3001 132.1 55.6001C132.6 55.9001 133 56.3001 133.2 56.9001C133.4 57.5001 133.5 58.1001 133.5 58.9001V59.6001H131V58.7001C131 58.4001 131 58.1001 130.9 57.8001C130.9 57.5001 130.8 57.3001 130.6 57.2001C130.4 57.1001 130.2 57.0001 129.9 57.0001C129.6 57.0001 129.3 57.1001 129.2 57.3001C129 57.5001 128.9 57.7001 128.9 58.0001C128.9 58.3001 128.8 58.6001 128.8 58.9001V64.5001C128.8 64.9001 128.8 65.2001 128.9 65.5001C129 65.8001 129.1 66.0001 129.3 66.2001C129.5 66.4001 129.7 66.4001 130 66.4001C130.3 66.4001 130.6 66.3001 130.7 66.2001C130.9 66.0001 131 65.8001 131.1 65.5001C131.2 65.2001 131.2 64.9001 131.2 64.5001V63.2001H130V61.6001H133.6V68.1001H131.9L131.7 67.0001C131.5 67.4001 131.3 67.7001 131 68.0001C130.8 67.8001 130.4 67.9001 129.8 67.9001Z" fill="#263238"/>
<path d="M293.6 269.6H255V315H293.6V269.6Z" fill="white" stroke="#263238" stroke-miterlimit="10" stroke-linecap="round" stroke-linejoin="round"/>
<path d="M291.9 271.6H256.7V313.1H291.9V271.6Z" stroke="#263238" stroke-miterlimit="10" stroke-linecap="round" stroke-linejoin="round"/>
<path d="M265.3 297.4C264.5 297.4 263.8 297.2 263.3 296.9C262.8 296.6 262.5 296.1 262.3 295.4C262.1 294.8 262 294 262 293.2V289.1C262 288.2 262.1 287.5 262.3 286.8C262.5 286.2 262.9 285.7 263.4 285.3C263.9 285 264.6 284.8 265.6 284.8C266.5 284.8 267.2 284.9 267.7 285.2C268.2 285.5 268.6 285.9 268.8 286.4C269 286.9 269.1 287.6 269.1 288.3V289H266.7V288.1C266.7 287.8 266.7 287.5 266.6 287.2C266.6 287 266.5 286.8 266.3 286.6C266.2 286.5 265.9 286.4 265.6 286.4C265.3 286.4 265 286.5 264.9 286.7C264.7 286.9 264.7 287.1 264.6 287.4C264.6 287.7 264.5 288 264.5 288.3V293.7C264.5 294 264.5 294.4 264.6 294.6C264.7 294.9 264.8 295.1 264.9 295.2C265.1 295.4 265.3 295.4 265.6 295.4C265.9 295.4 266.2 295.3 266.3 295.2C266.5 295 266.6 294.8 266.7 294.5C266.8 294.2 266.8 293.9 266.8 293.6V292.3H265.6V290.8H269.1V297.1H267.5L267.3 296C267.1 296.4 266.9 296.7 266.6 296.9C266.3 297.3 265.8 297.4 265.3 297.4Z" fill="#263238"/>
<path d="M270.8 297.201V285H273.3V297.3H270.8V297.201Z" fill="#263238"/>
<path d="M275.2 297.201V285H280.4V286.701H277.7V290H280V291.701H277.7V297.201H275.2Z" fill="#263238"/>
<path d="M281.6 297.201V285H286.8V286.701H284.1V290H286.4V291.701H284.1V297.201H281.6Z" fill="#263238"/>
<path d="M194.1 298H163.2V334.4H194.1V298Z" fill="white" stroke="#263238" stroke-miterlimit="10" stroke-linecap="round" stroke-linejoin="round"/>
<path d="M192.7 299.6H164.5V332.8H192.7V299.6Z" fill="white" stroke="#263238" stroke-miterlimit="10" stroke-linecap="round" stroke-linejoin="round"/>
<path d="M171.4 320.2C170.7 320.2 170.2 320.1 169.8 319.8C169.4 319.5 169.1 319.1 169 318.6C168.8 318.1 168.8 317.5 168.8 316.8V313.5C168.8 312.8 168.9 312.2 169.1 311.7C169.3 311.2 169.6 310.8 170 310.5C170.4 310.2 171 310.1 171.7 310.1C172.4 310.1 173 310.2 173.4 310.5C173.8 310.7 174.1 311.1 174.3 311.5C174.5 311.9 174.6 312.4 174.6 313V313.6H172.6V312.9C172.6 312.6 172.6 312.4 172.6 312.2C172.6 312 172.5 311.8 172.4 311.7C172.3 311.6 172.1 311.5 171.8 311.5C171.5 311.5 171.3 311.6 171.2 311.7C171.1 311.8 171 312 171 312.2C171 312.4 171 312.6 171 312.9V317.3C171 317.6 171 317.8 171.1 318C171.1 318.2 171.2 318.4 171.4 318.5C171.5 318.6 171.7 318.7 172 318.7C172.3 318.7 172.4 318.6 172.6 318.5C172.7 318.4 172.8 318.2 172.9 318C173 317.8 173 317.5 173 317.2V316.2H172V315H174.8V320H173.5L173.4 319.1C173.3 319.4 173.1 319.6 172.8 319.8C172.2 320.1 171.9 320.2 171.4 320.2Z" fill="#263238"/>
<path d="M175.9 320.1V310.3H177.9V320.1H175.9Z" fill="#263238"/>
<path d="M179.4 320.1V310.3H183.5V311.7H181.4V314.4H183.2V315.8H181.4V320.2H179.4V320.1Z" fill="#263238"/>
<path d="M184.5 320.1V310.3H188.6V311.7H186.5V314.4H188.3V315.8H186.5V320.2H184.5V320.1Z" fill="#263238"/>
<path d="M432.8 104.2H394.7V149H432.8V104.2Z" fill="white" stroke="#263238" stroke-miterlimit="10" stroke-linecap="round" stroke-linejoin="round"/>
<path d="M431.2 106.1H396.4V147H431.2V106.1Z" fill="#651FFF" stroke="#263238" stroke-miterlimit="10"/>
<path d="M404.9 131.6C404.1 131.6 403.4 131.4 403 131.1C402.5 130.8 402.2 130.3 402 129.6C401.8 129 401.7 128.2 401.7 127.4V123.4C401.7 122.5 401.8 121.8 402 121.2C402.2 120.6 402.6 120.1 403.1 119.8C403.6 119.5 404.3 119.3 405.2 119.3C406.1 119.3 406.8 119.4 407.3 119.7C407.8 120 408.2 120.4 408.4 120.9C408.6 121.4 408.7 122.1 408.7 122.8V123.5H406.3V122.6C406.3 122.3 406.3 122 406.2 121.8C406.2 121.6 406.1 121.4 405.9 121.2C405.8 121.1 405.5 121 405.2 121C404.9 121 404.6 121.1 404.5 121.3C404.4 121.5 404.3 121.7 404.2 121.9C404.2 122.2 404.1 122.4 404.1 122.7V128.1C404.1 128.4 404.1 128.7 404.2 129C404.3 129.3 404.4 129.5 404.5 129.6C404.7 129.7 404.9 129.8 405.2 129.8C405.5 129.8 405.7 129.7 405.9 129.6C406.1 129.4 406.2 129.2 406.3 129C406.4 128.7 406.4 128.4 406.4 128.1V126.8H405.2V125.3H408.6V131.5H407L406.9 130.4C406.7 130.8 406.5 131.1 406.2 131.3C405.8 131.4 405.4 131.6 404.9 131.6Z" fill="#263238"/>
<path d="M410.4 131.4V119.3H412.8V131.4H410.4Z" fill="#263238"/>
<path d="M414.7 131.4V119.3H419.8V121H417.2V124.3H419.4V126H417.2V131.4H414.7Z" fill="#263238"/>
<path d="M420.9 131.4V119.3H426V121H423.4V124.3H425.6V126H423.4V131.4H420.9Z" fill="#263238"/>
</g>
<defs>
<clipPath id="clip0_5_551">
<rect width="469" height="469" fill="white"/>
</clipPath>
</defs>
</svg>
