<svg width="742" height="834" viewBox="0 0 742 834" fill="none" xmlns="http://www.w3.org/2000/svg">
<path d="M596.383 153.438L584.212 180.959" stroke="#355CB8" stroke-width="1.5" stroke-miterlimit="10" stroke-linecap="round" stroke-linejoin="round"/>
<path d="M211.748 588.999C187.577 588.999 168 569.326 168 545.037V328.962C168 304.673 187.577 284.999 211.748 284.999H535.592C559.762 284.999 579.34 304.673 579.34 328.962V545.037C579.34 569.326 559.762 588.999 535.592 588.999H211.748Z" fill="#2E4994"/>
<path d="M211.748 578.007C193.702 578.007 178.937 563.17 178.937 545.036V328.96C178.937 310.826 193.702 295.989 211.748 295.989H535.592C553.638 295.989 568.403 310.826 568.403 328.96V545.036C568.403 563.17 553.638 578.007 535.592 578.007H211.748Z" fill="#3454AD"/>
<path d="M211.748 567.017C199.717 567.017 189.874 557.126 189.874 545.036V328.961C189.874 316.871 199.717 306.98 211.748 306.98H535.592C547.622 306.98 557.466 316.871 557.466 328.961V545.036C557.466 557.126 547.622 567.017 535.592 567.017H211.748Z" fill="#4465C2"/>
<path d="M65.9126 290.633V1.05688" stroke="#355CB8" stroke-width="1.5" stroke-miterlimit="10" stroke-linecap="round" stroke-linejoin="round"/>
<path d="M334.238 614.791H758.46" stroke="#355CB8" stroke-width="1.5" stroke-miterlimit="10" stroke-linecap="round" stroke-linejoin="round"/>
<path d="M111.807 561.404V833.207" stroke="#355CB8" stroke-width="1.5" stroke-miterlimit="10" stroke-linecap="round" stroke-linejoin="round"/>
<path d="M608.085 436.999V825.869" stroke="#355CB8" stroke-width="1.5" stroke-miterlimit="10" stroke-linecap="round" stroke-linejoin="round"/>
<path d="M668.052 614.791V368.101H766.96" stroke="#355CB8" stroke-width="1.5" stroke-miterlimit="10" stroke-linecap="round" stroke-linejoin="round"/>
<path d="M288.841 291.793V222.249H766.96" stroke="#355CB8" stroke-width="1.5" stroke-miterlimit="10" stroke-linecap="round" stroke-linejoin="round"/>
<path d="M65.9124 226.693C71.2469 226.693 75.5713 222.368 75.5713 217.034C75.5713 211.699 71.2469 207.375 65.9124 207.375C60.5779 207.375 56.2534 211.699 56.2534 217.034C56.2534 222.368 60.5779 226.693 65.9124 226.693Z" fill="#355CB8"/>
<path d="M69.969 218.965L65.9122 213.363L61.8555 218.965" stroke="#2A4286" stroke-width="1.5" stroke-miterlimit="10" stroke-linecap="round" stroke-linejoin="round"/>
<path d="M111.089 570.317C116.424 570.317 120.748 565.993 120.748 560.658C120.748 555.324 116.424 550.999 111.089 550.999C105.755 550.999 101.43 555.324 101.43 560.658C101.43 565.993 105.755 570.317 111.089 570.317Z" fill="#355CB8"/>
<path d="M107.032 558.726L111.089 564.329L115.146 558.726" stroke="#2A4286" stroke-width="1.5" stroke-miterlimit="10" stroke-linecap="round" stroke-linejoin="round"/>
<path d="M717.506 231.908C722.841 231.908 727.165 227.583 727.165 222.249C727.165 216.914 722.841 212.59 717.506 212.59C712.172 212.59 707.847 216.914 707.847 222.249C707.847 227.583 712.172 231.908 717.506 231.908Z" fill="#355CB8"/>
<path d="M715.381 226.498L721.177 222.248L715.381 218.191" stroke="#2A4286" stroke-width="1.5" stroke-miterlimit="10" stroke-linecap="round" stroke-linejoin="round"/>
<path d="M717.506 377.758C722.841 377.758 727.165 373.433 727.165 368.099C727.165 362.764 722.841 358.44 717.506 358.44C712.172 358.44 707.847 362.764 707.847 368.099C707.847 373.433 712.172 377.758 717.506 377.758Z" fill="#355CB8"/>
<path d="M715.381 372.348L721.177 368.098L715.381 364.041" stroke="#2A4286" stroke-width="1.5" stroke-miterlimit="10" stroke-linecap="round" stroke-linejoin="round"/>
<path d="M366.886 624.451C372.22 624.451 376.544 620.127 376.544 614.792C376.544 609.458 372.22 605.133 366.886 605.133C361.551 605.133 357.227 609.458 357.227 614.792C357.227 620.127 361.551 624.451 366.886 624.451Z" fill="#355CB8"/>
<path d="M364.761 619.043L370.556 614.793L364.761 610.737" stroke="#2A4286" stroke-width="1.5" stroke-miterlimit="10" stroke-linecap="round" stroke-linejoin="round"/>
<path d="M711.517 624.451C716.852 624.451 721.176 620.127 721.176 614.792C721.176 609.458 716.852 605.133 711.517 605.133C706.183 605.133 701.858 609.458 701.858 614.792C701.858 620.127 706.183 624.451 711.517 624.451Z" fill="#355CB8"/>
<path d="M709.393 619.043L715.188 614.793L709.393 610.737" stroke="#2A4286" stroke-width="1.5" stroke-miterlimit="10" stroke-linecap="round" stroke-linejoin="round"/>
<path d="M201.105 321.874H524.881C530.895 321.874 535.816 326.794 535.816 332.808V547.785C535.816 553.799 530.895 558.719 524.881 558.719H201.105C195.091 558.719 190.17 553.799 190.17 547.785V332.808C190.17 326.794 195.091 321.874 201.105 321.874Z" fill="#011635" stroke="#011635" stroke-width="1.5" stroke-miterlimit="10" stroke-linecap="round" stroke-linejoin="round"/>
<path d="M201.105 315.313H524.881C530.895 315.313 535.816 320.233 535.816 326.248V541.224C535.816 547.238 530.895 552.158 524.881 552.158H201.105C195.091 552.158 190.17 547.238 190.17 541.224V326.248C190.17 320.233 195.091 315.313 201.105 315.313Z" fill="white" stroke="#011635" stroke-width="1.5" stroke-miterlimit="10" stroke-linecap="round" stroke-linejoin="round"/>
<path d="M190.17 524.055V541.223C190.17 547.237 195.091 552.158 201.105 552.158H524.881C530.895 552.158 535.816 547.237 535.816 541.223V524.055H190.17Z" fill="#9D90F4" stroke="#011635" stroke-width="1.5" stroke-miterlimit="10" stroke-linecap="round" stroke-linejoin="round"/>
<path d="M524.881 315.312H201.105C195.091 315.312 190.17 320.232 190.17 326.246V332.479H535.816V326.246C535.816 320.232 530.895 315.312 524.881 315.312Z" fill="#9D90F4" stroke="#011635" stroke-width="1.5" stroke-miterlimit="10" stroke-linecap="round" stroke-linejoin="round"/>
<path d="M368.624 538.162C368.624 535.1 366.109 532.585 363.047 532.585C359.986 532.585 357.471 535.1 357.471 538.162C357.471 541.224 359.986 543.739 363.047 543.739C366.109 543.739 368.624 541.224 368.624 538.162Z" fill="#EDF490" stroke="#011635" stroke-width="1.5" stroke-miterlimit="10" stroke-linecap="round" stroke-linejoin="round"/>
<path d="M299.955 513.121C272.508 513.121 250.202 490.814 250.202 463.368V393.167C250.202 365.721 272.508 343.414 299.955 343.414H426.032C453.478 343.414 475.785 365.721 475.785 393.167V463.368C475.785 490.814 453.478 513.121 426.032 513.121H299.955Z" fill="#E9EBF2"/>
<path d="M299.954 502.186C278.522 502.186 261.136 484.8 261.136 463.368V393.167C261.136 371.735 278.522 354.349 299.954 354.349H426.031C447.464 354.349 464.85 371.735 464.85 393.167V463.368C464.85 484.8 447.464 502.186 426.031 502.186H299.954Z" fill="#D8DDED"/>
<path d="M299.955 491.252C284.537 491.252 272.071 478.787 272.071 463.369V393.168C272.071 377.75 284.537 365.285 299.955 365.285H426.032C441.45 365.285 453.915 377.75 453.915 393.168V463.369C453.915 478.787 441.45 491.252 426.032 491.252H299.955Z" fill="#B5C2E6"/>
<path d="M331.127 358.274V348.243H331.808L335.003 356.033V348.243H335.82V358.274H335.152L331.944 350.398V358.274H331.127Z" fill="#011635"/>
<path d="M339.938 358.398C339.27 358.398 338.745 358.27 338.366 358.014C337.994 357.75 337.73 357.387 337.573 356.924C337.425 356.454 337.35 355.917 337.35 355.314V351.153C337.35 350.543 337.429 350.014 337.586 349.568C337.751 349.114 338.019 348.763 338.39 348.516C338.77 348.268 339.286 348.144 339.938 348.144C340.582 348.144 341.09 348.268 341.462 348.516C341.841 348.763 342.11 349.114 342.267 349.568C342.423 350.014 342.502 350.543 342.502 351.153V355.327C342.502 355.929 342.423 356.462 342.267 356.924C342.118 357.378 341.858 357.738 341.486 358.002C341.115 358.266 340.599 358.398 339.938 358.398ZM339.938 357.643C340.376 357.643 340.71 357.556 340.942 357.383C341.173 357.201 341.33 356.953 341.412 356.639C341.503 356.318 341.548 355.946 341.548 355.525V350.98C341.548 350.559 341.503 350.192 341.412 349.878C341.33 349.564 341.173 349.325 340.942 349.16C340.71 348.986 340.376 348.9 339.938 348.9C339.493 348.9 339.15 348.986 338.911 349.16C338.679 349.325 338.518 349.564 338.428 349.878C338.345 350.192 338.304 350.559 338.304 350.98V355.525C338.304 355.946 338.345 356.318 338.428 356.639C338.518 356.953 338.679 357.201 338.911 357.383C339.15 357.556 339.493 357.643 339.938 357.643Z" fill="#011635"/>
<path d="M344.067 358.274V348.243H344.748L347.943 356.033V348.243H348.761V358.274H348.092L344.884 350.398V358.274H344.067Z" fill="#011635"/>
<path d="M350.154 354.596V353.878H352.78V354.596H350.154Z" fill="#011635"/>
<path d="M354.177 358.274V348.243H357.781V348.949H355.119V352.726H357.335V353.42H355.119V358.274H354.177Z" fill="#011635"/>
<path d="M361.406 358.398C360.729 358.398 360.201 358.278 359.821 358.039C359.45 357.791 359.194 357.453 359.053 357.023C358.913 356.586 358.843 356.09 358.843 355.537V348.243H359.759V355.562C359.759 355.95 359.801 356.305 359.883 356.627C359.974 356.941 360.139 357.189 360.378 357.37C360.618 357.552 360.961 357.643 361.406 357.643C361.836 357.643 362.17 357.552 362.409 357.37C362.649 357.18 362.814 356.928 362.905 356.615C363.004 356.301 363.053 355.95 363.053 355.562V348.243H363.957V355.537C363.957 356.09 363.883 356.586 363.734 357.023C363.586 357.453 363.326 357.791 362.954 358.039C362.583 358.278 362.067 358.398 361.406 358.398Z" fill="#011635"/>
<path d="M365.606 358.274V348.243H366.287L369.482 356.033V348.243H370.299V358.274H369.631L366.423 350.398V358.274H365.606Z" fill="#011635"/>
<path d="M374.306 358.41C373.67 358.41 373.171 358.278 372.807 358.014C372.452 357.75 372.201 357.378 372.052 356.9C371.903 356.412 371.829 355.851 371.829 355.215V351.302C371.829 350.658 371.899 350.101 372.04 349.63C372.188 349.16 372.444 348.796 372.807 348.54C373.179 348.276 373.699 348.144 374.368 348.144C374.97 348.144 375.445 348.256 375.792 348.479C376.147 348.701 376.403 349.028 376.56 349.457C376.717 349.886 376.795 350.41 376.795 351.03V351.376H375.903V351.03C375.903 350.551 375.858 350.154 375.767 349.841C375.685 349.527 375.536 349.292 375.321 349.135C375.107 348.978 374.793 348.9 374.38 348.9C373.918 348.9 373.571 348.999 373.34 349.197C373.109 349.395 372.956 349.667 372.882 350.014C372.816 350.361 372.783 350.757 372.783 351.203V355.327C372.783 355.814 372.824 356.231 372.906 356.578C372.997 356.916 373.158 357.18 373.389 357.37C373.629 357.552 373.963 357.643 374.393 357.643C374.814 357.643 375.136 357.552 375.358 357.37C375.581 357.18 375.738 356.912 375.829 356.565C375.92 356.218 375.965 355.797 375.965 355.302V354.126H374.479V353.42H376.832V358.274H376.225L376.114 357.135C375.99 357.515 375.784 357.824 375.495 358.064C375.214 358.295 374.818 358.41 374.306 358.41Z" fill="#011635"/>
<path d="M378.486 358.274V348.243H379.427V358.274H378.486Z" fill="#011635"/>
<path d="M381.207 358.274V348.243H383.361C383.815 348.243 384.199 348.301 384.513 348.417C384.827 348.532 385.079 348.701 385.268 348.924C385.458 349.147 385.595 349.416 385.677 349.729C385.768 350.035 385.813 350.373 385.813 350.745C385.813 351.067 385.772 351.38 385.69 351.686C385.615 351.983 385.487 352.239 385.306 352.454C385.124 352.66 384.868 352.796 384.538 352.862C384.926 352.97 385.231 353.155 385.454 353.42C385.677 353.676 385.83 353.977 385.912 354.324C386.003 354.662 386.049 355.013 386.049 355.376C386.049 355.773 386.011 356.148 385.937 356.503C385.871 356.85 385.747 357.155 385.566 357.42C385.392 357.684 385.153 357.894 384.847 358.051C384.542 358.2 384.154 358.274 383.683 358.274H381.207ZM382.148 357.568H383.498C384.15 357.568 384.583 357.391 384.798 357.036C385.021 356.681 385.132 356.128 385.132 355.376C385.132 354.972 385.083 354.613 384.984 354.299C384.885 353.985 384.715 353.742 384.476 353.568C384.245 353.387 383.927 353.296 383.522 353.296H382.148V357.568ZM382.148 352.565H383.51C383.898 352.565 384.195 352.491 384.402 352.342C384.608 352.185 384.752 351.975 384.835 351.711C384.918 351.438 384.959 351.116 384.959 350.745C384.959 350.34 384.901 350.006 384.785 349.742C384.678 349.477 384.488 349.283 384.216 349.16C383.943 349.036 383.551 348.974 383.039 348.974H382.148V352.565Z" fill="#011635"/>
<path d="M387.423 358.274V348.243H388.364V357.568H391.212V358.274H387.423Z" fill="#011635"/>
<path d="M392.139 358.274V348.243H395.767V348.974H393.092V352.739H395.272V353.432H393.092V357.568H395.792V358.274H392.139Z" fill="#011635"/>
<path d="M350.401 506.88V497.58H348.506V496.849H353.187V497.58H351.342V506.88H350.401Z" fill="#011635"/>
<path d="M356.668 507.004C355.999 507.004 355.475 506.876 355.095 506.62C354.724 506.356 354.46 505.993 354.303 505.53C354.154 505.06 354.08 504.523 354.08 503.92V499.759C354.08 499.148 354.158 498.62 354.315 498.174C354.48 497.72 354.749 497.369 355.12 497.122C355.5 496.874 356.016 496.75 356.668 496.75C357.312 496.75 357.82 496.874 358.191 497.122C358.571 497.369 358.839 497.72 358.996 498.174C359.153 498.62 359.232 499.148 359.232 499.759V503.933C359.232 504.535 359.153 505.068 358.996 505.53C358.848 505.984 358.588 506.343 358.216 506.608C357.845 506.872 357.329 507.004 356.668 507.004ZM356.668 506.249C357.106 506.249 357.44 506.162 357.671 505.988C357.902 505.807 358.059 505.559 358.142 505.245C358.233 504.923 358.278 504.552 358.278 504.131V499.586C358.278 499.165 358.233 498.798 358.142 498.484C358.059 498.17 357.902 497.931 357.671 497.766C357.44 497.592 357.106 497.506 356.668 497.506C356.222 497.506 355.88 497.592 355.64 497.766C355.409 497.931 355.248 498.17 355.157 498.484C355.075 498.798 355.033 499.165 355.033 499.586V504.131C355.033 504.552 355.075 504.923 355.157 505.245C355.248 505.559 355.409 505.807 355.64 505.988C355.88 506.162 356.222 506.249 356.668 506.249Z" fill="#011635"/>
<path d="M360.784 506.88V496.849H361.738V502.149L364.413 496.849H365.317L363.261 501.159L365.763 506.88H364.834L362.63 501.865L361.738 503.499V506.88H360.784Z" fill="#011635"/>
<path d="M366.638 506.88V496.849H370.266V497.58H367.591V501.345H369.771V502.038H367.591V506.174H370.291V506.88H366.638Z" fill="#011635"/>
<path d="M371.584 506.88V496.849H372.265L375.46 504.639V496.849H376.278V506.88H375.609L372.402 499.004V506.88H371.584Z" fill="#011635"/>
<path d="M283.006 463.371V393.17C283.006 383.766 290.551 376.221 299.955 376.221H426.032C435.436 376.221 442.98 383.766 442.98 393.17V463.371C442.98 472.775 435.436 480.32 426.032 480.32H299.955C290.66 480.32 283.006 472.775 283.006 463.371Z" fill="#5373CF" stroke="#011635" stroke-width="1.5" stroke-miterlimit="10" stroke-linecap="round" stroke-linejoin="round"/>
<path d="M299.955 469.385C296.674 469.385 293.94 466.651 293.94 463.371V393.17C293.94 389.89 296.674 387.156 299.955 387.156H426.032C429.312 387.156 432.046 389.89 432.046 393.17V463.371C432.046 466.651 429.312 469.385 426.032 469.385H299.955Z" fill="#4260B8"/>
<path d="M327.96 450.121V404.982H333.7L344.679 430.728V404.982H351.477V450.121H346.016L334.982 423.149V450.121H327.96Z" fill="#011635"/>
<path d="M358.327 450.121V404.982H376.885V410.666H366.575V423.818H374.99V429.558H366.575V450.121H358.327Z" fill="#011635"/>
<path d="M385.862 450.121V411.056H378.673V404.982H401.187V411.056H394.109V450.121H385.862Z" fill="#011635"/>
<path d="M139.871 363.757V400.498H283.006" stroke="#011635" stroke-width="1.5" stroke-miterlimit="10" stroke-linecap="round" stroke-linejoin="round"/>
<path d="M178.798 510.392V456.156H283.006" stroke="#011635" stroke-width="1.5" stroke-miterlimit="10" stroke-linecap="round" stroke-linejoin="round"/>
<path d="M570.589 580.92H413.02V480.321" stroke="#011635" stroke-width="1.5" stroke-miterlimit="10" stroke-linecap="round" stroke-linejoin="round"/>
<path d="M442.98 428.271H565.558V364.084" stroke="#011635" stroke-width="1.5" stroke-miterlimit="10" stroke-linecap="round" stroke-linejoin="round"/>
<path d="M197.278 369.225H82.4635C76.4494 369.225 71.5288 364.304 71.5288 358.29V243.475C71.5288 237.461 76.4494 232.541 82.4635 232.541H197.278C203.292 232.541 208.213 237.461 208.213 243.475V358.29C208.213 364.304 203.292 369.225 197.278 369.225Z" fill="#011635" stroke="#011635" stroke-width="1.5" stroke-miterlimit="10" stroke-linecap="round" stroke-linejoin="round"/>
<path d="M197.278 363.758H82.4635C76.4494 363.758 71.5288 358.838 71.5288 352.824V238.009C71.5288 231.995 76.4494 227.074 82.4635 227.074H197.278C203.292 227.074 208.213 231.995 208.213 238.009V352.824C208.213 358.838 203.292 363.758 197.278 363.758Z" fill="#92D5F4" stroke="#011635" stroke-width="1.5" stroke-miterlimit="10" stroke-linecap="round" stroke-linejoin="round"/>
<path d="M197.659 304.746C202.835 272.853 181.177 242.804 149.285 237.628C117.392 232.452 87.3426 254.11 82.1667 286.002C76.9908 317.894 98.6487 347.944 130.541 353.12C162.433 358.296 192.483 336.638 197.659 304.746Z" fill="#86D1F4"/>
<path d="M190.103 303.521C194.602 275.801 175.778 249.683 148.058 245.185C120.339 240.686 94.2209 259.51 89.7222 287.229C85.2236 314.949 104.048 341.067 131.767 345.566C159.487 350.064 185.604 331.24 190.103 303.521Z" fill="#79CCF2"/>
<path d="M182.548 302.294C186.369 278.747 170.379 256.561 146.832 252.74C123.285 248.918 101.099 264.908 97.2778 288.455C93.4563 312.002 109.447 334.188 132.993 338.009C156.54 341.831 178.726 325.84 182.548 302.294Z" fill="#61C3ED"/>
<path d="M139.871 330.954C159.498 330.954 175.409 315.044 175.409 295.417C175.409 275.79 159.498 259.879 139.871 259.879C120.244 259.879 104.333 275.79 104.333 295.417C104.333 315.044 120.244 330.954 139.871 330.954Z" fill="white" stroke="#011635" stroke-width="1.5" stroke-miterlimit="10" stroke-linecap="round" stroke-linejoin="round"/>
<path d="M139.871 325.378C123.25 325.378 109.8 311.928 109.8 295.307C109.8 278.687 123.25 265.237 139.871 265.237C156.491 265.237 169.941 278.687 169.941 295.307C169.941 311.928 156.382 325.378 139.871 325.378Z" fill="#EDF490"/>
<path d="M160.693 298.296C162.301 286.813 154.296 276.201 142.814 274.593C131.331 272.984 120.719 280.989 119.111 292.472C117.502 303.954 125.507 314.566 136.99 316.175C148.472 317.783 159.084 309.778 160.693 298.296Z" fill="white" stroke="#011635" stroke-width="1.5" stroke-miterlimit="10" stroke-linecap="round" stroke-linejoin="round"/>
<path d="M150.04 294.541L134.185 285.356C133.529 285.028 132.654 285.465 132.654 286.231V304.492C132.654 305.257 133.529 305.695 134.185 305.367L150.04 296.181C150.696 295.853 150.696 294.869 150.04 294.541Z" fill="#F490B6"/>
<path d="M103.021 341.232H176.611C179.564 341.232 181.969 343.638 181.969 346.59C181.969 349.543 179.564 351.948 176.611 351.948H103.021C100.068 351.948 97.6626 349.543 97.6626 346.59C97.7719 343.638 100.178 341.232 103.021 341.232Z" fill="white" stroke="#011635" stroke-width="1.5" stroke-miterlimit="10" stroke-linecap="round" stroke-linejoin="round"/>
<path d="M145.994 349.76C144.244 349.76 142.823 348.339 142.823 346.589C142.823 344.84 144.244 343.418 145.994 343.418H176.611C178.361 343.418 179.782 344.84 179.782 346.589C179.782 348.339 178.361 349.76 176.611 349.76H145.994Z" fill="#F490B6"/>
<path d="M260.574 277.778V262.348C260.488 262.478 260.314 262.608 260.054 262.738C259.794 262.868 259.505 262.984 259.187 263.085C258.884 263.186 258.602 263.28 258.342 263.366C258.096 263.439 257.937 263.482 257.865 263.496V262.218C258.068 262.16 258.306 262.073 258.58 261.958C258.855 261.842 259.129 261.705 259.404 261.546C259.678 261.373 259.946 261.178 260.206 260.961C260.48 260.744 260.711 260.499 260.899 260.224H262.178V277.778H260.574Z" fill="#355CB8"/>
<path d="M266.191 277.778V275.394H267.86V277.778H266.191Z" fill="#355CB8"/>
<path d="M269.868 277.778V276.608L274.593 269.369C274.939 268.835 275.264 268.322 275.568 267.831C275.871 267.325 276.117 266.798 276.305 266.249C276.507 265.7 276.608 265.078 276.608 264.385C276.608 263.446 276.413 262.709 276.023 262.174C275.647 261.64 275.062 261.373 274.268 261.373C273.56 261.373 273.011 261.532 272.62 261.849C272.23 262.167 271.956 262.608 271.797 263.171C271.652 263.72 271.58 264.342 271.58 265.035V265.425H269.998V264.992C269.998 263.908 270.143 263.005 270.432 262.283C270.721 261.546 271.168 260.99 271.775 260.614C272.397 260.238 273.206 260.051 274.203 260.051C275.532 260.051 276.529 260.448 277.193 261.243C277.858 262.023 278.19 263.114 278.19 264.515C278.19 265.223 278.089 265.873 277.887 266.465C277.684 267.058 277.424 267.629 277.107 268.178C276.789 268.712 276.456 269.254 276.11 269.803L271.732 276.434H277.822V277.778H269.868Z" fill="#355CB8"/>
<path d="M284.916 277.995C283.876 277.995 283.052 277.771 282.445 277.323C281.839 276.875 281.405 276.261 281.145 275.481C280.885 274.701 280.755 273.812 280.755 272.815V265.187C280.755 264.176 280.885 263.287 281.145 262.521C281.42 261.741 281.86 261.134 282.467 260.701C283.088 260.267 283.905 260.051 284.916 260.051C285.956 260.051 286.78 260.267 287.387 260.701C288.008 261.134 288.448 261.741 288.709 262.521C288.983 263.287 289.12 264.176 289.12 265.187V272.815C289.12 273.827 288.983 274.722 288.709 275.503C288.448 276.283 288.015 276.897 287.408 277.345C286.801 277.778 285.971 277.995 284.916 277.995ZM284.916 276.738C285.595 276.738 286.115 276.565 286.476 276.218C286.852 275.871 287.112 275.416 287.257 274.852C287.415 274.275 287.495 273.639 287.495 272.945V265.078C287.495 264.371 287.415 263.735 287.257 263.171C287.112 262.593 286.859 262.138 286.498 261.806C286.137 261.474 285.609 261.308 284.916 261.308C284.251 261.308 283.731 261.474 283.356 261.806C282.994 262.138 282.734 262.593 282.575 263.171C282.431 263.735 282.359 264.371 282.359 265.078V272.945C282.359 273.639 282.431 274.275 282.575 274.852C282.734 275.416 283.002 275.871 283.377 276.218C283.753 276.565 284.266 276.738 284.916 276.738Z" fill="#355CB8"/>
<path d="M296.112 277.995C295.071 277.995 294.248 277.771 293.641 277.323C293.034 276.875 292.601 276.261 292.341 275.481C292.081 274.701 291.951 273.812 291.951 272.815V265.187C291.951 264.176 292.081 263.287 292.341 262.521C292.615 261.741 293.056 261.134 293.663 260.701C294.284 260.267 295.1 260.051 296.112 260.051C297.152 260.051 297.975 260.267 298.582 260.701C299.203 261.134 299.644 261.741 299.904 262.521C300.179 263.287 300.316 264.176 300.316 265.187V272.815C300.316 273.827 300.179 274.722 299.904 275.503C299.644 276.283 299.211 276.897 298.604 277.345C297.997 277.778 297.166 277.995 296.112 277.995ZM296.112 276.738C296.791 276.738 297.311 276.565 297.672 276.218C298.048 275.871 298.308 275.416 298.452 274.852C298.611 274.275 298.691 273.639 298.691 272.945V265.078C298.691 264.371 298.611 263.735 298.452 263.171C298.308 262.593 298.055 262.138 297.694 261.806C297.332 261.474 296.805 261.308 296.112 261.308C295.447 261.308 294.927 261.474 294.551 261.806C294.19 262.138 293.93 262.593 293.771 263.171C293.627 263.735 293.554 264.371 293.554 265.078V272.945C293.554 273.639 293.627 274.275 293.771 274.852C293.93 275.416 294.197 275.871 294.573 276.218C294.949 276.565 295.461 276.738 296.112 276.738Z" fill="#355CB8"/>
<path d="M306.874 279.685V277.973C305.458 277.944 304.418 277.496 303.753 276.63C303.088 275.763 302.706 274.629 302.604 273.227L304.057 272.794C304.129 273.516 304.259 274.173 304.447 274.766C304.634 275.344 304.931 275.806 305.335 276.153C305.74 276.485 306.296 276.651 307.004 276.651C307.784 276.651 308.391 276.449 308.824 276.044C309.258 275.64 309.474 274.997 309.474 274.116C309.474 273.335 309.279 272.664 308.889 272.1C308.514 271.537 307.994 270.944 307.329 270.323L304.23 267.354C303.869 266.993 303.565 266.632 303.32 266.27C303.089 265.895 302.915 265.505 302.8 265.1C302.684 264.696 302.626 264.269 302.626 263.822C302.626 262.651 302.966 261.741 303.645 261.091C304.324 260.441 305.227 260.094 306.354 260.051V258.23H307.047V260.051C307.611 260.094 308.109 260.21 308.543 260.397C308.99 260.571 309.373 260.838 309.691 261.199C310.009 261.546 310.255 261.994 310.428 262.543C310.616 263.077 310.739 263.728 310.796 264.493L309.388 264.862C309.33 264.125 309.207 263.496 309.019 262.976C308.846 262.442 308.564 262.03 308.174 261.741C307.798 261.452 307.271 261.322 306.592 261.351C305.87 261.38 305.277 261.575 304.815 261.936C304.353 262.297 304.122 262.875 304.122 263.67C304.122 264.147 304.215 264.58 304.403 264.97C304.591 265.36 304.909 265.779 305.357 266.227L308.456 269.153C308.918 269.586 309.337 270.056 309.713 270.561C310.103 271.053 310.414 271.587 310.645 272.165C310.89 272.729 311.013 273.343 311.013 274.007C311.013 274.816 310.869 275.503 310.58 276.066C310.291 276.63 309.886 277.07 309.366 277.388C308.846 277.706 308.239 277.894 307.546 277.952V279.685H306.874Z" fill="#355CB8"/>
<path d="M260.574 302.884V287.454C260.488 287.584 260.314 287.714 260.054 287.844C259.794 287.974 259.505 288.09 259.187 288.191C258.884 288.292 258.602 288.386 258.342 288.473C258.096 288.545 257.937 288.588 257.865 288.603V287.324C258.068 287.266 258.306 287.18 258.58 287.064C258.855 286.948 259.129 286.811 259.404 286.652C259.678 286.479 259.946 286.284 260.206 286.067C260.48 285.85 260.711 285.605 260.899 285.33H262.178V302.884H260.574Z" fill="#233C82"/>
<path d="M266.191 302.884V300.5H267.86V302.884H266.191Z" fill="#233C82"/>
<path d="M274.398 303.101C273.357 303.101 272.534 302.877 271.927 302.429C271.32 301.981 270.887 301.367 270.627 300.587C270.367 299.807 270.237 298.918 270.237 297.922V290.293C270.237 289.282 270.367 288.393 270.627 287.627C270.901 286.847 271.342 286.24 271.949 285.807C272.57 285.374 273.386 285.157 274.398 285.157C275.438 285.157 276.261 285.374 276.868 285.807C277.489 286.24 277.93 286.847 278.19 287.627C278.465 288.393 278.602 289.282 278.602 290.293V297.922C278.602 298.933 278.465 299.829 278.19 300.609C277.93 301.389 277.497 302.003 276.89 302.451C276.283 302.884 275.452 303.101 274.398 303.101ZM274.398 301.844C275.077 301.844 275.597 301.671 275.958 301.324C276.334 300.977 276.594 300.522 276.738 299.959C276.897 299.381 276.976 298.745 276.976 298.052V290.185C276.976 289.477 276.897 288.841 276.738 288.278C276.594 287.7 276.341 287.245 275.98 286.912C275.618 286.58 275.091 286.414 274.398 286.414C273.733 286.414 273.213 286.58 272.837 286.912C272.476 287.245 272.216 287.7 272.057 288.278C271.913 288.841 271.84 289.477 271.84 290.185V298.052C271.84 298.745 271.913 299.381 272.057 299.959C272.216 300.522 272.483 300.977 272.859 301.324C273.235 301.671 273.747 301.844 274.398 301.844Z" fill="#233C82"/>
<path d="M285.593 303.101C284.553 303.101 283.729 302.877 283.123 302.429C282.516 301.981 282.082 301.367 281.822 300.587C281.562 299.807 281.432 298.918 281.432 297.922V290.293C281.432 289.282 281.562 288.393 281.822 287.627C282.097 286.847 282.537 286.24 283.144 285.807C283.766 285.374 284.582 285.157 285.593 285.157C286.633 285.157 287.457 285.374 288.064 285.807C288.685 286.24 289.126 286.847 289.386 287.627C289.66 288.393 289.798 289.282 289.798 290.293V297.922C289.798 298.933 289.66 299.829 289.386 300.609C289.126 301.389 288.692 302.003 288.085 302.451C287.479 302.884 286.648 303.101 285.593 303.101ZM285.593 301.844C286.272 301.844 286.792 301.671 287.154 301.324C287.529 300.977 287.789 300.522 287.934 299.959C288.093 299.381 288.172 298.745 288.172 298.052V290.185C288.172 289.477 288.093 288.841 287.934 288.278C287.789 287.7 287.536 287.245 287.175 286.912C286.814 286.58 286.287 286.414 285.593 286.414C284.929 286.414 284.408 286.58 284.033 286.912C283.672 287.245 283.412 287.7 283.253 288.278C283.108 288.841 283.036 289.477 283.036 290.185V298.052C283.036 298.745 283.108 299.381 283.253 299.959C283.412 300.522 283.679 300.977 284.055 301.324C284.43 301.671 284.943 301.844 285.593 301.844Z" fill="#233C82"/>
<path d="M296.789 303.101C295.749 303.101 294.925 302.877 294.318 302.429C293.711 301.981 293.278 301.367 293.018 300.587C292.758 299.807 292.628 298.918 292.628 297.922V290.293C292.628 289.282 292.758 288.393 293.018 287.627C293.292 286.847 293.733 286.24 294.34 285.807C294.961 285.374 295.778 285.157 296.789 285.157C297.829 285.157 298.653 285.374 299.259 285.807C299.881 286.24 300.321 286.847 300.581 287.627C300.856 288.393 300.993 289.282 300.993 290.293V297.922C300.993 298.933 300.856 299.829 300.581 300.609C300.321 301.389 299.888 302.003 299.281 302.451C298.674 302.884 297.844 303.101 296.789 303.101ZM296.789 301.844C297.468 301.844 297.988 301.671 298.349 301.324C298.725 300.977 298.985 300.522 299.129 299.959C299.288 299.381 299.368 298.745 299.368 298.052V290.185C299.368 289.477 299.288 288.841 299.129 288.278C298.985 287.7 298.732 287.245 298.371 286.912C298.01 286.58 297.482 286.414 296.789 286.414C296.124 286.414 295.604 286.58 295.228 286.912C294.867 287.245 294.607 287.7 294.448 288.278C294.304 288.841 294.232 289.477 294.232 290.185V298.052C294.232 298.745 294.304 299.381 294.448 299.959C294.607 300.522 294.875 300.977 295.25 301.324C295.626 301.671 296.139 301.844 296.789 301.844Z" fill="#233C82"/>
<path d="M307.551 304.791V303.079C306.135 303.05 305.095 302.603 304.43 301.736C303.766 300.869 303.383 299.735 303.282 298.333L304.734 297.9C304.806 298.622 304.936 299.28 305.124 299.872C305.312 300.45 305.608 300.912 306.012 301.259C306.417 301.591 306.973 301.757 307.681 301.757C308.461 301.757 309.068 301.555 309.502 301.151C309.935 300.746 310.152 300.103 310.152 299.222C310.152 298.442 309.957 297.77 309.567 297.206C309.191 296.643 308.671 296.051 308.006 295.429L304.907 292.46C304.546 292.099 304.243 291.738 303.997 291.377C303.766 291.001 303.592 290.611 303.477 290.206C303.361 289.802 303.303 289.376 303.303 288.928C303.303 287.757 303.643 286.847 304.322 286.197C305.001 285.547 305.904 285.2 307.031 285.157V283.336H307.724V285.157C308.288 285.2 308.786 285.316 309.22 285.504C309.668 285.677 310.051 285.944 310.368 286.305C310.686 286.652 310.932 287.1 311.105 287.649C311.293 288.184 311.416 288.834 311.474 289.6L310.065 289.968C310.007 289.231 309.884 288.603 309.697 288.083C309.523 287.548 309.241 287.136 308.851 286.847C308.476 286.558 307.948 286.428 307.269 286.457C306.547 286.486 305.955 286.681 305.492 287.042C305.03 287.403 304.799 287.981 304.799 288.776C304.799 289.253 304.893 289.686 305.08 290.076C305.268 290.466 305.586 290.885 306.034 291.333L309.133 294.259C309.595 294.692 310.014 295.162 310.39 295.668C310.78 296.159 311.091 296.693 311.322 297.271C311.568 297.835 311.69 298.449 311.69 299.113C311.69 299.923 311.546 300.609 311.257 301.172C310.968 301.736 310.563 302.176 310.043 302.494C309.523 302.812 308.916 303 308.223 303.058V304.791H307.551Z" fill="#233C82"/>
<path d="M328.604 250.036H243.751C237.737 250.036 232.816 245.115 232.816 239.101V214.716C232.816 208.702 237.737 203.782 243.751 203.782H328.604C334.618 203.782 339.539 208.702 339.539 214.716V239.101C339.539 245.224 334.618 250.036 328.604 250.036Z" fill="#011635" stroke="#011635" stroke-width="1.5" stroke-miterlimit="10" stroke-linecap="round" stroke-linejoin="round"/>
<path d="M328.604 244.569H243.751C237.737 244.569 232.816 239.649 232.816 233.635V209.25C232.816 203.236 237.737 198.316 243.751 198.316H328.604C334.618 198.316 339.539 203.236 339.539 209.25V233.635C339.539 239.758 334.618 244.569 328.604 244.569Z" fill="white" stroke="#011635" stroke-width="1.5" stroke-miterlimit="10" stroke-linecap="round" stroke-linejoin="round"/>
<path d="M327.518 233.159V208.774L242.664 208.774V233.159H327.518Z" fill="#EDF490"/>
<path d="M274.855 229.275V215.9H278.141C278.736 215.9 279.27 215.955 279.743 216.065C280.227 216.175 280.64 216.363 280.981 216.627C281.334 216.88 281.603 217.227 281.79 217.667C281.978 218.107 282.071 218.663 282.071 219.335C282.071 219.874 281.994 220.336 281.84 220.722C281.697 221.107 281.482 221.415 281.196 221.646C280.91 221.867 280.552 222.015 280.123 222.092C280.651 222.18 281.086 222.367 281.427 222.654C281.779 222.929 282.038 223.292 282.203 223.743C282.379 224.195 282.467 224.74 282.467 225.378C282.467 226.016 282.385 226.583 282.22 227.079C282.066 227.563 281.829 227.97 281.51 228.301C281.202 228.62 280.811 228.862 280.337 229.027C279.875 229.192 279.33 229.275 278.703 229.275H274.855ZM277.299 227.558H278.224C278.961 227.558 279.462 227.381 279.726 227.029C279.991 226.666 280.123 226.11 280.123 225.362C280.123 224.822 280.057 224.387 279.925 224.057C279.804 223.716 279.594 223.463 279.297 223.298C279.011 223.132 278.626 223.05 278.141 223.05H277.299V227.558ZM277.299 221.366H278.125C278.609 221.366 278.983 221.294 279.248 221.151C279.512 221.008 279.693 220.788 279.792 220.491C279.903 220.193 279.958 219.819 279.958 219.368C279.958 218.894 279.875 218.531 279.71 218.278C279.556 218.014 279.319 217.838 279 217.75C278.681 217.651 278.273 217.601 277.778 217.601H277.299V221.366Z" fill="#011635"/>
<path d="M284.113 229.275V215.9H286.523V229.275H284.113Z" fill="#011635"/>
<path d="M288.594 229.275V215.9H291.748C292.837 215.9 293.685 216.049 294.29 216.346C294.907 216.643 295.342 217.1 295.595 217.717C295.859 218.333 295.991 219.115 295.991 220.061V224.949C295.991 225.917 295.859 226.727 295.595 227.376C295.342 228.014 294.912 228.493 294.307 228.812C293.712 229.121 292.892 229.275 291.847 229.275H288.594ZM291.038 227.574H291.781C292.342 227.574 292.744 227.475 292.986 227.277C293.228 227.079 293.377 226.793 293.432 226.418C293.487 226.033 293.514 225.565 293.514 225.015V219.896C293.514 219.357 293.476 218.922 293.399 218.592C293.322 218.261 293.162 218.019 292.92 217.865C292.678 217.711 292.287 217.634 291.748 217.634H291.038V227.574Z" fill="#011635"/>
<path d="M202.417 267.315C219.148 267.315 218.273 253.319 236.752 253.319C241.782 253.319 245.828 249.273 245.828 244.243V240.634" stroke="#011635" stroke-width="1.5" stroke-miterlimit="10" stroke-linecap="round" stroke-linejoin="round"/>
<path d="M196.185 267.317C196.185 265.567 197.606 264.255 199.246 264.255C200.996 264.255 202.308 265.677 202.308 267.317C202.308 269.066 200.886 270.379 199.246 270.379C197.497 270.379 196.185 268.957 196.185 267.317Z" fill="#011635" stroke="#011635" stroke-width="1.5" stroke-miterlimit="10" stroke-linecap="round" stroke-linejoin="round"/>
<path d="M242.657 237.463C242.657 235.713 244.079 234.401 245.719 234.401C247.468 234.401 248.781 235.823 248.781 237.463C248.781 239.212 247.359 240.525 245.719 240.525C244.079 240.634 242.657 239.212 242.657 237.463Z" fill="#011635" stroke="#011635" stroke-width="1.5" stroke-miterlimit="10" stroke-linecap="round" stroke-linejoin="round"/>
<path d="M696.337 654.724H581.523C575.509 654.724 570.588 649.804 570.588 643.79V528.975C570.588 522.961 575.509 518.041 581.523 518.041H696.337C702.352 518.041 707.272 522.961 707.272 528.975V643.79C707.272 649.913 702.461 654.724 696.337 654.724Z" fill="#011635" stroke="#011635" stroke-width="1.5" stroke-miterlimit="10" stroke-linecap="round" stroke-linejoin="round"/>
<path d="M696.337 649.258H581.523C575.509 649.258 570.588 644.337 570.588 638.323V523.509C570.588 517.495 575.509 512.574 581.523 512.574H696.337C702.352 512.574 707.272 517.495 707.272 523.509V638.323C707.272 644.446 702.461 649.258 696.337 649.258Z" fill="#92D5F4" stroke="#011635" stroke-width="1.5" stroke-miterlimit="10" stroke-linecap="round" stroke-linejoin="round"/>
<path d="M699.157 641.145V520.754H578.766V641.145H699.157Z" fill="#86D1F4"/>
<path d="M691.502 633.491V528.409H586.42V633.491H691.502Z" fill="#79CCF2"/>
<path d="M683.848 625.839V536.065H594.074V625.839H683.848Z" fill="#61C3ED"/>
<path d="M676.218 543.739H601.752V618.204H676.218V543.739Z" fill="white" stroke="#011635" stroke-width="1.5" stroke-miterlimit="10" stroke-linecap="round" stroke-linejoin="round"/>
<path d="M670.727 612.714V549.183H607.196V612.714H670.727Z" fill="#F490B6"/>
<path d="M661.213 603.091V558.697H616.818V603.091H661.213Z" fill="white" stroke="#011635" stroke-width="1.5" stroke-miterlimit="10" stroke-linecap="round" stroke-linejoin="round"/>
<path d="M648.772 572.386L648.881 567.465C648.881 567.137 648.662 566.809 648.225 566.918L633.135 569.324C632.807 569.433 632.479 569.761 632.479 570.089V576.541V588.569C631.604 587.913 630.62 587.476 629.308 587.476C626.902 587.476 624.934 589.116 624.934 591.193C624.934 593.271 626.902 594.911 629.417 594.911C631.823 594.911 633.901 593.271 633.901 591.193C633.901 590.975 633.901 590.975 633.901 590.756C633.901 590.537 633.901 590.537 633.901 590.537V578.619V576.978L647.678 574.682V586.382C646.803 585.726 645.819 585.289 644.617 585.289C642.211 585.289 640.243 586.929 640.243 589.007C640.243 591.084 642.211 592.724 644.726 592.724C647.132 592.724 649.1 591.084 649.1 589.007C649.1 588.788 649.1 588.788 649.1 588.46C649.1 588.241 649.1 588.35 649.1 588.241V576.322V572.386H648.772Z" fill="#9D90F4"/>
<path d="M535.488 639.75H450.635C444.621 639.75 439.7 634.83 439.7 628.815V604.431C439.7 598.417 444.621 593.496 450.635 593.496H535.488C541.502 593.496 546.423 598.417 546.423 604.431V628.815C546.423 634.939 541.502 639.75 535.488 639.75Z" fill="#011635" stroke="#011635" stroke-width="1.5" stroke-miterlimit="10" stroke-linecap="round" stroke-linejoin="round"/>
<path d="M535.488 634.283H450.635C444.621 634.283 439.7 629.362 439.7 623.348V598.964C439.7 592.95 444.621 588.029 450.635 588.029H535.488C541.502 588.029 546.423 592.95 546.423 598.964V623.348C546.423 629.471 541.502 634.283 535.488 634.283Z" fill="white" stroke="#011635" stroke-width="1.5" stroke-miterlimit="10" stroke-linecap="round" stroke-linejoin="round"/>
<path d="M535.469 623.336V598.952H450.615V623.336H535.469Z" fill="#EDF490"/>
<path d="M481.05 619.344V605.97H484.336C484.931 605.97 485.464 606.025 485.938 606.135C486.422 606.245 486.835 606.432 487.176 606.696C487.528 606.95 487.798 607.296 487.985 607.737C488.172 608.177 488.266 608.733 488.266 609.404C488.266 609.944 488.189 610.406 488.035 610.791C487.892 611.177 487.677 611.485 487.391 611.716C487.105 611.936 486.747 612.085 486.318 612.162C486.846 612.25 487.281 612.437 487.622 612.723C487.974 612.998 488.233 613.362 488.398 613.813C488.574 614.264 488.662 614.809 488.662 615.448C488.662 616.086 488.58 616.653 488.415 617.148C488.26 617.633 488.024 618.04 487.705 618.37C487.396 618.689 487.006 618.932 486.532 619.097C486.07 619.262 485.525 619.344 484.898 619.344H481.05ZM483.494 617.627H484.419C485.156 617.627 485.657 617.451 485.921 617.099C486.185 616.736 486.318 616.18 486.318 615.431C486.318 614.892 486.252 614.457 486.119 614.127C485.998 613.785 485.789 613.532 485.492 613.367C485.206 613.202 484.82 613.119 484.336 613.119H483.494V617.627ZM483.494 611.435H484.32C484.804 611.435 485.178 611.364 485.442 611.221C485.707 611.077 485.888 610.857 485.987 610.56C486.097 610.263 486.152 609.889 486.152 609.437C486.152 608.964 486.07 608.601 485.905 608.348C485.751 608.083 485.514 607.907 485.195 607.819C484.876 607.72 484.468 607.671 483.973 607.671H483.494V611.435Z" fill="#011635"/>
<path d="M490.307 619.344V605.97H492.718V619.344H490.307Z" fill="#011635"/>
<path d="M494.789 619.344V605.97H497.942C499.032 605.97 499.88 606.118 500.485 606.416C501.102 606.713 501.536 607.17 501.79 607.786C502.054 608.403 502.186 609.184 502.186 610.131V615.018C502.186 615.987 502.054 616.796 501.79 617.446C501.536 618.084 501.107 618.563 500.502 618.882C499.907 619.19 499.087 619.344 498.041 619.344H494.789ZM497.232 617.644H497.975C498.537 617.644 498.939 617.545 499.181 617.346C499.423 617.148 499.572 616.862 499.627 616.488C499.682 616.103 499.709 615.635 499.709 615.084V609.966C499.709 609.426 499.671 608.992 499.594 608.661C499.517 608.331 499.357 608.089 499.115 607.935C498.873 607.781 498.482 607.704 497.942 607.704H497.232V617.644Z" fill="#011635"/>
<path d="M476.016 667.057C475.134 667.057 474.397 666.906 473.805 666.602C473.213 666.299 472.765 665.844 472.461 665.237C472.172 664.616 472.021 663.85 472.006 662.94C472.006 662.925 472.006 662.875 472.006 662.788C472.006 662.701 472.006 662.651 472.006 662.636H473.567C473.567 663.749 473.747 664.544 474.108 665.02C474.47 665.497 475.113 665.735 476.037 665.735C476.528 665.735 476.947 665.62 477.294 665.389C477.655 665.158 477.93 664.767 478.118 664.218C478.306 663.655 478.399 662.904 478.399 661.965V658.649C478.183 658.909 477.836 659.147 477.359 659.364C476.897 659.581 476.304 659.689 475.582 659.689C474.614 659.689 473.856 659.508 473.307 659.147C472.758 658.772 472.367 658.201 472.136 657.435C471.905 656.655 471.79 655.658 471.79 654.445C471.79 653.361 471.927 652.422 472.201 651.627C472.49 650.833 472.938 650.219 473.545 649.785C474.166 649.337 474.975 649.113 475.972 649.113C476.926 649.113 477.699 649.337 478.291 649.785C478.883 650.219 479.317 650.847 479.591 651.671C479.866 652.48 480.003 653.455 480.003 654.596V661.596C480.003 662.665 479.873 663.612 479.613 664.435C479.367 665.259 478.956 665.902 478.378 666.364C477.8 666.826 477.012 667.057 476.016 667.057ZM475.951 658.454C476.572 658.454 477.085 658.345 477.489 658.129C477.894 657.898 478.197 657.666 478.399 657.435V654.423C478.399 653.469 478.313 652.704 478.139 652.126C477.98 651.533 477.72 651.107 477.359 650.847C476.998 650.573 476.536 650.435 475.972 650.435C475.409 650.435 474.932 650.573 474.542 650.847C474.166 651.107 473.884 651.512 473.697 652.061C473.509 652.61 473.415 653.303 473.415 654.141C473.415 655.095 473.465 655.897 473.567 656.547C473.682 657.182 473.921 657.659 474.282 657.977C474.643 658.295 475.199 658.454 475.951 658.454Z" fill="#355CB8"/>
<path d="M487.003 667.057C485.962 667.057 485.139 666.834 484.532 666.386C483.925 665.938 483.492 665.324 483.232 664.544C482.972 663.763 482.842 662.875 482.842 661.878V654.249C482.842 653.238 482.972 652.35 483.232 651.584C483.506 650.804 483.947 650.197 484.554 649.763C485.175 649.33 485.991 649.113 487.003 649.113C488.043 649.113 488.866 649.33 489.473 649.763C490.094 650.197 490.535 650.804 490.795 651.584C491.07 652.35 491.207 653.238 491.207 654.249V661.878C491.207 662.889 491.07 663.785 490.795 664.565C490.535 665.345 490.102 665.959 489.495 666.407C488.888 666.841 488.057 667.057 487.003 667.057ZM487.003 665.801C487.682 665.801 488.202 665.627 488.563 665.28C488.939 664.934 489.199 664.479 489.343 663.915C489.502 663.337 489.582 662.701 489.582 662.008V654.141C489.582 653.433 489.502 652.797 489.343 652.234C489.199 651.656 488.946 651.201 488.585 650.869C488.223 650.536 487.696 650.37 487.003 650.37C486.338 650.37 485.818 650.536 485.442 650.869C485.081 651.201 484.821 651.656 484.662 652.234C484.518 652.797 484.445 653.433 484.445 654.141V662.008C484.445 662.701 484.518 663.337 484.662 663.915C484.821 664.479 485.088 664.934 485.464 665.28C485.84 665.627 486.352 665.801 487.003 665.801Z" fill="#355CB8"/>
<path d="M498.198 667.057C497.158 667.057 496.334 666.834 495.728 666.386C495.121 665.938 494.687 665.324 494.427 664.544C494.167 663.763 494.037 662.875 494.037 661.878V654.249C494.037 653.238 494.167 652.35 494.427 651.584C494.702 650.804 495.143 650.197 495.749 649.763C496.371 649.33 497.187 649.113 498.198 649.113C499.238 649.113 500.062 649.33 500.669 649.763C501.29 650.197 501.731 650.804 501.991 651.584C502.265 652.35 502.403 653.238 502.403 654.249V661.878C502.403 662.889 502.265 663.785 501.991 664.565C501.731 665.345 501.297 665.959 500.691 666.407C500.084 666.841 499.253 667.057 498.198 667.057ZM498.198 665.801C498.877 665.801 499.397 665.627 499.759 665.28C500.134 664.934 500.394 664.479 500.539 663.915C500.698 663.337 500.777 662.701 500.777 662.008V654.141C500.777 653.433 500.698 652.797 500.539 652.234C500.394 651.656 500.141 651.201 499.78 650.869C499.419 650.536 498.892 650.37 498.198 650.37C497.534 650.37 497.014 650.536 496.638 650.869C496.277 651.201 496.017 651.656 495.858 652.234C495.713 652.797 495.641 653.433 495.641 654.141V662.008C495.641 662.701 495.713 663.337 495.858 663.915C496.017 664.479 496.284 664.934 496.66 665.28C497.035 665.627 497.548 665.801 498.198 665.801Z" fill="#355CB8"/>
<path d="M508.96 668.748V667.036C507.545 667.007 506.504 666.559 505.84 665.692C505.175 664.825 504.792 663.691 504.691 662.29L506.143 661.856C506.215 662.579 506.345 663.236 506.533 663.828C506.721 664.406 507.017 664.869 507.422 665.215C507.826 665.548 508.383 665.714 509.091 665.714C509.871 665.714 510.477 665.512 510.911 665.107C511.344 664.702 511.561 664.06 511.561 663.178C511.561 662.398 511.366 661.726 510.976 661.163C510.6 660.599 510.08 660.007 509.416 659.386L506.317 656.417C505.955 656.055 505.652 655.694 505.406 655.333C505.175 654.957 505.002 654.567 504.886 654.163C504.771 653.758 504.713 653.332 504.713 652.884C504.713 651.714 505.052 650.804 505.731 650.154C506.41 649.503 507.313 649.157 508.44 649.113V647.293H509.134V649.113C509.697 649.157 510.196 649.272 510.629 649.46C511.077 649.633 511.46 649.901 511.778 650.262C512.096 650.609 512.341 651.057 512.515 651.606C512.702 652.14 512.825 652.79 512.883 653.556L511.474 653.924C511.417 653.188 511.294 652.559 511.106 652.039C510.933 651.504 510.651 651.093 510.261 650.804C509.885 650.515 509.358 650.385 508.679 650.414C507.956 650.442 507.364 650.638 506.902 650.999C506.439 651.36 506.208 651.938 506.208 652.732C506.208 653.209 506.302 653.643 506.49 654.033C506.678 654.423 506.996 654.842 507.443 655.29L510.543 658.215C511.005 658.649 511.424 659.118 511.799 659.624C512.19 660.115 512.5 660.65 512.731 661.228C512.977 661.791 513.1 662.405 513.1 663.07C513.1 663.879 512.955 664.565 512.666 665.129C512.377 665.692 511.973 666.133 511.453 666.451C510.933 666.769 510.326 666.956 509.632 667.014V668.748H508.96Z" fill="#355CB8"/>
<path d="M578.133 597.869C559.654 597.869 560.528 611.866 543.798 611.866" stroke="#011635" stroke-width="1.5" stroke-miterlimit="10" stroke-linecap="round" stroke-linejoin="round"/>
<path d="M537.565 611.867C537.565 610.117 538.987 608.805 540.627 608.805C542.377 608.805 543.689 610.227 543.689 611.867C543.689 613.616 542.267 614.928 540.627 614.928C538.987 615.038 537.565 613.616 537.565 611.867Z" fill="#011635" stroke="#011635" stroke-width="1.5" stroke-miterlimit="10" stroke-linecap="round" stroke-linejoin="round"/>
<path d="M578.133 597.869C578.133 596.12 579.555 594.808 581.195 594.808C582.945 594.808 584.257 596.229 584.257 597.869C584.257 599.619 582.835 600.931 581.195 600.931C579.555 600.931 578.133 599.619 578.133 597.869Z" fill="#011635" stroke="#011635" stroke-width="1.5" stroke-miterlimit="10" stroke-linecap="round" stroke-linejoin="round"/>
<path d="M622.966 369.543H508.151C502.137 369.543 497.217 364.623 497.217 358.608V243.794C497.217 237.78 502.137 232.859 508.151 232.859H622.966C628.98 232.859 633.901 237.78 633.901 243.794V358.608C633.901 364.623 628.98 369.543 622.966 369.543Z" fill="#011635" stroke="#011635" stroke-width="1.5" stroke-miterlimit="10" stroke-linecap="round" stroke-linejoin="round"/>
<path d="M622.966 364.077H508.151C502.137 364.077 497.217 359.156 497.217 353.142V238.328C497.217 232.314 502.137 227.393 508.151 227.393H622.966C628.98 227.393 633.901 232.314 633.901 238.328V353.142C633.901 359.156 628.98 364.077 622.966 364.077Z" fill="#92D5F4" stroke="#011635" stroke-width="1.5" stroke-miterlimit="10" stroke-linecap="round" stroke-linejoin="round"/>
<path d="M499.595 251.958V339.436H631.468V251.958H499.595Z" fill="#86D1F4"/>
<path d="M507.25 259.612V331.781H623.813V259.612H507.25Z" fill="#79CCF2"/>
<path d="M514.904 267.265V324.125H616.159V267.265H514.904Z" fill="#61C3ED"/>
<path d="M608.532 274.961H522.585V316.513H608.532V274.961Z" fill="white" stroke="#011635" stroke-width="1.5" stroke-miterlimit="10" stroke-linecap="round" stroke-linejoin="round"/>
<path d="M528.025 280.389V311.006H603.037V280.389H528.025Z" fill="#9D90F4"/>
<path d="M565.231 289.83C565.34 289.502 565.668 289.502 565.778 289.83L567.309 292.892C567.418 293.22 567.855 293.548 568.183 293.548L571.573 293.985C571.901 293.985 572.011 294.313 571.792 294.532L569.386 296.938C569.168 297.156 568.949 297.703 569.058 298.031L569.605 301.421C569.714 301.749 569.496 301.968 569.167 301.749L566.106 300.218C565.778 299.999 565.231 299.999 565.012 300.218L561.951 301.749C561.623 301.968 561.404 301.749 561.513 301.421L562.06 298.031C562.169 297.703 561.951 297.156 561.732 296.938L559.326 294.532C559.108 294.313 559.108 293.985 559.545 293.985L562.935 293.548C563.263 293.548 563.7 293.22 563.81 292.892L565.231 289.83Z" fill="#EDF490" stroke="#011635" stroke-width="1.5" stroke-miterlimit="10" stroke-linecap="round" stroke-linejoin="round"/>
<path d="M546.095 289.83C546.204 289.502 546.532 289.502 546.642 289.83L548.172 292.892C548.282 293.22 548.719 293.548 549.047 293.548L552.437 293.985C552.765 293.985 552.874 294.313 552.656 294.532L550.25 296.938C550.031 297.156 549.813 297.703 549.922 298.031L550.469 301.421C550.578 301.749 550.359 301.968 550.031 301.749L546.97 300.218C546.642 299.999 546.095 299.999 545.876 300.218L542.814 301.749C542.486 301.968 542.268 301.749 542.377 301.421L542.924 298.031C543.033 297.703 542.814 297.156 542.596 296.938L540.19 294.532C539.971 294.313 539.971 293.985 540.409 293.985L543.798 293.548C544.127 293.548 544.564 293.22 544.673 292.892L546.095 289.83Z" fill="#EDF490" stroke="#011635" stroke-width="1.5" stroke-miterlimit="10" stroke-linecap="round" stroke-linejoin="round"/>
<path d="M584.366 289.83C584.476 289.502 584.804 289.502 584.913 289.83L586.444 292.892C586.553 293.22 586.991 293.548 587.319 293.548L590.708 293.985C591.036 293.985 591.146 294.313 590.927 294.532L588.521 296.938C588.303 297.156 588.084 297.703 588.193 298.031L588.74 301.421C588.85 301.749 588.631 301.968 588.303 301.749L585.241 300.218C584.913 299.999 584.366 299.999 584.148 300.218L581.086 301.749C580.758 301.968 580.539 301.749 580.648 301.421L581.195 298.031C581.305 297.703 581.086 297.156 580.867 296.938L578.462 294.532C578.243 294.313 578.243 293.985 578.68 293.985L582.07 293.548C582.398 293.548 582.835 293.22 582.945 292.892L584.366 289.83Z" fill="#EDF490" stroke="#011635" stroke-width="1.5" stroke-miterlimit="10" stroke-linecap="round" stroke-linejoin="round"/>
<path d="M699.837 429.473H614.984C608.969 429.473 604.049 424.552 604.049 418.538V394.153C604.049 388.139 608.969 383.219 614.984 383.219H699.837C705.851 383.219 710.771 388.139 710.771 394.153V418.538C710.771 424.661 705.851 429.473 699.837 429.473Z" fill="#011635" stroke="#011635" stroke-width="1.5" stroke-miterlimit="10" stroke-linecap="round" stroke-linejoin="round"/>
<path d="M699.837 424.006H614.984C608.969 424.006 604.049 419.086 604.049 413.072V388.687C604.049 382.673 608.969 377.752 614.984 377.752H699.837C705.851 377.752 710.771 382.673 710.771 388.687V413.072C710.771 419.195 705.851 424.006 699.837 424.006Z" fill="white" stroke="#011635" stroke-width="1.5" stroke-miterlimit="10" stroke-linecap="round" stroke-linejoin="round"/>
<path d="M699.832 413.067V388.683H614.979V413.067H699.832Z" fill="#EDF490"/>
<path d="M650.54 409.306V395.931H653.825C654.42 395.931 654.954 395.986 655.427 396.096C655.911 396.206 656.324 396.393 656.665 396.658C657.018 396.911 657.287 397.258 657.475 397.698C657.662 398.138 657.755 398.694 657.755 399.366C657.755 399.905 657.678 400.367 657.524 400.753C657.381 401.138 657.166 401.446 656.88 401.677C656.594 401.897 656.236 402.046 655.807 402.123C656.335 402.211 656.77 402.398 657.111 402.684C657.463 402.96 657.722 403.323 657.887 403.774C658.063 404.226 658.151 404.77 658.151 405.409C658.151 406.047 658.069 406.614 657.904 407.11C657.75 407.594 657.513 408.001 657.194 408.332C656.886 408.651 656.495 408.893 656.021 409.058C655.559 409.223 655.014 409.306 654.387 409.306H650.54ZM652.983 407.588H653.908C654.645 407.588 655.146 407.412 655.411 407.06C655.675 406.697 655.807 406.141 655.807 405.392C655.807 404.853 655.741 404.418 655.609 404.088C655.488 403.747 655.278 403.494 654.981 403.328C654.695 403.163 654.31 403.081 653.825 403.081H652.983V407.588ZM652.983 401.397H653.809C654.293 401.397 654.668 401.325 654.932 401.182C655.196 401.039 655.378 400.819 655.477 400.521C655.587 400.224 655.642 399.85 655.642 399.399C655.642 398.925 655.559 398.562 655.394 398.309C655.24 398.045 655.003 397.869 654.684 397.78C654.365 397.681 653.957 397.632 653.462 397.632H652.983V401.397Z" fill="#011635"/>
<path d="M659.797 409.306V395.931H662.207V409.306H659.797Z" fill="#011635"/>
<path d="M664.278 409.306V395.931H667.432C668.521 395.931 669.369 396.08 669.974 396.377C670.591 396.674 671.026 397.131 671.279 397.747C671.543 398.364 671.675 399.145 671.675 400.092V404.98C671.675 405.948 671.543 406.757 671.279 407.407C671.026 408.045 670.596 408.524 669.991 408.843C669.397 409.152 668.576 409.306 667.531 409.306H664.278ZM666.722 407.605H667.465C668.026 407.605 668.428 407.506 668.67 407.308C668.912 407.11 669.061 406.823 669.116 406.449C669.171 406.064 669.198 405.596 669.198 405.046V399.927C669.198 399.388 669.16 398.953 669.083 398.623C669.006 398.292 668.846 398.05 668.604 397.896C668.362 397.742 667.971 397.665 667.432 397.665H666.722V407.605Z" fill="#011635"/>
<path d="M634.153 482.447V467.017C634.067 467.147 633.893 467.277 633.633 467.407C633.373 467.537 633.084 467.652 632.766 467.754C632.463 467.855 632.181 467.949 631.921 468.035C631.676 468.107 631.517 468.151 631.444 468.165V466.887C631.647 466.829 631.885 466.742 632.16 466.627C632.434 466.511 632.709 466.374 632.983 466.215C633.258 466.041 633.525 465.846 633.785 465.63C634.059 465.413 634.291 465.167 634.478 464.893H635.757V482.447H634.153Z" fill="#233C82"/>
<path d="M639.77 482.447V480.063H641.439V482.447H639.77Z" fill="#233C82"/>
<path d="M647.803 482.664C646.792 482.664 645.983 482.461 645.376 482.057C644.784 481.638 644.35 481.06 644.076 480.323C643.801 479.586 643.664 478.727 643.664 477.744C643.664 476.978 643.736 476.343 643.881 475.837C644.04 475.317 644.242 474.891 644.488 474.558C644.733 474.226 645.008 473.959 645.311 473.757C645.614 473.554 645.911 473.381 646.2 473.236C645.492 472.948 644.921 472.471 644.488 471.806C644.054 471.127 643.837 470.231 643.837 469.119C643.837 468.266 643.967 467.508 644.227 466.843C644.488 466.179 644.906 465.659 645.484 465.283C646.077 464.907 646.85 464.719 647.803 464.719C648.757 464.719 649.523 464.915 650.1 465.305C650.678 465.68 651.09 466.2 651.336 466.865C651.596 467.53 651.726 468.295 651.726 469.162C651.726 470.275 651.509 471.156 651.076 471.806C650.657 472.456 650.093 472.933 649.385 473.236C649.674 473.381 649.97 473.554 650.274 473.757C650.577 473.959 650.845 474.226 651.076 474.558C651.321 474.891 651.524 475.317 651.683 475.837C651.841 476.343 651.921 476.978 651.921 477.744C651.921 478.727 651.784 479.586 651.509 480.323C651.249 481.06 650.816 481.638 650.209 482.057C649.602 482.461 648.8 482.664 647.803 482.664ZM647.803 481.385C648.381 481.385 648.858 481.255 649.234 480.995C649.609 480.735 649.891 480.338 650.079 479.803C650.267 479.254 650.361 478.568 650.361 477.744C650.361 477.022 650.274 476.393 650.1 475.859C649.942 475.31 649.674 474.869 649.299 474.537C648.937 474.204 648.439 474.017 647.803 473.973C647.168 474.017 646.655 474.204 646.265 474.537C645.889 474.869 645.614 475.31 645.441 475.859C645.282 476.393 645.203 477.022 645.203 477.744C645.203 478.568 645.297 479.254 645.484 479.803C645.687 480.338 645.976 480.735 646.351 480.995C646.741 481.255 647.225 481.385 647.803 481.385ZM647.803 472.521C648.41 472.492 648.88 472.326 649.212 472.023C649.559 471.719 649.804 471.315 649.949 470.809C650.093 470.289 650.166 469.718 650.166 469.097C650.166 468.086 649.978 467.32 649.602 466.8C649.226 466.265 648.627 465.998 647.803 465.998C646.965 465.998 646.351 466.265 645.961 466.8C645.586 467.32 645.398 468.086 645.398 469.097C645.398 469.718 645.47 470.289 645.614 470.809C645.759 471.315 646.005 471.719 646.351 472.023C646.712 472.326 647.196 472.492 647.803 472.521Z" fill="#233C82"/>
<path d="M658.791 482.664C657.751 482.664 656.928 482.44 656.321 481.992C655.714 481.544 655.281 480.93 655.02 480.15C654.76 479.37 654.63 478.481 654.63 477.484V469.856C654.63 468.844 654.76 467.956 655.02 467.19C655.295 466.41 655.736 465.803 656.342 465.37C656.964 464.936 657.78 464.719 658.791 464.719C659.832 464.719 660.655 464.936 661.262 465.37C661.883 465.803 662.324 466.41 662.584 467.19C662.858 467.956 662.996 468.844 662.996 469.856V477.484C662.996 478.495 662.858 479.391 662.584 480.171C662.324 480.952 661.89 481.566 661.284 482.014C660.677 482.447 659.846 482.664 658.791 482.664ZM658.791 481.407C659.47 481.407 659.991 481.233 660.352 480.887C660.727 480.54 660.987 480.085 661.132 479.521C661.291 478.943 661.37 478.308 661.37 477.614V469.747C661.37 469.039 661.291 468.404 661.132 467.84C660.987 467.262 660.735 466.807 660.373 466.475C660.012 466.143 659.485 465.976 658.791 465.976C658.127 465.976 657.607 466.143 657.231 466.475C656.87 466.807 656.61 467.262 656.451 467.84C656.306 468.404 656.234 469.039 656.234 469.747V477.614C656.234 478.308 656.306 478.943 656.451 479.521C656.61 480.085 656.877 480.54 657.253 480.887C657.628 481.233 658.141 481.407 658.791 481.407Z" fill="#233C82"/>
<path d="M669.987 482.664C668.947 482.664 668.123 482.44 667.516 481.992C666.91 481.544 666.476 480.93 666.216 480.15C665.956 479.37 665.826 478.481 665.826 477.484V469.856C665.826 468.844 665.956 467.956 666.216 467.19C666.491 466.41 666.931 465.803 667.538 465.37C668.159 464.936 668.976 464.719 669.987 464.719C671.027 464.719 671.851 464.936 672.458 465.37C673.079 465.803 673.52 466.41 673.78 467.19C674.054 467.956 674.191 468.844 674.191 469.856V477.484C674.191 478.495 674.054 479.391 673.78 480.171C673.52 480.952 673.086 481.566 672.479 482.014C671.872 482.447 671.042 482.664 669.987 482.664ZM669.987 481.407C670.666 481.407 671.186 481.233 671.547 480.887C671.923 480.54 672.183 480.085 672.328 479.521C672.486 478.943 672.566 478.308 672.566 477.614V469.747C672.566 469.039 672.486 468.404 672.328 467.84C672.183 467.262 671.93 466.807 671.569 466.475C671.208 466.143 670.681 465.976 669.987 465.976C669.322 465.976 668.802 466.143 668.427 466.475C668.065 466.807 667.805 467.262 667.646 467.84C667.502 468.404 667.43 469.039 667.43 469.747V477.614C667.43 478.308 667.502 478.943 667.646 479.521C667.805 480.085 668.073 480.54 668.448 480.887C668.824 481.233 669.337 481.407 669.987 481.407Z" fill="#233C82"/>
<path d="M680.749 484.354V482.642C679.333 482.613 678.293 482.165 677.628 481.298C676.964 480.431 676.581 479.297 676.48 477.896L677.932 477.462C678.004 478.185 678.134 478.842 678.322 479.435C678.51 480.012 678.806 480.475 679.211 480.822C679.615 481.154 680.171 481.32 680.879 481.32C681.659 481.32 682.266 481.118 682.7 480.713C683.133 480.309 683.35 479.666 683.35 478.784C683.35 478.004 683.155 477.332 682.765 476.769C682.389 476.205 681.869 475.613 681.204 474.992L678.105 472.023C677.744 471.662 677.441 471.3 677.195 470.939C676.964 470.564 676.791 470.174 676.675 469.769C676.559 469.364 676.502 468.938 676.502 468.49C676.502 467.32 676.841 466.41 677.52 465.76C678.199 465.11 679.102 464.763 680.229 464.719V462.899H680.923V464.719C681.486 464.763 681.985 464.878 682.418 465.066C682.866 465.24 683.249 465.507 683.567 465.868C683.884 466.215 684.13 466.663 684.303 467.212C684.491 467.746 684.614 468.396 684.672 469.162L683.263 469.531C683.205 468.794 683.083 468.165 682.895 467.645C682.721 467.111 682.44 466.699 682.05 466.41C681.674 466.121 681.147 465.991 680.467 466.02C679.745 466.049 679.153 466.244 678.69 466.605C678.228 466.966 677.997 467.544 677.997 468.339C677.997 468.815 678.091 469.249 678.279 469.639C678.466 470.029 678.784 470.448 679.232 470.896L682.331 473.822C682.794 474.255 683.213 474.725 683.588 475.23C683.978 475.721 684.289 476.256 684.52 476.834C684.766 477.397 684.889 478.011 684.889 478.676C684.889 479.485 684.744 480.171 684.455 480.735C684.166 481.298 683.762 481.739 683.241 482.057C682.721 482.375 682.115 482.563 681.421 482.62V484.354H680.749Z" fill="#233C82"/>
<path d="M635.67 457.559C634.76 457.559 634.016 457.386 633.438 457.039C632.86 456.678 632.434 456.18 632.16 455.544C631.9 454.908 631.77 454.157 631.77 453.29V452.857H633.308C633.308 452.886 633.308 452.943 633.308 453.03C633.308 453.117 633.308 453.182 633.308 453.225C633.323 453.846 633.402 454.388 633.547 454.85C633.691 455.298 633.937 455.645 634.283 455.891C634.63 456.136 635.093 456.259 635.67 456.259C636.219 456.259 636.682 456.144 637.057 455.912C637.448 455.667 637.736 455.269 637.924 454.72C638.127 454.171 638.228 453.456 638.228 452.575C638.228 451.491 638.033 450.61 637.643 449.931C637.252 449.237 636.573 448.876 635.605 448.847C635.577 448.847 635.504 448.847 635.389 448.847C635.273 448.847 635.201 448.847 635.172 448.847V447.33C635.201 447.33 635.273 447.33 635.389 447.33C635.504 447.33 635.577 447.33 635.605 447.33C636.545 447.33 637.216 447.07 637.621 446.55C638.025 446.016 638.228 445.163 638.228 443.993C638.228 443.083 638.054 442.339 637.708 441.761C637.375 441.183 636.754 440.894 635.844 440.894C634.963 440.894 634.32 441.147 633.915 441.652C633.525 442.144 633.323 442.909 633.308 443.95C633.308 443.978 633.308 444.029 633.308 444.101C633.308 444.159 633.308 444.21 633.308 444.253H631.77V443.841C631.77 442.974 631.9 442.23 632.16 441.609C632.434 440.973 632.875 440.482 633.482 440.135C634.088 439.789 634.869 439.615 635.822 439.615C636.747 439.615 637.505 439.803 638.098 440.179C638.69 440.554 639.131 441.074 639.42 441.739C639.709 442.389 639.853 443.14 639.853 443.993C639.853 445.221 639.615 446.175 639.138 446.854C638.676 447.518 638.076 447.937 637.339 448.111C637.773 448.226 638.177 448.457 638.553 448.804C638.943 449.151 639.254 449.635 639.485 450.256C639.73 450.863 639.853 451.629 639.853 452.553C639.853 453.536 639.709 454.41 639.42 455.176C639.145 455.927 638.704 456.512 638.098 456.931C637.491 457.35 636.682 457.559 635.67 457.559Z" fill="#355CB8"/>
<path d="M642.268 457.343V454.959H643.937V457.343H642.268Z" fill="#355CB8"/>
<path d="M650.474 457.559C649.434 457.559 648.61 457.335 648.004 456.888C647.397 456.44 646.963 455.826 646.703 455.046C646.443 454.265 646.313 453.377 646.313 452.38V444.751C646.313 443.74 646.443 442.852 646.703 442.086C646.978 441.306 647.418 440.699 648.025 440.265C648.646 439.832 649.463 439.615 650.474 439.615C651.514 439.615 652.338 439.832 652.945 440.265C653.566 440.699 654.007 441.306 654.267 442.086C654.541 442.852 654.678 443.74 654.678 444.751V452.38C654.678 453.391 654.541 454.287 654.267 455.067C654.007 455.847 653.573 456.461 652.966 456.909C652.36 457.343 651.529 457.559 650.474 457.559ZM650.474 456.302C651.153 456.302 651.673 456.129 652.034 455.782C652.41 455.436 652.67 454.98 652.815 454.417C652.974 453.839 653.053 453.203 653.053 452.51V444.643C653.053 443.935 652.974 443.299 652.815 442.736C652.67 442.158 652.417 441.703 652.056 441.371C651.695 441.038 651.168 440.872 650.474 440.872C649.81 440.872 649.289 441.038 648.914 441.371C648.553 441.703 648.292 442.158 648.134 442.736C647.989 443.299 647.917 443.935 647.917 444.643V452.51C647.917 453.203 647.989 453.839 648.134 454.417C648.292 454.98 648.56 455.436 648.935 455.782C649.311 456.129 649.824 456.302 650.474 456.302Z" fill="#355CB8"/>
<path d="M661.67 457.559C660.63 457.559 659.806 457.335 659.199 456.888C658.592 456.44 658.159 455.826 657.899 455.046C657.639 454.265 657.509 453.377 657.509 452.38V444.751C657.509 443.74 657.639 442.852 657.899 442.086C658.173 441.306 658.614 440.699 659.221 440.265C659.842 439.832 660.658 439.615 661.67 439.615C662.71 439.615 663.534 439.832 664.14 440.265C664.762 440.699 665.202 441.306 665.462 442.086C665.737 442.852 665.874 443.74 665.874 444.751V452.38C665.874 453.391 665.737 454.287 665.462 455.067C665.202 455.847 664.769 456.461 664.162 456.909C663.555 457.343 662.724 457.559 661.67 457.559ZM661.67 456.302C662.349 456.302 662.869 456.129 663.23 455.782C663.606 455.436 663.866 454.98 664.01 454.417C664.169 453.839 664.249 453.203 664.249 452.51V444.643C664.249 443.935 664.169 443.299 664.01 442.736C663.866 442.158 663.613 441.703 663.252 441.371C662.891 441.038 662.363 440.872 661.67 440.872C661.005 440.872 660.485 441.038 660.109 441.371C659.748 441.703 659.488 442.158 659.329 442.736C659.185 443.299 659.112 443.935 659.112 444.643V452.51C659.112 453.203 659.185 453.839 659.329 454.417C659.488 454.98 659.755 455.436 660.131 455.782C660.507 456.129 661.02 456.302 661.67 456.302Z" fill="#355CB8"/>
<path d="M672.865 457.559C671.825 457.559 671.002 457.335 670.395 456.888C669.788 456.44 669.355 455.826 669.095 455.046C668.834 454.265 668.704 453.377 668.704 452.38V444.751C668.704 443.74 668.834 442.852 669.095 442.086C669.369 441.306 669.81 440.699 670.417 440.265C671.038 439.832 671.854 439.615 672.865 439.615C673.906 439.615 674.729 439.832 675.336 440.265C675.957 440.699 676.398 441.306 676.658 442.086C676.932 442.852 677.07 443.74 677.07 444.751V452.38C677.07 453.391 676.932 454.287 676.658 455.067C676.398 455.847 675.964 456.461 675.358 456.909C674.751 457.343 673.92 457.559 672.865 457.559ZM672.865 456.302C673.544 456.302 674.065 456.129 674.426 455.782C674.801 455.436 675.061 454.98 675.206 454.417C675.365 453.839 675.444 453.203 675.444 452.51V444.643C675.444 443.935 675.365 443.299 675.206 442.736C675.061 442.158 674.809 441.703 674.447 441.371C674.086 441.038 673.559 440.872 672.865 440.872C672.201 440.872 671.681 441.038 671.305 441.371C670.944 441.703 670.684 442.158 670.525 442.736C670.38 443.299 670.308 443.935 670.308 444.643V452.51C670.308 453.203 670.38 453.839 670.525 454.417C670.684 454.98 670.951 455.436 671.327 455.782C671.702 456.129 672.215 456.302 672.865 456.302Z" fill="#355CB8"/>
<path d="M683.628 459.25V457.538C682.212 457.509 681.171 457.061 680.507 456.194C679.842 455.327 679.459 454.193 679.358 452.792L680.81 452.358C680.883 453.081 681.013 453.738 681.2 454.33C681.388 454.908 681.684 455.371 682.089 455.717C682.493 456.05 683.05 456.216 683.758 456.216C684.538 456.216 685.145 456.014 685.578 455.609C686.012 455.204 686.228 454.562 686.228 453.68C686.228 452.9 686.033 452.228 685.643 451.665C685.267 451.101 684.747 450.509 684.083 449.888L680.984 446.919C680.622 446.557 680.319 446.196 680.073 445.835C679.842 445.459 679.669 445.069 679.553 444.665C679.438 444.26 679.38 443.834 679.38 443.386C679.38 442.216 679.719 441.306 680.399 440.655C681.078 440.005 681.981 439.659 683.108 439.615V437.795H683.801V439.615C684.364 439.659 684.863 439.774 685.296 439.962C685.744 440.135 686.127 440.403 686.445 440.764C686.763 441.111 687.008 441.558 687.182 442.107C687.37 442.642 687.492 443.292 687.55 444.058L686.142 444.426C686.084 443.69 685.961 443.061 685.773 442.541C685.6 442.006 685.318 441.595 684.928 441.306C684.552 441.017 684.025 440.887 683.346 440.916C682.624 440.944 682.031 441.139 681.569 441.501C681.106 441.862 680.875 442.44 680.875 443.234C680.875 443.711 680.969 444.145 681.157 444.535C681.345 444.925 681.663 445.344 682.111 445.792L685.21 448.717C685.672 449.151 686.091 449.62 686.467 450.126C686.857 450.617 687.167 451.152 687.399 451.73C687.644 452.293 687.767 452.907 687.767 453.572C687.767 454.381 687.622 455.067 687.333 455.631C687.045 456.194 686.64 456.635 686.12 456.953C685.6 457.27 684.993 457.458 684.299 457.516V459.25H683.628Z" fill="#355CB8"/>
<path d="M582.507 356.865C582.507 373.595 596.504 372.72 596.504 391.2C596.504 396.23 600.55 400.276 605.58 400.276H609.188" stroke="#011635" stroke-width="1.5" stroke-miterlimit="10" stroke-linecap="round" stroke-linejoin="round"/>
<path d="M582.508 350.631C584.257 350.631 585.569 352.053 585.569 353.693C585.569 355.443 584.148 356.755 582.508 356.755C580.758 356.755 579.446 355.333 579.446 353.693C579.446 352.053 580.758 350.631 582.508 350.631Z" fill="#011635" stroke="#011635" stroke-width="1.5" stroke-miterlimit="10" stroke-linecap="round" stroke-linejoin="round"/>
<path d="M612.25 397.213C614 397.213 615.312 398.635 615.312 400.275C615.312 402.025 613.89 403.337 612.25 403.337C610.501 403.337 609.188 401.915 609.188 400.275C609.188 398.525 610.61 397.213 612.25 397.213Z" fill="#011635" stroke="#011635" stroke-width="1.5" stroke-miterlimit="10" stroke-linecap="round" stroke-linejoin="round"/>
<path d="M236.206 652.548H121.391C115.377 652.548 110.457 647.628 110.457 641.613V526.799C110.457 520.785 115.377 515.864 121.391 515.864H236.206C242.22 515.864 247.14 520.785 247.14 526.799V641.613C247.14 647.628 242.22 652.548 236.206 652.548Z" fill="#011635" stroke="#011635" stroke-width="1.5" stroke-miterlimit="10" stroke-linecap="round" stroke-linejoin="round"/>
<path d="M236.206 647.082H121.391C115.377 647.082 110.457 642.161 110.457 636.147V521.333C110.457 515.319 115.377 510.398 121.391 510.398H236.206C242.22 510.398 247.14 515.319 247.14 521.333V636.147C247.14 642.161 242.22 647.082 236.206 647.082Z" fill="#92D5F4" stroke="#011635" stroke-width="1.5" stroke-miterlimit="10" stroke-linecap="round" stroke-linejoin="round"/>
<path d="M240.979 636.439L240.979 520.859H116.652L116.652 636.439H240.979Z" fill="#86D1F4"/>
<path d="M233.325 628.785L233.325 528.514H124.306L124.306 628.785H233.325Z" fill="#79CCF2"/>
<path d="M225.671 621.132L225.671 536.17H131.961V621.132H225.671Z" fill="#61C3ED"/>
<path d="M217.945 543.857H139.543V613.511H217.945V543.857Z" fill="white" stroke="#011635" stroke-width="1.5" stroke-miterlimit="10" stroke-linecap="round" stroke-linejoin="round"/>
<path d="M212.55 608.008V549.288H145.083V608.008H212.55Z" fill="#EDF490"/>
<path d="M178.799 602.686C192.024 602.686 202.746 591.964 202.746 578.739C202.746 565.513 192.024 554.792 178.799 554.792C165.573 554.792 154.852 565.513 154.852 578.739C154.852 591.964 165.573 602.686 178.799 602.686Z" fill="white" stroke="#011635" stroke-width="1.5" stroke-miterlimit="10" stroke-linecap="round" stroke-linejoin="round"/>
<path d="M178.799 560.367L170.598 577.534L178.799 580.159L187 577.534L178.799 560.367Z" fill="#9D90F4"/>
<path d="M178.799 597L187 579.833L178.799 582.457L170.598 579.833L178.799 597Z" fill="#9D90F4"/>
<path d="M96.788 513.565H11.9347C5.92062 513.565 1 508.645 1 502.631V478.246C1 472.232 5.92062 467.312 11.9347 467.312H96.788C102.802 467.312 107.723 472.232 107.723 478.246V502.631C107.723 508.645 102.802 513.565 96.788 513.565Z" fill="#011635" stroke="#011635" stroke-width="1.5" stroke-miterlimit="10" stroke-linecap="round" stroke-linejoin="round"/>
<path d="M96.788 508.099H11.9347C5.92062 508.099 1 503.178 1 497.164V472.78C1 466.766 5.92062 461.845 11.9347 461.845H96.788C102.802 461.845 107.723 466.766 107.723 472.78V497.164C107.723 503.178 102.802 508.099 96.788 508.099Z" fill="white" stroke="#011635" stroke-width="1.5" stroke-miterlimit="10" stroke-linecap="round" stroke-linejoin="round"/>
<path d="M96.8223 497.181V472.797H11.969V497.181H96.8223Z" fill="#EDF490"/>
<path d="M43.9473 492.839V479.464H47.2331C47.8275 479.464 48.3614 479.519 48.8348 479.629C49.3191 479.739 49.7319 479.927 50.0731 480.191C50.4254 480.444 50.6951 480.791 50.8822 481.231C51.0694 481.671 51.1629 482.227 51.1629 482.899C51.1629 483.438 51.0859 483.9 50.9318 484.286C50.7887 484.671 50.574 484.979 50.2878 485.21C50.0016 485.43 49.6438 485.579 49.2145 485.656C49.7429 485.744 50.1777 485.931 50.519 486.218C50.8712 486.493 51.1299 486.856 51.295 487.307C51.4711 487.759 51.5592 488.304 51.5592 488.942C51.5592 489.58 51.4766 490.147 51.3115 490.643C51.1574 491.127 50.9207 491.534 50.6015 491.865C50.2933 492.184 49.9025 492.426 49.4292 492.591C48.9669 492.756 48.422 492.839 47.7945 492.839H43.9473ZM46.391 491.122H47.3157C48.0532 491.122 48.5541 490.945 48.8182 490.593C49.0824 490.23 49.2145 489.674 49.2145 488.925C49.2145 488.386 49.1485 487.951 49.0164 487.621C48.8953 487.28 48.6862 487.027 48.3889 486.862C48.1027 486.696 47.7175 486.614 47.2331 486.614H46.391V491.122ZM46.391 484.93H47.2166C47.7009 484.93 48.0752 484.858 48.3394 484.715C48.6036 484.572 48.7852 484.352 48.8843 484.055C48.9944 483.757 49.0494 483.383 49.0494 482.932C49.0494 482.458 48.9669 482.095 48.8017 481.842C48.6476 481.578 48.411 481.402 48.0917 481.314C47.7725 481.214 47.3652 481.165 46.8699 481.165H46.391V484.93Z" fill="#011635"/>
<path d="M53.2044 492.839V479.464H55.6152V492.839H53.2044Z" fill="#011635"/>
<path d="M57.6856 492.839V479.464H60.8393C61.9291 479.464 62.7767 479.613 63.3822 479.91C63.9986 480.207 64.4334 480.664 64.6866 481.281C64.9508 481.897 65.0829 482.679 65.0829 483.625V488.513C65.0829 489.481 64.9508 490.29 64.6866 490.94C64.4334 491.578 64.0041 492.057 63.3987 492.376C62.8043 492.685 61.9842 492.839 60.9384 492.839H57.6856ZM60.1293 491.138H60.8724C61.4338 491.138 61.8356 491.039 62.0777 490.841C62.3199 490.643 62.4685 490.357 62.5236 489.982C62.5786 489.597 62.6061 489.129 62.6061 488.579V483.46C62.6061 482.921 62.5676 482.486 62.4905 482.156C62.4135 481.825 62.2539 481.583 62.0117 481.429C61.7695 481.275 61.3787 481.198 60.8393 481.198H60.1293V491.138Z" fill="#011635"/>
<path d="M27.3442 565.009V549.579C27.2575 549.709 27.0842 549.839 26.8241 549.969C26.564 550.099 26.2751 550.215 25.9572 550.316C25.6538 550.417 25.3721 550.511 25.112 550.598C24.8664 550.67 24.7075 550.713 24.6353 550.728V549.449C24.8375 549.391 25.0759 549.305 25.3504 549.189C25.6249 549.074 25.8994 548.936 26.1739 548.777C26.4485 548.604 26.7157 548.409 26.9758 548.192C27.2503 547.975 27.4815 547.73 27.6693 547.455H28.9479V565.009H27.3442Z" fill="#233C82"/>
<path d="M32.9613 565.009V562.626H34.63V565.009H32.9613Z" fill="#233C82"/>
<path d="M40.7992 565.205C39.86 565.205 39.1015 565.024 38.5236 564.663C37.9602 564.302 37.5484 563.767 37.2883 563.059C37.0283 562.351 36.8982 561.491 36.8982 560.48H38.4803C38.4803 561.188 38.5525 561.802 38.697 562.322C38.8415 562.842 39.0871 563.24 39.4338 563.514C39.7806 563.789 40.2574 563.926 40.8642 563.926C41.5288 563.926 42.0344 563.76 42.3812 563.427C42.7279 563.081 42.9663 562.575 43.0964 561.91C43.2264 561.246 43.2914 560.429 43.2914 559.461C43.2914 558.392 43.2119 557.54 43.053 556.904C42.9085 556.269 42.6557 555.813 42.2945 555.539C41.9478 555.25 41.4782 555.105 40.8858 555.105C40.438 555.105 40.019 555.228 39.6289 555.474C39.2388 555.72 38.8993 556.081 38.6103 556.557H37.2883V547.455H44.1149L44.0933 548.951H38.697L38.6103 555.04C38.8704 554.708 39.2171 554.434 39.6505 554.217C40.0984 553.986 40.6475 553.87 41.2976 553.87C42.1645 553.87 42.858 554.087 43.3781 554.52C43.9127 554.939 44.2955 555.553 44.5267 556.362C44.7579 557.172 44.8734 558.14 44.8734 559.266C44.8734 560.206 44.8012 561.044 44.6567 561.78C44.5122 562.517 44.2739 563.146 43.9416 563.666C43.6237 564.171 43.2047 564.554 42.6846 564.814C42.1789 565.074 41.5504 565.205 40.7992 565.205Z" fill="#233C82"/>
<path d="M51.4955 565.226C50.4553 565.226 49.6317 565.002 49.0249 564.554C48.4181 564.106 47.9847 563.492 47.7246 562.712C47.4646 561.932 47.3345 561.044 47.3345 560.047V552.418C47.3345 551.407 47.4646 550.518 47.7246 549.753C47.9991 548.972 48.4398 548.366 49.0466 547.932C49.6679 547.499 50.4842 547.282 51.4955 547.282C52.5358 547.282 53.3593 547.499 53.9661 547.932C54.5873 548.366 55.028 548.972 55.2881 549.753C55.5626 550.518 55.6998 551.407 55.6998 552.418V560.047C55.6998 561.058 55.5626 561.954 55.2881 562.734C55.028 563.514 54.5946 564.128 53.9878 564.576C53.3809 565.009 52.5502 565.226 51.4955 565.226ZM51.4955 563.969C52.1746 563.969 52.6947 563.796 53.0559 563.449C53.4315 563.102 53.6916 562.647 53.8361 562.084C53.995 561.506 54.0744 560.87 54.0744 560.177V552.31C54.0744 551.602 53.995 550.966 53.8361 550.403C53.6916 549.825 53.4387 549.37 53.0775 549.037C52.7164 548.705 52.189 548.539 51.4955 548.539C50.8309 548.539 50.3108 548.705 49.9351 549.037C49.5739 549.37 49.3139 549.825 49.155 550.403C49.0105 550.966 48.9382 551.602 48.9382 552.31V560.177C48.9382 560.87 49.0105 561.506 49.155 562.084C49.3139 562.647 49.5812 563.102 49.9568 563.449C50.3325 563.796 50.8454 563.969 51.4955 563.969Z" fill="#233C82"/>
<path d="M62.6912 565.226C61.6509 565.226 60.8274 565.002 60.2206 564.554C59.6138 564.106 59.1803 563.492 58.9203 562.712C58.6602 561.932 58.5302 561.044 58.5302 560.047V552.418C58.5302 551.407 58.6602 550.518 58.9203 549.753C59.1948 548.972 59.6354 548.366 60.2423 547.932C60.8635 547.499 61.6798 547.282 62.6912 547.282C63.7314 547.282 64.5549 547.499 65.1617 547.932C65.783 548.366 66.2237 548.972 66.4837 549.753C66.7582 550.518 66.8955 551.407 66.8955 552.418V560.047C66.8955 561.058 66.7582 561.954 66.4837 562.734C66.2237 563.514 65.7902 564.128 65.1834 564.576C64.5766 565.009 63.7459 565.226 62.6912 565.226ZM62.6912 563.969C63.3702 563.969 63.8903 563.796 64.2515 563.449C64.6272 563.102 64.8872 562.647 65.0317 562.084C65.1906 561.506 65.2701 560.87 65.2701 560.177V552.31C65.2701 551.602 65.1906 550.966 65.0317 550.403C64.8872 549.825 64.6344 549.37 64.2732 549.037C63.912 548.705 63.3847 548.539 62.6912 548.539C62.0266 548.539 61.5064 548.705 61.1308 549.037C60.7696 549.37 60.5095 549.825 60.3506 550.403C60.2061 550.966 60.1339 551.602 60.1339 552.31V560.177C60.1339 560.87 60.2061 561.506 60.3506 562.084C60.5095 562.647 60.7768 563.102 61.1525 563.449C61.5281 563.796 62.041 563.969 62.6912 563.969Z" fill="#233C82"/>
<path d="M73.4534 566.917V565.205C72.0375 565.176 70.9972 564.728 70.3326 563.861C69.668 562.994 69.2852 561.86 69.184 560.458L70.6361 560.025C70.7083 560.747 70.8383 561.405 71.0261 561.997C71.214 562.575 71.5101 563.037 71.9147 563.384C72.3192 563.716 72.8755 563.883 73.5834 563.883C74.3636 563.883 74.9704 563.68 75.4038 563.276C75.8373 562.871 76.054 562.228 76.054 561.347C76.054 560.567 75.8589 559.895 75.4688 559.331C75.0932 558.768 74.5731 558.176 73.9085 557.554L70.8094 554.585C70.4482 554.224 70.1448 553.863 69.8992 553.502C69.668 553.126 69.4947 552.736 69.3791 552.331C69.2635 551.927 69.2057 551.501 69.2057 551.053C69.2057 549.883 69.5452 548.972 70.2243 548.322C70.9033 547.672 71.8063 547.325 72.9333 547.282V545.462H73.6268V547.282C74.1902 547.325 74.6887 547.441 75.1221 547.629C75.57 547.802 75.9529 548.069 76.2707 548.431C76.5886 548.777 76.8342 549.225 77.0075 549.774C77.1954 550.309 77.3182 550.959 77.376 551.725L75.9673 552.093C75.9095 551.356 75.7867 550.728 75.5989 550.208C75.4255 549.673 75.1438 549.261 74.7537 548.972C74.378 548.683 73.8507 548.553 73.1716 548.582C72.4493 548.611 71.8569 548.806 71.3946 549.167C70.9322 549.529 70.7011 550.107 70.7011 550.901C70.7011 551.378 70.795 551.811 70.9828 552.201C71.1706 552.592 71.4885 553.011 71.9364 553.458L75.0354 556.384C75.4977 556.818 75.9167 557.287 76.2924 557.793C76.6825 558.284 76.9931 558.819 77.2243 559.396C77.4699 559.96 77.5927 560.574 77.5927 561.239C77.5927 562.048 77.4482 562.734 77.1592 563.297C76.8703 563.861 76.4658 564.302 75.9456 564.619C75.4255 564.937 74.8187 565.125 74.1252 565.183V566.917H73.4534Z" fill="#233C82"/>
<path d="M24.7656 539.905V538.735L29.4901 531.497C29.8368 530.962 30.1619 530.449 30.4653 529.958C30.7687 529.452 31.0143 528.925 31.2021 528.376C31.4044 527.827 31.5055 527.206 31.5055 526.512C31.5055 525.573 31.3105 524.836 30.9204 524.302C30.5448 523.767 29.9596 523.5 29.165 523.5C28.457 523.5 27.908 523.659 27.5179 523.976C27.1278 524.294 26.8533 524.735 26.6944 525.298C26.5499 525.847 26.4777 526.469 26.4777 527.162V527.552H24.8957V527.119C24.8957 526.035 25.0401 525.132 25.3291 524.41C25.618 523.673 26.0659 523.117 26.6727 522.741C27.294 522.366 28.1031 522.178 29.1 522.178C30.4292 522.178 31.4261 522.575 32.0907 523.37C32.7553 524.15 33.0876 525.241 33.0876 526.642C33.0876 527.35 32.9864 528 32.7842 528.593C32.5819 529.185 32.3218 529.756 32.004 530.305C31.6861 530.839 31.3538 531.381 31.0071 531.93L26.6294 538.562H32.7192V539.905H24.7656Z" fill="#355CB8"/>
<path d="M35.5224 539.905V537.521H37.1911V539.905H35.5224Z" fill="#355CB8"/>
<path d="M43.7287 540.122C42.6885 540.122 41.865 539.898 41.2582 539.45C40.6513 539.002 40.2179 538.388 39.9578 537.608C39.6978 536.828 39.5678 535.939 39.5678 534.942V527.314C39.5678 526.303 39.6978 525.414 39.9578 524.648C40.2324 523.868 40.673 523.261 41.2798 522.828C41.9011 522.394 42.7174 522.178 43.7287 522.178C44.769 522.178 45.5925 522.394 46.1993 522.828C46.8206 523.261 47.2612 523.868 47.5213 524.648C47.7958 525.414 47.933 526.303 47.933 527.314V534.942C47.933 535.954 47.7958 536.849 47.5213 537.63C47.2612 538.41 46.8278 539.024 46.221 539.472C45.6142 539.905 44.7834 540.122 43.7287 540.122ZM43.7287 538.865C44.4078 538.865 44.9279 538.692 45.2891 538.345C45.6647 537.998 45.9248 537.543 46.0693 536.98C46.2282 536.402 46.3077 535.766 46.3077 535.072V527.206C46.3077 526.498 46.2282 525.862 46.0693 525.298C45.9248 524.721 45.672 524.265 45.3108 523.933C44.9496 523.601 44.4222 523.435 43.7287 523.435C43.0641 523.435 42.544 523.601 42.1684 523.933C41.8072 524.265 41.5471 524.721 41.3882 525.298C41.2437 525.862 41.1715 526.498 41.1715 527.206V535.072C41.1715 535.766 41.2437 536.402 41.3882 536.98C41.5471 537.543 41.8144 537.998 42.19 538.345C42.5657 538.692 43.0786 538.865 43.7287 538.865Z" fill="#355CB8"/>
<path d="M54.9244 540.122C53.8841 540.122 53.0606 539.898 52.4538 539.45C51.847 539.002 51.4136 538.388 51.1535 537.608C50.8934 536.828 50.7634 535.939 50.7634 534.942V527.314C50.7634 526.303 50.8934 525.414 51.1535 524.648C51.428 523.868 51.8687 523.261 52.4755 522.828C53.0967 522.394 53.913 522.178 54.9244 522.178C55.9646 522.178 56.7882 522.394 57.395 522.828C58.0162 523.261 58.4569 523.868 58.7169 524.648C58.9914 525.414 59.1287 526.303 59.1287 527.314V534.942C59.1287 535.954 58.9914 536.849 58.7169 537.63C58.4569 538.41 58.0234 539.024 57.4166 539.472C56.8098 539.905 55.9791 540.122 54.9244 540.122ZM54.9244 538.865C55.6034 538.865 56.1236 538.692 56.4847 538.345C56.8604 537.998 57.1205 537.543 57.2649 536.98C57.4239 536.402 57.5033 535.766 57.5033 535.072V527.206C57.5033 526.498 57.4239 525.862 57.2649 525.298C57.1205 524.721 56.8676 524.265 56.5064 523.933C56.1452 523.601 55.6179 523.435 54.9244 523.435C54.2598 523.435 53.7397 523.601 53.364 523.933C53.0028 524.265 52.7428 524.721 52.5838 525.298C52.4394 525.862 52.3671 526.498 52.3671 527.206V535.072C52.3671 535.766 52.4394 536.402 52.5838 536.98C52.7428 537.543 53.01 537.998 53.3857 538.345C53.7613 538.692 54.2742 538.865 54.9244 538.865Z" fill="#355CB8"/>
<path d="M66.12 540.122C65.0798 540.122 64.2563 539.898 63.6495 539.45C63.0426 539.002 62.6092 538.388 62.3492 537.608C62.0891 536.828 61.9591 535.939 61.9591 534.942V527.314C61.9591 526.303 62.0891 525.414 62.3492 524.648C62.6237 523.868 63.0643 523.261 63.6711 522.828C64.2924 522.394 65.1087 522.178 66.12 522.178C67.1603 522.178 67.9838 522.394 68.5906 522.828C69.2119 523.261 69.6525 523.868 69.9126 524.648C70.1871 525.414 70.3244 526.303 70.3244 527.314V534.942C70.3244 535.954 70.1871 536.849 69.9126 537.63C69.6525 538.41 69.2191 539.024 68.6123 539.472C68.0055 539.905 67.1747 540.122 66.12 540.122ZM66.12 538.865C66.7991 538.865 67.3192 538.692 67.6804 538.345C68.056 537.998 68.3161 537.543 68.4606 536.98C68.6195 536.402 68.699 535.766 68.699 535.072V527.206C68.699 526.498 68.6195 525.862 68.4606 525.298C68.3161 524.721 68.0633 524.265 67.7021 523.933C67.3409 523.601 66.8135 523.435 66.12 523.435C65.4554 523.435 64.9353 523.601 64.5597 523.933C64.1985 524.265 63.9384 524.721 63.7795 525.298C63.635 525.862 63.5628 526.498 63.5628 527.206V535.072C63.5628 535.766 63.635 536.402 63.7795 536.98C63.9384 537.543 64.2057 537.998 64.5813 538.345C64.957 538.692 65.4699 538.865 66.12 538.865Z" fill="#355CB8"/>
<path d="M76.8823 541.812V540.1C75.4664 540.071 74.4261 539.623 73.7615 538.757C73.0969 537.89 72.7141 536.756 72.6129 535.354L74.0649 534.921C74.1372 535.643 74.2672 536.3 74.455 536.893C74.6428 537.471 74.939 537.933 75.3436 538.28C75.7481 538.612 76.3043 538.778 77.0123 538.778C77.7925 538.778 78.3993 538.576 78.8327 538.171C79.2661 537.767 79.4829 537.124 79.4829 536.243C79.4829 535.463 79.2878 534.791 78.8977 534.227C78.5221 533.664 78.002 533.071 77.3374 532.45L74.2383 529.481C73.8771 529.12 73.5737 528.759 73.3281 528.398C73.0969 528.022 72.9235 527.632 72.808 527.227C72.6924 526.823 72.6346 526.396 72.6346 525.949C72.6346 524.778 72.9741 523.868 73.6532 523.218C74.3322 522.568 75.2352 522.221 76.3621 522.178V520.357H77.0556V522.178C77.6191 522.221 78.1175 522.337 78.551 522.524C78.9989 522.698 79.3817 522.965 79.6996 523.326C80.0174 523.673 80.263 524.121 80.4364 524.67C80.6242 525.205 80.747 525.855 80.8048 526.62L79.3962 526.989C79.3384 526.252 79.2156 525.624 79.0278 525.103C78.8544 524.569 78.5726 524.157 78.1826 523.868C77.8069 523.579 77.2796 523.449 76.6005 523.478C75.8781 523.507 75.2858 523.702 74.8234 524.063C74.3611 524.424 74.1299 525.002 74.1299 525.797C74.1299 526.274 74.2239 526.707 74.4117 527.097C74.5995 527.487 74.9173 527.906 75.3652 528.354L78.4643 531.28C78.9266 531.713 79.3456 532.183 79.7212 532.689C80.1113 533.18 80.422 533.714 80.6531 534.292C80.8987 534.856 81.0215 535.47 81.0215 536.134C81.0215 536.943 80.8771 537.63 80.5881 538.193C80.2992 538.757 79.8946 539.197 79.3745 539.515C78.8544 539.833 78.2476 540.021 77.5541 540.079V541.812H76.8823Z" fill="#355CB8"/>
<path d="M124.781 514.656C123.141 514.656 121.829 515.969 121.829 517.609C121.829 519.249 123.141 520.561 124.781 520.561C126.421 520.561 127.733 519.249 127.733 517.609C127.733 515.969 126.312 514.656 124.781 514.656Z" fill="#011635" stroke="#011635" stroke-width="1.5" stroke-miterlimit="10" stroke-linecap="round" stroke-linejoin="round"/>
<path d="M103.239 484.258C101.599 484.258 100.287 485.57 100.287 487.211C100.287 488.851 101.599 490.163 103.239 490.163C104.88 490.163 106.192 488.851 106.192 487.211C106.192 485.57 104.88 484.258 103.239 484.258Z" fill="#011635" stroke="#011635" stroke-width="1.5" stroke-miterlimit="10" stroke-linecap="round" stroke-linejoin="round"/>
<path d="M124.781 517.61C124.781 517.61 131.451 492.241 103.239 487.211" stroke="#011635" stroke-width="1.5" stroke-miterlimit="10" stroke-linecap="round" stroke-linejoin="round"/>
<path d="M428.51 569.489L401.851 577.445" stroke="#355CB8" stroke-width="1.5" stroke-miterlimit="10" stroke-linecap="round" stroke-linejoin="round"/>
<path d="M575.712 350.391C575.712 346.735 573.008 343.51 569.53 343.51C566.246 343.51 563.349 346.52 563.349 350.391C563.349 354.046 566.053 357.271 569.53 357.271C572.814 357.271 575.712 354.046 575.712 350.391Z" stroke="#355CB8" stroke-width="1.5" stroke-miterlimit="10" stroke-linecap="round" stroke-linejoin="round"/>
</svg>
