<svg width="468" height="486" viewBox="0 0 468 486" fill="none" xmlns="http://www.w3.org/2000/svg">
<g clip-path="url(#clip0_3_550)">
<path d="M57.748 185.69C59.9651 188.748 63.5545 188.959 67.2495 190.013C68.9387 190.435 70.6278 190.962 72.317 191.595C69.8888 191.701 67.2495 191.911 64.7158 192.228C61.9709 191.595 58.5926 190.752 55.9533 190.33C52.2583 189.697 46.7686 189.275 46.0296 193.177C45.5017 196.024 47.8243 197.5 50.4636 197.606C53.8419 197.816 56.4812 196.129 59.7539 194.548C61.2319 193.81 62.8155 193.071 64.3991 192.544C64.6102 192.544 65.5604 192.333 65.6659 192.333H65.7715C67.5662 192.122 69.4665 191.911 71.2612 191.911C68.8331 192.439 65.7715 193.388 63.5545 194.126C59.9651 195.286 54.8976 198.449 57.4313 202.351C59.3316 205.303 62.4988 204.038 64.8214 202.772C67.6718 201.191 68.7275 198.871 70.3111 195.813C70.6278 195.18 71.6835 192.65 72.6337 192.017C72.7392 192.017 72.8448 192.017 73.056 192.017C73.1615 192.017 73.1615 192.017 73.1615 192.122V192.017C76.5398 191.911 80.0237 192.122 83.402 192.544L84.141 192.65C81.5017 193.704 78.7568 194.864 76.2231 196.129C73.056 197.711 68.8331 201.507 71.7891 204.987C74.0061 207.517 76.8565 206.147 78.7568 204.565C81.185 202.667 81.8184 200.136 82.7686 196.973C82.9797 196.235 83.402 193.493 84.2466 192.65C84.2466 192.65 84.2466 192.65 84.3522 192.65C84.4577 192.65 84.3522 192.755 84.4577 192.755C84.5633 192.755 84.4577 192.65 84.4577 192.65C86.2524 192.966 88.0472 193.388 89.8419 193.915C91.531 194.548 93.1146 195.708 94.8038 196.657C92.4812 196.867 90.2642 197.395 88.1527 198.238C84.9856 199.504 80.3404 202.772 82.3463 206.568C83.8243 209.415 86.6747 208.677 88.6806 207.517C91.2143 206.041 92.0589 203.616 93.3258 200.769C93.6425 200.136 94.3815 197.711 95.1205 196.973C97.6542 198.344 99.9768 199.82 102.616 201.191C100.399 201.718 98.2876 202.562 96.3873 203.511C93.5369 205.092 90.792 208.994 93.009 212.368C94.5926 214.899 97.1263 214.161 98.8155 212.684C100.927 210.786 101.138 208.466 101.772 205.409C101.877 204.67 102.088 202.034 102.827 201.191C105.783 202.667 108.634 204.038 111.906 204.46V204.565L112.012 204.46C112.012 204.46 112.329 204.354 112.223 204.46C110.323 205.936 108.423 206.568 106.311 208.045C103.777 209.943 101.666 213.95 104.305 217.113C106.311 219.433 108.845 217.957 110.217 216.164C111.906 213.95 111.906 211.735 111.906 208.677C111.906 207.939 111.695 205.303 112.329 204.354C116.129 204.354 120.035 203.932 123.73 203.089L123.519 202.772C119.824 203.721 116.024 204.038 112.223 204.038C113.384 202.034 114.44 199.925 115.285 197.711C116.446 194.442 116.763 189.17 112.857 187.166C109.901 185.69 108.211 187.799 107.895 190.435C107.472 193.704 108.845 196.34 110.323 199.714C110.64 200.453 112.012 202.983 112.012 204.038C108.845 203.827 105.889 202.245 103.038 200.874C104.2 198.871 105.255 196.762 106.1 194.653C107.367 191.384 107.261 186.112 103.355 184.108C100.505 182.632 98.4988 184.53 98.2876 187.166C97.9709 190.435 99.5545 192.65 101.033 195.918C101.349 196.657 102.933 199.504 102.933 200.769C100.505 199.609 98.1821 198.027 95.7539 196.762C95.7539 196.973 95.6483 197.184 95.7539 196.34C96.0706 193.915 96.2818 191.49 96.3873 189.064C96.2818 186.112 94.0648 180.418 89.6307 180.312C86.358 180.207 85.3023 182.738 86.358 185.268C87.6249 188.537 90.053 189.592 92.5868 192.228C93.2202 192.966 95.6483 195.18 95.7539 196.657C93.9592 195.708 92.1645 194.442 90.2642 193.704C88.4695 193.071 86.6747 192.65 84.7744 192.333C84.88 190.119 84.6689 187.799 84.3522 185.585C83.6132 181.789 80.446 177.676 76.012 177.887C72.7392 177.993 71.578 180.629 72.8448 183.265C74.3228 186.639 77.1733 187.588 80.3404 189.592C80.9739 190.013 83.6132 191.279 84.3522 192.228C84.141 192.228 83.9299 192.228 83.8243 192.122C80.3404 191.701 76.8565 191.49 73.3727 191.595C72.5281 189.381 71.4724 187.166 70.3111 185.058C68.3052 181.578 63.8712 178.098 59.7539 179.469C56.3756 180.523 56.0589 183.265 57.748 185.69Z" fill="#651FFF"/>
<path d="M124.892 232.719C127.425 229.345 129.642 225.76 131.331 221.964L131.015 221.436C129.22 225.338 127.003 229.134 124.364 232.508C123.202 229.872 121.936 227.341 120.352 224.811C117.924 221.225 113.068 217.113 108.211 219.433C104.622 221.225 105.466 224.494 107.789 226.709C110.639 229.45 114.334 230.083 118.663 231.137C119.613 231.348 122.991 231.875 124.153 232.614C121.619 235.566 117.924 237.253 114.44 239.151C113.384 236.515 112.012 233.984 110.534 231.559C108.211 227.974 103.038 224.178 98.1819 226.498C94.5925 228.29 95.1204 231.559 97.4429 233.668C100.399 236.304 103.777 236.41 108 237.464C108.95 237.675 112.962 238.202 114.123 239.151C111.167 240.627 107.895 241.893 104.939 243.264C105.15 243.475 105.255 243.685 104.411 242.947C102.299 240.838 100.082 238.835 97.7596 237.042C94.8036 234.933 87.5192 233.035 84.1409 237.253C81.6072 240.417 83.4019 243.264 86.6746 244.107C90.7919 245.267 93.6423 243.58 98.0764 243.053C99.2377 242.947 103.249 242.209 104.727 243.158C102.51 244.213 99.8711 245.056 97.7596 246.322C95.8594 247.692 94.0646 249.169 92.3755 250.75C89.8418 248.958 88.5749 247.692 85.4077 246.216C81.0793 244.107 74.745 244.213 71.6834 248.747C69.4664 252.121 71.1555 255.074 74.6394 255.917C79.0734 256.866 82.0294 254.863 86.3579 253.281C87.2025 252.965 90.4752 251.383 91.8476 251.278C91.7421 251.383 91.5309 251.594 91.4253 251.805C88.4693 254.863 85.7245 258.237 83.2963 261.717C80.4459 260.979 77.5954 260.346 74.6394 259.924C69.6775 259.291 63.1321 261.189 61.4429 266.251C60.1761 269.941 62.7098 272.261 66.4048 272.367C71.05 272.472 73.9004 268.992 77.5954 266.251C79.179 264.88 80.9737 263.615 82.7684 262.455C81.0793 264.985 79.3901 267.622 77.8066 270.363C75.1673 272.472 71.8945 275.319 69.572 277.639C66.1937 280.802 61.8652 285.864 65.1379 289.449C67.5661 292.085 70.6277 290.82 72.7391 288.394C75.3784 285.337 75.8007 281.435 76.6453 277.112C76.962 275.108 77.4899 273.105 78.0177 271.101C78.1233 270.89 78.6511 269.836 78.7567 269.731V269.625C79.918 267.622 81.0793 265.724 82.3462 263.826C81.0793 266.567 79.7069 270.258 78.8623 272.999C77.3843 277.428 76.7508 284.598 82.5573 285.02C86.7802 285.337 87.9415 281.224 88.3637 278.061C88.8916 274.054 87.308 271.418 85.5133 267.622C85.091 266.778 83.5074 263.931 83.4019 262.56C83.4019 262.455 83.613 262.244 83.613 262.138C83.7186 262.138 83.7186 262.033 83.8242 262.033H83.7186C86.1467 258.659 88.786 255.39 91.7421 252.332C91.9532 252.121 92.1643 251.91 92.4811 251.699C91.6365 255.074 90.6863 258.659 90.0529 262.033C89.3139 266.356 89.9473 273.316 95.5426 272.894C99.6599 272.578 100.399 268.782 100.293 265.724C100.188 261.928 98.1819 259.502 95.7538 256.233C95.1203 255.39 92.7978 253.07 92.5866 251.594V251.488H92.9033L92.7978 251.383C94.4869 249.907 96.2816 248.43 98.0764 247.165C99.9767 246.005 102.299 245.267 104.411 244.213C102.933 246.638 101.877 249.169 101.138 251.91C99.9767 255.917 99.8711 262.877 105.044 263.72C108.845 264.353 110.217 260.979 110.534 258.132C110.956 254.441 109.161 251.91 107.261 248.641C106.839 247.903 105.044 245.373 104.833 244.107C108 242.631 111.273 241.366 114.44 239.889C113.384 242.42 112.645 245.056 112.223 247.798C111.695 251.699 113.49 257.393 118.452 257.604C122.041 257.815 123.308 254.863 122.991 252.121C122.675 248.641 120.563 246.743 118.029 244.002C117.396 243.369 114.862 241.155 114.651 239.889C118.241 237.991 121.724 236.304 124.575 233.352C124.575 233.352 124.575 233.457 124.68 233.457C124.786 233.457 124.68 233.352 124.68 233.352C124.68 233.352 124.786 233.035 124.786 233.141C124.892 236.093 124.153 238.308 124.047 241.577C123.941 245.478 126.475 250.539 131.437 250.223C135.132 250.012 135.554 246.427 134.815 243.791C133.865 240.417 131.754 238.94 128.798 236.621C128.059 235.672 125.314 233.984 124.892 232.719Z" fill="#651FFF"/>
<path d="M423.66 101.439C420.915 98.8028 417.326 99.3301 413.525 98.9083C411.731 98.8028 410.041 98.5919 408.247 98.2756C410.675 97.7484 413.209 97.0103 415.531 96.2721C418.382 96.483 421.865 96.5885 424.505 96.483C428.305 96.483 433.689 95.8504 433.689 91.9489C433.689 88.9964 431.156 88.0474 428.516 88.3637C425.244 88.7855 422.816 90.8944 419.965 93.0033C418.698 94.0578 417.22 95.0068 415.848 95.7449C415.637 95.8504 414.792 96.0612 414.581 96.1667H414.475C412.681 96.6939 410.886 97.2212 409.091 97.6429C411.414 96.6939 414.264 95.2177 416.27 94.1632C419.543 92.3706 423.977 88.3637 420.704 84.9894C418.276 82.4587 415.426 84.2513 413.42 85.9384C410.886 88.0474 410.358 90.4726 409.302 93.7414C409.091 94.4796 408.458 97.1157 407.719 97.9593C407.719 98.0647 407.402 98.0647 407.402 98.0647C407.297 98.0647 407.297 98.0647 407.191 97.9593V98.0647C403.813 98.8028 400.434 99.2246 397.056 99.4355H396.211C398.64 97.9593 401.173 96.2721 403.39 94.585C406.241 92.4761 409.725 87.9419 406.135 84.9894C403.496 82.8805 400.962 84.7785 399.273 86.6766C397.162 88.9964 397.056 91.5271 396.739 94.9013C396.634 95.7449 396.739 98.4865 396 99.4355M396.211 99.4355L396.106 99.3301C396.106 99.4355 396.106 99.4355 396.211 99.4355C394.311 99.4355 392.411 99.3301 390.616 99.1192C388.821 98.5919 387.027 98.0647 385.232 97.3266C387.449 96.6939 389.56 95.7449 391.461 94.585C394.417 92.7924 398.323 88.7855 395.684 85.3058C393.783 82.7751 391.038 84.0404 389.244 85.6221C386.921 87.5201 386.604 90.0508 385.865 93.1088C385.76 93.8469 385.338 96.2721 384.81 97.1157C382.065 96.2721 379.426 95.2177 376.681 94.3741C378.687 93.4251 380.692 92.2652 382.382 90.8944C384.915 88.7855 386.921 84.4622 384.176 81.5097C382.17 79.4008 379.742 80.4553 378.37 82.2478C376.575 84.4622 376.786 86.8875 376.786 89.9454C376.786 90.6835 377.103 93.3197 376.47 94.2687C373.302 93.4251 370.241 92.4761 366.862 92.687V92.5815V92.687C366.862 92.687 366.546 92.7924 366.651 92.687C368.235 90.8944 369.924 89.9454 371.824 88.0474C374.041 85.7276 375.414 81.4043 372.247 78.7681C369.924 76.8701 367.707 78.7681 366.651 80.6661C365.384 83.1969 365.807 85.3058 366.335 88.2582C366.44 88.9964 367.179 91.5271 366.651 92.5815C362.851 93.2142 359.156 94.3741 355.672 95.9558L355.883 96.2721C359.367 94.6905 362.956 93.636 366.757 93.0033C365.912 95.2177 365.384 97.432 364.857 99.7519C364.329 103.232 364.857 108.398 369.185 109.664C372.352 110.613 373.619 108.188 373.514 105.551C373.408 102.283 371.402 99.9627 369.502 96.9048C369.08 96.2721 367.285 94.0578 367.074 92.8979C370.241 92.5815 373.408 93.5305 376.47 94.3741C375.731 96.5885 375.097 98.8028 374.569 101.017C373.936 104.497 374.992 109.664 379.214 110.824C382.276 111.773 383.86 109.453 383.648 106.922C383.332 103.653 381.326 101.755 379.426 98.8028C379.003 98.0647 376.892 95.534 376.681 94.3741C379.214 95.1122 381.854 96.1667 384.493 97.0103C384.493 96.7994 384.493 96.5885 384.599 97.432C384.704 99.8573 384.915 102.283 385.338 104.708C385.971 107.66 389.244 112.827 393.572 112.089C396.845 111.562 397.373 108.926 395.895 106.606C393.994 103.653 391.461 103.021 388.505 100.912C387.766 100.385 384.915 98.4865 384.599 97.1157C386.499 97.7484 388.61 98.6974 390.511 99.1192C392.411 99.3301 394.311 99.4355 396.211 99.4355C396.528 101.65 397.056 103.864 397.901 105.973C399.273 109.664 403.179 113.143 407.508 112.089C410.675 111.351 411.308 108.609 409.725 106.184C407.613 103.126 404.657 102.704 401.279 101.334C400.54 101.017 397.795 100.174 396.95 99.4355C397.056 99.4355 397.267 99.4355 397.478 99.4355C400.962 99.2246 404.446 98.6974 407.824 98.0647C409.091 100.068 410.464 101.966 411.836 103.864C414.475 106.922 419.437 109.453 423.238 107.449C426.088 105.868 425.877 103.126 423.66 101.017L396.211 99.4355Z" fill="#651FFF"/>
<path d="M349.232 67.38C347.331 71.0706 345.853 75.0776 344.798 79.1899L345.114 79.7172C346.17 75.4993 347.648 71.4924 349.654 67.6964C351.238 70.1216 353.032 72.336 354.933 74.5503C357.994 77.6083 363.484 80.8771 367.918 77.6083C371.191 75.2885 369.713 72.1251 367.073 70.438C363.695 68.2236 360 68.329 355.566 68.0127C354.51 67.9072 351.132 68.0127 349.865 67.5909C351.871 64.2166 355.144 61.8968 358.311 59.4716C359.894 61.7914 361.584 64.1112 363.484 66.2201C366.44 69.3835 372.246 72.1251 376.575 68.9617C379.742 66.6419 378.686 63.3731 376.047 61.7914C372.669 59.6825 369.29 60.3152 364.962 59.9988C363.906 59.9988 359.894 60.1043 358.628 59.4716C361.267 57.4681 364.223 55.6755 366.968 53.7775C366.757 53.5666 366.651 53.4612 367.496 53.9884C369.924 55.6755 372.457 57.1518 374.991 58.5226C378.37 59.9988 385.76 60.6315 388.293 55.781C390.194 52.1958 387.977 49.7706 384.598 49.4542C380.27 49.1379 377.736 51.2468 373.513 52.5122C372.352 52.8285 368.551 54.3047 366.968 53.5666C368.974 52.0904 371.402 50.825 373.196 49.2433C374.78 47.5562 376.258 45.8691 377.631 43.971C380.375 45.2364 381.959 46.2909 385.337 47.1344C389.982 48.3998 396.211 47.1344 398.323 42.1785C399.906 38.4879 397.689 35.8517 394.1 35.7463C389.56 35.5354 387.026 38.1715 383.015 40.4913C382.17 41.0186 379.32 43.1275 377.947 43.4438C378.053 43.2329 378.158 43.022 378.369 42.9166C380.692 39.3314 382.803 35.5354 384.598 31.7393C387.554 31.9502 390.51 32.0557 393.466 31.9502C398.428 31.6339 404.551 28.5759 405.29 23.4091C405.818 19.5076 402.968 17.715 399.378 18.3477C394.839 19.0858 392.622 22.9873 389.455 26.467C388.082 28.1542 386.604 29.7358 385.021 31.1066C386.182 28.3651 387.449 25.4126 388.399 22.4601C390.616 19.8239 393.255 16.4497 395.261 13.8135C398.006 10.1229 401.279 4.3234 397.478 1.37091C394.628 -0.738006 391.777 1.05457 390.088 3.79617C388.082 7.38133 388.399 11.1774 388.293 15.6061C388.293 17.6096 388.188 19.7185 387.977 21.722C387.977 21.9329 387.554 23.0928 387.449 23.3037V23.4091C386.71 25.518 385.865 27.7324 384.915 29.7358C385.654 26.7834 386.393 22.8819 386.71 20.0348C387.343 15.3952 386.71 8.22489 380.903 8.85757C376.68 9.3848 376.364 13.6026 376.469 16.766C376.68 20.7729 378.686 23.0928 381.22 26.5725C381.748 27.3106 383.859 29.8413 384.176 31.1066C384.176 31.2121 384.07 31.423 383.965 31.5284C383.965 31.6339 383.859 31.6339 383.754 31.6339H383.859C382.065 35.4299 380.059 39.1205 377.736 42.7057C377.525 43.022 377.419 43.2329 377.208 43.5493C377.419 40.0695 377.736 36.3789 377.736 33.0047C377.736 28.6814 375.836 21.9329 370.346 23.3037C366.334 24.3581 366.334 28.2596 366.968 31.2121C367.812 34.9027 370.135 37.0116 373.196 39.7532C373.935 40.3859 376.68 42.3894 377.103 43.7601V43.8656H376.891L376.997 43.971C375.625 45.7636 374.147 47.4508 372.669 49.1379C370.874 50.6141 368.974 51.8795 366.968 53.1448C367.918 50.5087 368.551 47.7671 368.868 45.0255C369.29 40.8077 368.129 34.0591 362.85 34.1646C358.944 34.27 358.205 37.7497 358.416 40.7022C358.628 44.3928 360.845 46.5017 363.378 49.4542C363.906 50.0869 366.229 52.3013 366.545 53.4612C363.695 55.4646 360.739 57.2572 357.889 59.3661C358.522 56.73 358.733 53.9884 358.733 51.1414C358.522 47.1344 355.672 41.9676 350.815 42.6002C347.226 43.022 346.592 46.1854 347.331 48.8215C348.282 52.1958 350.71 53.6721 353.666 55.9919C354.405 56.5191 357.255 58.2062 357.677 59.4716C354.405 62.0023 351.343 64.3221 349.126 67.6964C349.126 67.6964 349.126 67.5909 349.021 67.5909C349.021 67.5909 349.021 67.6964 349.126 67.6964C349.232 67.6964 349.232 67.4855 349.232 67.38C348.598 64.4275 348.915 62.0023 348.387 58.8389C347.754 54.9374 344.375 50.5087 339.519 51.6686C335.93 52.6176 336.141 56.0973 337.302 58.628C338.886 61.7914 341.208 62.8459 344.586 64.533C345.537 64.9548 348.493 66.2201 349.232 67.38Z" fill="#651FFF"/>
<path d="M462.933 430.219C459.238 431.168 457.76 434.437 455.437 437.495C454.487 438.971 453.326 440.342 452.165 441.607C452.904 439.288 453.748 436.862 454.382 434.332C455.965 432.012 457.971 429.165 459.343 426.845C461.349 423.576 463.672 418.726 460.294 416.617C457.865 415.035 455.648 416.722 454.487 419.148C453.009 422.205 453.643 425.263 453.854 428.849C454.065 430.536 454.065 432.223 454.065 433.91C454.065 434.121 453.854 435.07 453.748 435.175C453.326 436.968 452.692 438.76 452.165 440.448C452.587 438.022 452.904 434.754 453.009 432.434C453.22 428.638 452.165 422.838 447.519 423.787C444.141 424.42 444.141 427.9 444.458 430.536C444.88 433.804 446.675 435.597 448.997 438.128C449.525 438.655 451.426 440.553 451.742 441.713C451.742 441.818 451.637 442.029 451.637 442.029L451.531 442.135H451.637C450.475 445.298 448.997 448.461 447.414 451.519C447.308 451.73 447.203 451.941 446.992 452.152C446.992 449.305 446.886 446.353 446.675 443.506C446.358 439.92 444.352 434.648 440.024 436.124C436.857 437.179 437.068 440.342 437.807 442.767C438.757 445.72 440.868 447.196 443.402 449.305C444.036 449.832 446.464 451.203 446.886 452.258V452.363H446.78L446.886 452.468C445.936 454.05 444.88 455.526 443.719 457.003C442.452 458.373 440.763 459.428 439.39 460.693C440.024 458.479 440.341 456.264 440.341 453.945C440.341 450.57 438.968 445.087 434.745 445.509C431.578 445.825 431.261 448.778 431.578 451.098C432 454.05 434.006 455.632 436.223 457.952C436.751 458.479 438.651 460.061 439.074 461.01C436.857 462.802 434.64 464.489 432.423 466.387C432.739 464.173 432.739 461.959 432.528 459.639C432.106 456.37 429.467 452.363 425.56 453.207C422.71 453.839 422.393 456.37 423.132 458.479C424.082 461.22 426.194 462.169 428.833 463.857C429.467 464.278 431.895 465.438 432.423 466.387C429.995 468.602 427.566 470.711 426.088 473.663C426.088 473.663 426.088 473.558 425.983 473.558C425.877 473.558 425.983 473.663 426.088 473.663C426.194 473.663 426.088 473.979 425.983 473.768C425.244 471.554 425.455 469.551 424.821 466.914C424.082 463.857 421.021 460.377 417.22 461.748C414.37 462.697 414.792 465.649 415.953 467.547C417.431 469.972 419.437 470.711 422.288 471.87C423.027 472.187 425.455 472.925 426.088 473.874C424.61 477.459 423.555 481.255 423.027 485.157H423.449C423.977 481.361 424.927 477.775 426.405 474.19C427.883 475.983 429.467 477.775 431.156 479.357C433.795 481.677 438.546 483.891 441.924 480.939C444.352 478.83 442.98 476.405 440.763 475.139C437.912 473.558 434.851 473.874 431.261 473.979C430.417 473.979 427.672 474.296 426.616 473.979C427.989 471.132 430.522 468.918 432.845 466.809C434.323 468.602 435.801 470.394 437.49 471.976C440.129 474.296 444.986 476.194 448.258 473.241C450.687 471.132 449.631 468.602 447.308 467.442C444.352 465.965 441.713 466.704 438.124 466.809C437.279 466.809 434.006 467.231 432.951 466.809C434.956 465.016 437.173 463.329 439.285 461.642C439.074 461.537 438.968 461.431 439.707 461.748C441.819 462.908 444.036 463.962 446.253 464.911C449.103 465.965 455.121 465.965 456.915 461.853C458.182 458.795 456.282 457.003 453.431 457.003C449.948 457.003 448.047 458.901 444.669 460.271C443.824 460.693 440.763 462.064 439.39 461.537C440.868 460.166 442.769 459.006 444.141 457.53C445.302 456.054 446.464 454.472 447.414 452.89C449.525 453.839 451.637 454.472 453.854 454.999C457.654 455.737 462.722 454.261 464.094 450.043C465.15 446.88 463.144 444.982 460.188 445.087C456.493 445.193 454.593 447.512 451.531 449.727C450.898 450.149 448.681 452.152 447.625 452.468C447.731 452.258 447.836 452.152 447.836 451.941C449.525 448.883 450.898 445.72 452.165 442.346C454.593 442.346 456.915 442.24 459.343 441.924C463.355 441.397 468.106 438.444 468.423 434.121C468.317 430.747 465.783 429.481 462.933 430.219Z" fill="#651FFF"/>
<path d="M394.522 475.35C396.739 478.935 399.273 482.31 402.123 485.368H402.757C399.695 482.31 397.056 478.83 394.839 475.139C397.689 475.034 400.54 474.717 403.39 474.296C407.613 473.347 413.314 470.394 412.892 464.911C412.575 460.904 409.197 460.588 406.241 461.853C402.546 463.54 400.751 466.704 398.112 470.289C397.584 471.132 395.789 474.085 394.733 474.928C392.939 471.449 392.622 467.442 392.305 463.54C395.156 463.435 398.006 463.224 400.751 462.697C404.974 461.853 410.358 458.373 409.936 453.101C409.619 449.094 406.346 448.356 403.496 449.832C399.906 451.625 398.64 454.788 396.106 458.268C395.472 459.112 393.572 462.591 392.305 463.435C391.989 460.166 392.094 456.686 391.883 453.417C391.672 453.523 391.461 453.523 392.305 453.101C395.05 451.941 397.689 450.57 400.223 448.989C403.285 446.985 407.719 440.975 404.974 436.23C402.968 432.75 399.695 433.383 397.689 436.124C395.156 439.604 395.578 442.767 394.417 447.091C394.1 448.251 393.255 452.258 391.883 453.207C391.672 450.781 391.883 448.04 391.461 445.614C390.933 443.4 390.194 441.186 389.349 439.077C391.883 437.39 393.572 436.652 396.106 434.226C399.59 430.957 401.912 425.052 398.745 420.518C396.423 417.249 393.044 417.777 391.038 420.729C388.505 424.42 389.349 428.005 389.244 432.539C389.244 433.488 389.56 437.073 389.138 438.339C389.033 438.128 388.927 437.917 388.821 437.706C387.027 433.805 384.915 430.114 382.593 426.529C384.282 424.103 385.971 421.678 387.449 419.148C389.877 414.824 390.511 407.97 386.393 404.596C383.437 402.065 380.27 403.542 378.898 406.916C377.103 411.134 379.32 415.141 380.481 419.569C381.22 421.573 381.748 423.682 382.17 425.791C380.481 423.26 378.581 420.729 376.681 418.304C375.625 415.035 374.252 411.028 372.986 407.97C371.296 403.647 368.129 397.847 363.59 399.535C360.317 400.8 360.317 404.174 361.795 407.021C363.695 410.606 367.179 412.399 370.874 414.719C372.669 415.773 374.358 416.933 375.942 418.199C376.047 418.304 376.892 419.253 376.997 419.464V419.569C378.37 421.362 379.742 423.154 381.009 425.052C378.898 422.944 375.942 420.202 373.725 418.409C370.135 415.457 363.695 412.188 361.162 417.355C359.367 421.151 362.745 423.787 365.49 425.263C368.974 427.161 372.035 426.74 376.258 426.423C377.208 426.318 380.481 425.896 381.748 426.318C381.854 426.318 381.959 426.634 382.065 426.74C382.065 426.845 382.065 426.845 382.065 426.951L382.17 426.845C384.493 430.325 386.499 434.015 388.293 437.811C388.399 438.128 388.505 438.444 388.716 438.655C385.971 436.652 382.909 434.437 379.953 432.645C376.258 430.325 369.502 428.427 367.813 433.804C366.546 437.706 369.924 439.815 372.774 440.869C376.364 442.135 379.32 441.186 383.332 440.131C384.282 439.92 387.449 438.55 388.821 438.971C388.821 438.971 388.927 438.971 388.927 439.077C388.927 439.182 388.927 439.182 388.821 439.288H388.927C389.772 441.397 390.511 443.506 391.038 445.72C391.461 447.934 391.25 450.359 391.461 452.679C389.771 450.465 387.766 448.461 385.549 446.774C382.17 444.244 375.836 441.607 373.091 446.142C371.085 449.516 373.725 451.941 376.258 453.312C379.531 454.999 382.487 454.366 386.288 453.734C387.132 453.628 390.194 452.89 391.355 453.207C391.566 456.686 391.566 460.166 391.777 463.646C389.772 461.748 387.66 460.061 385.232 458.69C381.748 456.792 375.836 456.37 373.725 460.799C372.141 464.067 374.464 466.282 377.208 467.125C380.587 468.18 383.12 466.809 386.604 465.438C387.449 465.122 390.405 463.54 391.672 463.857C392.094 467.864 392.411 471.765 394.206 475.456H394.1H394.206C394.206 475.456 394.522 475.667 394.311 475.667C391.566 474.718 389.666 473.136 386.71 471.87C383.12 470.394 377.42 470.816 375.942 475.561C374.886 479.041 377.947 480.833 380.692 481.044C384.176 481.361 386.393 479.99 389.56 477.986C390.616 477.143 393.15 475.245 394.522 475.35Z" fill="#651FFF"/>
<g opacity="0.3">
<path d="M408.247 211.841H439.074V262.982H430.628" stroke="black" stroke-linecap="round" stroke-linejoin="round"/>
<path d="M426.721 262.982H400.012V211.841H403.918" stroke="black" stroke-linecap="round" stroke-linejoin="round"/>
<path d="M419.542 263.826V284.282" stroke="black" stroke-linecap="round" stroke-linejoin="round"/>
<path d="M443.93 285.442H457.126V295.143" stroke="black" stroke-linecap="round" stroke-linejoin="round"/>
<path d="M392.516 285.442H440.446" stroke="black" stroke-linecap="round" stroke-linejoin="round"/>
<path d="M381.854 294.932V285.442H387.66" stroke="black" stroke-linecap="round" stroke-linejoin="round"/>
<path d="M387.554 295.249H374.041V309.484H387.554V295.249Z" stroke="black" stroke-linecap="round" stroke-linejoin="round"/>
<path d="M412.786 295.249H399.273V309.484H412.786V295.249Z" stroke="black" stroke-linecap="round" stroke-linejoin="round"/>
<path d="M429.572 309.484H424.399V295.249H437.912V309.484H433.267" stroke="black" stroke-linecap="round" stroke-linejoin="round"/>
<path d="M463.144 295.249H449.63V309.484H463.144V295.249Z" stroke="black" stroke-linecap="round" stroke-linejoin="round"/>
<path d="M406.24 294.616V285.442" stroke="black" stroke-linecap="round" stroke-linejoin="round"/>
<path d="M431.367 294.616V285.442" stroke="black" stroke-linecap="round" stroke-linejoin="round"/>
</g>
<g opacity="0.3">
<path d="M40.8562 19.5076H51.9413V57.3626H22.5923V19.5076H36.5278" stroke="black" stroke-linecap="round" stroke-linejoin="round"/>
<path d="M6.43986 97.5376H0.527832V75.0776H16.7859V97.5376H10.7683" stroke="black" stroke-linecap="round" stroke-linejoin="round"/>
<path d="M45.3958 75.0776H29.1377V97.4322H45.3958V75.0776Z" stroke="black" stroke-linecap="round" stroke-linejoin="round"/>
<path d="M57.7476 85.8331V75.0776H74.0056V97.5376H57.7476V89.2074" stroke="black" stroke-linecap="round" stroke-linejoin="round"/>
<path d="M20.481 66.7473L8.4458 75.0775" stroke="black" stroke-linecap="round" stroke-linejoin="round"/>
<path d="M33.8884 57.468L22.6978 65.1656" stroke="black" stroke-linecap="round" stroke-linejoin="round"/>
<path d="M37.9004 58.1008V74.3395" stroke="black" stroke-linecap="round" stroke-linejoin="round"/>
<path d="M42.5454 57.468L66.4046 75.1829" stroke="black" stroke-linecap="round" stroke-linejoin="round"/>
</g>
<g opacity="0.3">
<path d="M185.49 348.92H193.197V386.986H163.637V348.92H182.956" stroke="black" stroke-linecap="round" stroke-linejoin="round"/>
<path d="M131.015 381.714H127.32V359.149H143.683V381.714H134.182" stroke="black" stroke-linecap="round" stroke-linejoin="round"/>
<path d="M186.651 404.912H170.288V427.478H186.651V404.912Z" stroke="black" stroke-linecap="round" stroke-linejoin="round"/>
<path d="M220.751 381.714H213.678V359.149H229.936V381.714H224.34" stroke="black" stroke-linecap="round" stroke-linejoin="round"/>
<path d="M163.742 369.693H144.422" stroke="black" stroke-linecap="round" stroke-linejoin="round"/>
<path d="M213.044 369.693H193.725" stroke="black" stroke-linecap="round" stroke-linejoin="round"/>
<path d="M178.733 398.585V404.596" stroke="black" stroke-linecap="round" stroke-linejoin="round"/>
<path d="M178.733 387.514V395.211" stroke="black" stroke-linecap="round" stroke-linejoin="round"/>
</g>
<path d="M355.777 20.9836H112.012V306.215H355.777V20.9836Z" fill="white" stroke="#263238" stroke-linecap="round" stroke-linejoin="round"/>
<path d="M355.672 20.9836H112.012V33.0045H355.672V20.9836Z" fill="#651FFF" stroke="#263238" stroke-linecap="round" stroke-linejoin="round"/>
<path d="M327.378 26.6776C327.378 25.0959 326.111 23.8306 324.528 23.8306C322.944 23.8306 321.677 25.0959 321.677 26.6776C321.677 28.2593 322.944 29.5246 324.528 29.5246C326.111 29.5246 327.378 28.2593 327.378 26.6776Z" fill="white" stroke="#263238" stroke-linecap="round" stroke-linejoin="round"/>
<path d="M337.407 26.6776C337.407 25.0959 336.141 23.8306 334.557 23.8306C332.973 23.8306 331.707 25.0959 331.707 26.6776C331.707 28.2593 332.973 29.5246 334.557 29.5246C336.141 29.5246 337.407 28.2593 337.407 26.6776Z" fill="white" stroke="#263238" stroke-linecap="round" stroke-linejoin="round"/>
<path d="M344.481 29.5246C346.055 29.5246 347.331 28.25 347.331 26.6776C347.331 25.1052 346.055 23.8306 344.481 23.8306C342.907 23.8306 341.63 25.1052 341.63 26.6776C341.63 28.25 342.907 29.5246 344.481 29.5246Z" fill="white" stroke="#263238" stroke-linecap="round" stroke-linejoin="round"/>
<path d="M224.973 228.923H124.258V288.183H224.973V228.923Z" stroke="#263238" stroke-linecap="round" stroke-linejoin="round" stroke-dasharray="3 3"/>
<path d="M342.264 228.923H241.548V288.183H342.264V228.923Z" stroke="#263238" stroke-linecap="round" stroke-linejoin="round" stroke-dasharray="3 3"/>
<path d="M341.208 49.4541H243.132V209.732H341.208V49.4541Z" stroke="#263238" stroke-linecap="round" stroke-linejoin="round" stroke-dasharray="3 3"/>
<path d="M269.842 485.367H452.059" stroke="#263238" stroke-linecap="round" stroke-linejoin="round"/>
<path d="M2.11133 485.367H264.141" stroke="#263238" stroke-linecap="round" stroke-linejoin="round"/>
<path d="M350.921 326.988H251.789V389.728H350.921V326.988Z" fill="#263238" stroke="#263238" stroke-linecap="round" stroke-linejoin="round"/>
<path d="M269.631 352.611C274.47 352.611 278.393 348.693 278.393 343.859C278.393 339.025 274.47 335.107 269.631 335.107C264.791 335.107 260.868 339.025 260.868 343.859C260.868 348.693 264.791 352.611 269.631 352.611Z" fill="#651FFF" stroke="#263238" stroke-linecap="round" stroke-linejoin="round"/>
<path d="M351.027 357.883L331.496 340.906L310.276 364.843L288.211 351.451L251.789 389.728H351.027V357.883Z" fill="#651FFF" stroke="#263238" stroke-linecap="round" stroke-linejoin="round"/>
<path d="M351.343 339.009C351.977 338.798 352.716 339.009 353.138 339.536C353.56 340.063 353.877 340.801 353.877 341.539C354.616 342.383 355.144 343.332 355.461 344.492C355.672 345.546 353.666 350.502 353.666 350.502L358.733 363.367L351.66 351.24C351.66 351.24 348.387 345.441 348.071 344.597C347.754 343.016 347.648 341.328 347.754 339.747C347.754 338.798 347.543 336.9 348.704 337.954C349.338 338.481 349.76 339.22 350.182 339.958V340.696L351.343 339.009Z" fill="white" stroke="#263238" stroke-linecap="round" stroke-linejoin="round"/>
<path d="M290.006 384.772L286.522 384.456C285.361 384.139 284.2 383.928 283.038 383.718C281.56 384.139 280.188 384.877 279.026 385.932C278.287 386.67 277.232 386.986 277.76 387.724C278.287 388.463 281.032 387.514 281.032 387.514L278.71 390.572C278.71 391.31 279.238 391.942 279.977 392.153C280.927 392.364 281.877 392.153 282.721 391.626C282.721 391.626 285.572 392.153 286.205 392.364C286.839 392.575 293.068 388.779 293.068 388.779L290.006 384.772Z" fill="white" stroke="#263238" stroke-linecap="round" stroke-linejoin="round"/>
<path d="M308.693 383.823L306.898 427.056C306.898 427.056 307.426 455.842 308.481 461.22C309.537 466.598 310.487 471.343 310.487 471.343L309.537 473.346V476.088C309.537 476.088 302.992 480.622 301.619 481.677C300.247 482.731 299.297 483.258 300.141 483.786C301.091 484.313 313.232 485.051 315.344 485.051C317.455 485.051 318.933 484.84 319.144 483.997C319.355 483.153 318.933 476.615 318.933 476.615C318.933 476.615 319.461 472.292 319.672 471.027C319.883 469.761 319.144 464.489 319.144 461.431C319.144 458.373 320.094 437.6 320.2 433.804C320.305 430.008 323.473 408.814 323.473 408.814C323.473 408.814 330.124 457.108 330.546 459.322C330.863 461.537 334.03 471.976 334.03 471.976V474.19C334.03 474.717 335.085 478.513 335.085 478.513C335.085 478.513 335.085 484.524 336.036 485.051C336.986 485.578 340.364 485.789 341.42 484.524C342.476 483.258 341.209 477.986 341.209 477.986C341.209 477.986 341.525 473.452 341.525 471.659C341.525 469.867 340.258 464.911 340.258 463.751C340.258 462.591 338.78 424.103 338.78 424.103L339.731 384.139L308.798 381.398L308.693 383.823Z" fill="#263238" stroke="#263238" stroke-linecap="round" stroke-linejoin="round"/>
<path d="M323.684 330.467C323.684 330.467 309.009 337.005 308.27 339.747C307.531 342.488 307.953 382.558 308.059 384.034C308.165 385.51 316.927 387.514 323.261 388.041C329.596 388.568 338.675 386.248 339.731 384.034C340.786 381.82 342.475 364.527 342.475 364.527L343.531 360.73C343.531 360.73 351.344 369.588 354.933 371.17C358.522 372.751 360.423 369.904 360 367.057C359.684 364.21 351.449 349.659 350.182 346.601C348.915 343.543 348.388 337.954 346.909 336.056C345.431 334.158 338.992 329.308 338.992 329.308C338.992 329.308 329.279 326.671 323.684 330.467Z" fill="white" stroke="#263238" stroke-linecap="round" stroke-linejoin="round"/>
<path d="M315.66 334.791C315.66 334.791 305.842 338.376 305.314 341.118C304.786 343.859 304.997 368.955 304.997 368.955L290.006 384.772L292.328 390.044C292.328 390.044 317.877 374.649 318.194 371.802C318.51 368.955 318.194 345.23 318.194 345.23" fill="white"/>
<path d="M315.66 334.791C315.66 334.791 305.842 338.376 305.314 341.118C304.786 343.859 304.997 368.955 304.997 368.955L290.006 384.772L292.328 390.044C292.328 390.044 317.877 374.649 318.194 371.802C318.51 368.955 318.194 345.23 318.194 345.23" stroke="#263238" stroke-linecap="round" stroke-linejoin="round"/>
<path d="M343.637 360.73L346.487 346.601" stroke="#263238" stroke-linecap="round" stroke-linejoin="round"/>
<path d="M344.165 358.727L348.176 351.978" stroke="#263238" stroke-linecap="round" stroke-linejoin="round"/>
<path d="M334.663 351.029C331.918 356.302 328.646 361.363 325.056 366.213L334.663 351.029Z" fill="white"/>
<path d="M334.663 351.029C331.918 356.302 328.646 361.363 325.056 366.213" stroke="#263238" stroke-linecap="round" stroke-linejoin="round"/>
<path d="M337.619 345.335C337.619 345.335 337.197 346.284 336.458 347.76L337.619 345.335Z" fill="white"/>
<path d="M337.619 345.335C337.619 345.335 337.197 346.284 336.458 347.76" stroke="#263238" stroke-linecap="round" stroke-linejoin="round"/>
<path d="M326.112 371.064C322.839 373.595 318.3 376.969 316.083 378.024" stroke="#263238" stroke-linecap="round" stroke-linejoin="round"/>
<path d="M329.701 368.323L327.906 369.799" stroke="#263238" stroke-linecap="round" stroke-linejoin="round"/>
<path d="M336.352 318.763L336.563 327.304L324.422 330.151L326.745 319.818C327.378 317.709 329.279 316.127 331.496 316.021C333.502 315.811 335.507 316.865 336.352 318.763Z" fill="white" stroke="#263238" stroke-linecap="round" stroke-linejoin="round"/>
<path d="M325.161 304.422C325.161 304.422 322.205 307.164 322.205 308.218C322.205 309.273 320.939 311.276 320.411 312.225C319.883 313.174 317.455 313.28 317.666 314.756C317.771 315.6 318.405 316.338 319.249 316.549C319.249 316.549 317.032 326.882 320.305 327.937C323.578 328.991 328.962 323.192 328.962 323.192L330.229 318.868C332.024 319.29 333.924 319.712 335.824 319.923C337.091 319.923 341.103 316.338 343.214 313.069C345.326 309.8 340.469 302.524 334.135 300.204C327.801 297.885 322.733 301.153 322.733 302.524C322.733 303.895 325.161 304.422 325.161 304.422Z" fill="white" stroke="#263238" stroke-linecap="round" stroke-linejoin="round"/>
<path d="M334.346 300.31C328.012 297.99 322.944 301.259 322.944 302.63C322.944 304.001 324.845 304.422 325.056 304.422C325.056 304.422 329.595 305.688 329.595 306.953C329.595 308.218 328.54 308.008 328.329 308.535C328.117 309.062 327.801 309.484 328.54 310.011L329.279 310.538C329.279 310.538 328.223 316.127 327.801 317.603C327.59 318.658 326.639 319.501 325.478 319.396C324.422 319.396 320.939 315.916 319.355 316.549C319.355 316.549 317.138 326.882 320.411 327.937C323.683 328.991 329.068 323.192 329.068 323.192L330.334 318.868C332.129 319.29 334.029 319.712 335.93 319.923C337.197 319.923 341.208 316.338 343.32 313.069C345.431 309.8 340.68 302.63 334.346 300.31Z" fill="#263238" stroke="#263238" stroke-linecap="round" stroke-linejoin="round"/>
<path d="M323.156 309.695C324.317 309.273 325.584 309.695 326.217 310.749" stroke="#263238" stroke-linecap="round" stroke-linejoin="round"/>
<path d="M322.944 312.014C323.894 311.698 325.056 311.909 325.795 312.542" stroke="#263238" stroke-linecap="round" stroke-linejoin="round"/>
<path d="M319.672 320.239C320.833 320.661 321.994 320.661 323.156 320.239" stroke="white" stroke-linecap="round" stroke-linejoin="round"/>
<path d="M329.701 314.44C329.701 314.44 331.284 311.909 332.446 313.174C333.501 314.44 332.762 318.025 331.496 318.763C330.862 319.185 330.018 319.185 329.49 318.552L329.701 314.44Z" fill="white" stroke="#263238" stroke-linecap="round" stroke-linejoin="round"/>
<path d="M336.352 325.09C336.352 325.09 328.012 326.355 326.217 326.882C324.528 327.515 322.839 328.253 321.361 329.202L320.622 331.944C320.622 331.944 333.291 329.202 335.613 329.202C336.775 329.202 337.936 329.202 339.097 329.413C339.097 329.413 338.147 324.879 336.352 325.09Z" fill="white" stroke="#263238" stroke-linecap="round" stroke-linejoin="round"/>
<path d="M176.305 269.203H112.012V306.637H176.305V269.203Z" fill="#263238" stroke="#263238" stroke-linecap="round" stroke-linejoin="round"/>
<path d="M170.393 264.247H78.4399V315.494H170.393V264.247Z" fill="#651FFF" stroke="#263238" stroke-linecap="round" stroke-linejoin="round"/>
<path d="M135.132 286.707L118.24 277.006V296.514L135.132 286.707Z" fill="#263238" stroke="#263238" stroke-linecap="round" stroke-linejoin="round"/>
<path d="M170.393 307.269H78.4399V315.494H170.393V307.269Z" fill="#263238" stroke="#263238" stroke-linecap="round" stroke-linejoin="round"/>
<path d="M170.393 309.905H78.4399V312.858H170.393V309.905Z" fill="white" stroke="#263238" stroke-linecap="round" stroke-linejoin="round"/>
<path d="M57.7476 316.865L74.9558 298.517C74.9558 298.517 75.8003 295.143 76.0115 294.088C76.2226 293.034 77.4895 291.769 78.5452 290.925C79.6009 290.081 80.0232 289.343 80.0232 290.925C79.9177 291.874 79.3898 292.823 78.5452 293.245C78.5452 293.245 78.3341 297.357 78.3341 297.779V299.782L65.6654 318.763L57.7476 316.865Z" fill="white" stroke="#263238" stroke-linecap="round" stroke-linejoin="round"/>
<path d="M57.3252 322.559C56.4806 321.399 56.0583 319.923 56.1639 318.447C56.5862 316.127 58.8032 314.545 61.1258 314.967C61.2313 314.967 61.3369 314.967 61.4425 315.072C63.7651 315.705 66.4044 316.232 66.7211 318.236C67.0378 320.239 63.6595 319.923 60.9146 320.239C59.4366 320.45 58.0642 321.294 57.3252 322.559Z" fill="white" stroke="#263238" stroke-linecap="round" stroke-linejoin="round"/>
<path d="M107.05 335.002C107.05 335.002 122.78 314.334 123.73 313.174C124.68 312.014 125.103 312.331 126.792 312.331C128.481 312.331 131.331 311.698 131.754 312.12C132.176 312.542 132.281 313.491 131.542 313.491C130.803 313.491 127.847 314.123 127.847 314.123L132.281 315.283C132.281 315.283 134.182 315.283 134.182 315.81C134.182 316.338 133.865 316.127 132.176 316.865C130.698 317.498 129.009 317.919 127.425 318.025H123.836L111.273 341.75L107.05 335.002Z" fill="white" stroke="#263238" stroke-linecap="round" stroke-linejoin="round"/>
<path d="M69.3606 419.358L70.5219 424.736C66.4046 425.158 62.1817 425.474 57.9588 425.369C53.4192 425.369 48.8797 424.947 44.3401 424.314C44.3401 424.314 42.6509 419.885 40.7506 419.358C38.8503 418.831 33.1494 423.892 30.6157 425.579C28.082 427.267 25.865 430.325 26.7096 431.168C27.5541 432.012 31.777 430.325 31.777 430.325C31.777 430.325 39.2726 429.165 41.5952 429.165C43.9178 429.165 47.5072 430.325 53.6304 431.484C60.9148 432.644 68.1993 433.277 75.4838 433.488C78.5453 433.488 80.0234 433.699 81.0791 430.641C82.1348 427.583 81.0791 417.249 81.0791 417.249L68.516 416.195L69.3606 419.358Z" fill="white" stroke="#263238" stroke-linecap="round" stroke-linejoin="round"/>
<path d="M34.5217 430.114L33.8882 429.165L44.551 424.42C44.551 424.42 42.8618 419.991 40.9616 419.464C39.0613 418.936 33.3604 423.998 30.8267 425.685C28.2929 427.372 26.0759 430.43 26.9205 431.274C27.7651 432.117 31.9879 430.43 31.9879 430.43L34.5217 430.114Z" fill="#263238" stroke="#263238" stroke-linecap="round" stroke-linejoin="round"/>
<path d="M78.7565 420.202L80.2345 430.746C80.2345 430.746 79.0732 443.927 79.6011 449.727C80.129 455.526 80.129 474.296 80.129 474.296C80.129 474.296 77.3841 479.041 77.8064 480.095C78.2287 481.15 82.2404 483.997 84.0351 484.84C85.8298 485.684 89.1026 485.684 89.6304 484.629C90.1583 483.575 87.3078 481.888 87.3078 481.888L84.563 475.139C84.563 475.139 92.1642 431.801 92.1642 428.532C92.1642 425.263 92.7976 417.566 92.7976 417.566L78.7565 420.202Z" fill="white" stroke="#263238" stroke-linecap="round" stroke-linejoin="round"/>
<path d="M82.4516 477.248C81.5015 476.51 80.3402 476.088 79.0733 476.088C78.3343 477.564 77.4898 479.462 77.7009 480.095C78.0176 481.15 82.1349 483.997 83.9296 484.84C85.7244 485.684 88.9971 485.684 89.525 484.629C90.0528 483.575 87.2024 481.888 87.2024 481.888C85.7244 480.201 84.1408 478.724 82.4516 477.248Z" fill="#263238" stroke="#263238" stroke-linecap="round" stroke-linejoin="round"/>
<path d="M65.8766 371.591C63.1318 377.602 61.5482 384.034 60.9148 390.572C59.8591 401.749 68.0937 418.831 68.0937 418.831C68.0937 418.831 69.1494 422.1 78.2285 422.416C83.7183 422.627 89.1025 421.467 93.9588 419.042C93.9588 419.042 97.5482 407.021 95.4368 388.357C95.0145 383.823 93.5365 379.5 91.3195 375.493L65.8766 371.591Z" fill="#263238" stroke="#263238" stroke-linecap="round" stroke-linejoin="round"/>
<path d="M84.4573 333.314L106.522 334.896L110.111 342.805C110.111 342.805 107.261 343.437 101.666 344.492C96.0702 345.546 92.3752 346.495 92.3752 346.495C92.3752 346.495 92.6919 350.713 92.6919 354.614C92.6919 358.516 90.7916 366.846 90.7916 366.846L93.0086 378.34C93.0086 378.34 88.2579 376.653 86.252 376.653C84.2462 376.653 83.0849 378.867 77.0673 380.238C67.2491 382.452 64.7154 373.173 64.7154 373.173C64.7154 373.173 67.5658 366.53 67.5658 363.683C67.5658 360.836 63.1318 344.386 63.1318 344.386L57.0086 321.821C57.0086 321.821 55.8473 319.079 59.7535 318.552C61.7594 318.236 63.7652 318.341 65.6655 318.868L74.8503 331.205C74.8503 331.205 78.0174 333.525 79.3899 333.42C80.7623 333.314 84.4573 333.314 84.4573 333.314Z" fill="white" stroke="#263238" stroke-linecap="round" stroke-linejoin="round"/>
<path d="M85.8297 312.331C85.8297 312.331 86.0408 314.545 86.991 315.388C87.9411 316.232 89.7358 316.232 89.7358 317.603C89.7358 318.341 89.7358 319.079 89.947 319.817C89.947 319.817 89.947 324.246 89.7358 325.617C89.5247 326.988 85.3018 328.358 85.3018 328.358L85.0907 333.314L79.8121 330.784C78.6508 327.62 78.5452 324.14 79.4954 320.977C80.7622 317.392 82.8737 314.334 85.8297 312.331Z" fill="white" stroke="#263238" stroke-linecap="round" stroke-linejoin="round"/>
<path d="M85.5132 307.902C85.5132 307.902 86.8857 313.174 85.3021 316.232C83.7185 319.29 81.1848 321.188 82.2405 323.719C83.2962 326.249 85.9355 331.522 85.0909 333.209C84.2464 334.896 77.0675 338.692 71.7889 336.372C66.5103 334.052 67.0382 330.467 67.0382 330.467C67.0382 330.467 69.5719 331.522 69.044 328.886C68.5162 326.249 65.9824 325.722 65.1379 319.606C64.2933 313.49 68.8329 309.062 74.1115 307.058C79.3901 305.055 83.6129 305.371 85.5132 307.902Z" fill="#263238" stroke="#263238" stroke-linecap="round" stroke-linejoin="round"/>
<path d="M104.833 334.685C104.833 334.685 107.05 338.059 107.366 339.747C107.683 341.434 108.211 343.648 108.211 343.648C109.372 344.175 110.639 343.859 111.484 343.015C112.856 341.539 112.011 338.797 110.85 337.216C109.794 335.95 108.633 334.896 107.472 333.842C107.366 333.842 105.36 333.842 104.833 334.685Z" fill="white" stroke="#263238" stroke-linecap="round" stroke-linejoin="round"/>
<path d="M355.672 55.9917H276.915V216.269H355.672V55.9917Z" fill="#263238" stroke="#263238" stroke-linecap="round" stroke-linejoin="round"/>
<path d="M369.185 49.4541H271.108V209.732H369.185V49.4541Z" fill="white" stroke="#263238" stroke-linecap="round" stroke-linejoin="round"/>
<path d="M361.478 62.2131H278.921V131.913H361.478V62.2131Z" fill="#263238" stroke="#263238" stroke-linecap="round" stroke-linejoin="round"/>
<path d="M361.372 94.5849L349.654 83.1968L331.496 106.606L312.704 95.5339L278.921 131.913H361.372V94.5849Z" fill="#651FFF" stroke="#263238" stroke-linecap="round" stroke-linejoin="round"/>
<path d="M294.123 87.0983C298.962 87.0983 302.885 83.1798 302.885 78.3462C302.885 73.5126 298.962 69.5942 294.123 69.5942C289.283 69.5942 285.36 73.5126 285.36 78.3462C285.36 83.1798 289.283 87.0983 294.123 87.0983Z" fill="#651FFF" stroke="#263238" stroke-linecap="round" stroke-linejoin="round"/>
<path d="M354.827 145.515H359.472" stroke="#263238" stroke-linecap="round" stroke-linejoin="round"/>
<path d="M322.522 145.515H350.182" stroke="#263238" stroke-linecap="round" stroke-linejoin="round"/>
<path d="M297.079 145.515H317.666" stroke="#263238" stroke-linecap="round" stroke-linejoin="round"/>
<path d="M279.554 145.515H291.695" stroke="#263238" stroke-linecap="round" stroke-linejoin="round"/>
<path d="M350.393 161.121H359.472" stroke="#263238" stroke-linecap="round" stroke-linejoin="round"/>
<path d="M319.144 161.121H347.754" stroke="#263238" stroke-linecap="round" stroke-linejoin="round"/>
<path d="M279.554 161.121H316.188" stroke="#263238" stroke-linecap="round" stroke-linejoin="round"/>
<path d="M306.792 176.727H359.472" stroke="#263238" stroke-linecap="round" stroke-linejoin="round"/>
<path d="M279.554 176.727H302.674" stroke="#263238" stroke-linecap="round" stroke-linejoin="round"/>
<path d="M351.132 192.228H359.472" stroke="#263238" stroke-linecap="round" stroke-linejoin="round"/>
<path d="M295.39 192.228H347.543" stroke="#263238" stroke-linecap="round" stroke-linejoin="round"/>
<path d="M279.554 192.228H292.012" stroke="#263238" stroke-linecap="round" stroke-linejoin="round"/>
<path d="M221.595 99.1193V196.446H144.95V178.415H112.012V70.7544H158.991L169.865 81.1935V88.7856H210.616L221.595 99.1193Z" fill="#263238" stroke="#263238" stroke-linecap="round" stroke-linejoin="round"/>
<path d="M165.114 170.19H88.4692V62.4241H154.135L165.114 72.8632V170.19Z" fill="white" stroke="#263238" stroke-linecap="round" stroke-linejoin="round"/>
<path d="M154.135 62.4241V73.1796H165.114L154.135 62.4241Z" fill="white" stroke="#263238" stroke-linecap="round" stroke-linejoin="round"/>
<path d="M115.496 86.0439H151.707" stroke="#263238" stroke-linecap="round" stroke-linejoin="round"/>
<path d="M102.193 86.0439H111.589" stroke="#263238" stroke-linecap="round" stroke-linejoin="round"/>
<path d="M133.865 100.912H151.707" stroke="#263238" stroke-linecap="round" stroke-linejoin="round"/>
<path d="M102.193 100.912H130.17" stroke="#263238" stroke-linecap="round" stroke-linejoin="round"/>
<path d="M120.141 115.78H151.707" stroke="#263238" stroke-linecap="round" stroke-linejoin="round"/>
<path d="M102.193 115.78H117.29" stroke="#263238" stroke-linecap="round" stroke-linejoin="round"/>
<path d="M102.193 130.647H151.707" stroke="#263238" stroke-linecap="round" stroke-linejoin="round"/>
<path d="M133.232 145.515H151.707" stroke="#263238" stroke-linecap="round" stroke-linejoin="round"/>
<path d="M102.193 145.515H128.164" stroke="#263238" stroke-linecap="round" stroke-linejoin="round"/>
<path d="M216.739 188.116H140.094V80.4553H205.759L216.739 90.8945V188.116Z" fill="white" stroke="#263238" stroke-linecap="round" stroke-linejoin="round"/>
<path d="M205.76 80.4553V91.2108H216.739L205.76 80.4553Z" fill="white" stroke="#263238" stroke-linecap="round" stroke-linejoin="round"/>
<path d="M175.25 103.97H203.332" stroke="#263238" stroke-linecap="round" stroke-linejoin="round"/>
<path d="M153.818 103.97H171.871" stroke="#263238" stroke-linecap="round" stroke-linejoin="round"/>
<path d="M194.991 118.943H203.331" stroke="#263238" stroke-linecap="round" stroke-linejoin="round"/>
<path d="M153.818 118.943H191.824" stroke="#263238" stroke-linecap="round" stroke-linejoin="round"/>
<path d="M197.525 133.811H203.331" stroke="#263238" stroke-linecap="round" stroke-linejoin="round"/>
<path d="M165.537 133.811H193.83" stroke="#263238" stroke-linecap="round" stroke-linejoin="round"/>
<path d="M153.818 133.811H160.681" stroke="#263238" stroke-linecap="round" stroke-linejoin="round"/>
<path d="M179.578 148.679H203.331" stroke="#263238" stroke-linecap="round" stroke-linejoin="round"/>
<path d="M153.818 148.679H175.883" stroke="#263238" stroke-linecap="round" stroke-linejoin="round"/>
<path d="M178.417 163.547H203.331" stroke="#263238" stroke-linecap="round" stroke-linejoin="round"/>
<path d="M153.818 163.547H174.405" stroke="#263238" stroke-linecap="round" stroke-linejoin="round"/>
</g>
<defs>
<clipPath id="clip0_3_550">
<rect width="468" height="486" fill="white"/>
</clipPath>
</defs>
</svg>
