<svg width="80" height="80" viewBox="0 0 80 80" fill="none" xmlns="http://www.w3.org/2000/svg">
<circle cx="40" cy="40" r="40" fill="#651FFF"/>
<g clip-path="url(#clip0_2_546)">
<path d="M53.8036 34.15C53.5153 33.5945 52.9387 33.25 52.313 33.25H41.302L44.8767 24.3133C45.0855 23.7947 45.0217 23.2038 44.7075 22.7397C44.3934 22.2756 43.8122 22 43.313 22H30.938C30.0921 22 29.3777 22.6262 29.2659 23.4653L27.0159 40.3403C26.95 40.8227 27.0972 41.3078 27.418 41.6734C27.7388 42.0391 28.2021 42.25 28.688 42.25H38.9747L36.037 55.8977C35.8679 56.6866 36.2809 57.4839 37.0214 57.8024C37.238 57.9578 37.463 58 37.688 58C38.2307 58 38.7581 57.7363 39.0809 57.2659L53.7059 35.8909C54.0567 35.3734 54.0989 34.7055 53.8036 34.15Z" fill="white"/>
</g>
<defs>
<clipPath id="clip0_2_546">
<rect width="27" height="36" fill="white" transform="translate(27 22)"/>
</clipPath>
</defs>
</svg>
